<?xml version="1.0" encoding="utf-8"?>
<!-- Generator: Adobe Illustrator 16.0.0, SVG Export Plug-In . SVG Version: 6.00 Build 0)  -->
<!DOCTYPE svg PUBLIC "-//W3C//DTD SVG 1.1//EN" "http://www.w3.org/Graphics/SVG/1.1/DTD/svg11.dtd">
<svg version="1.1" id="Layer_1" xmlns="http://www.w3.org/2000/svg" xmlns:xlink="http://www.w3.org/1999/xlink" x="0px" y="0px"
	 width="100px" height="100px" viewBox="0 0 100 100" enable-background="new 0 0 100 100" xml:space="preserve">
<g id="Layer_1_1_">
	<polygon points="50,22.411 26.358,30.72 26.358,35.307 39.253,35.307 39.253,65.573 34.955,65.573 34.955,39.782 26.358,39.782 
		26.358,65.573 26.358,70.113 26.358,70.113 47.851,77.589 47.851,65.573 47.851,35.307 47.851,35.307 47.851,31.008 52.148,31.008 
		52.148,35.307 52.148,35.307 52.148,65.573 52.148,77.589 60.746,74.599 60.746,65.573 60.746,65.573 60.746,35.307 65.045,35.307 
		65.045,65.573 65.045,73.104 73.641,70.113 73.643,70.113 73.643,65.573 73.643,35.307 73.643,35.307 73.643,30.72 	"/>
</g>
</svg>
