<?xml version="1.0" encoding="utf-8"?>
<!-- Generator: Adobe Illustrator 16.0.0, SVG Export Plug-In . SVG Version: 6.00 Build 0)  -->
<!DOCTYPE svg PUBLIC "-//W3C//DTD SVG 1.1//EN" "http://www.w3.org/Graphics/SVG/1.1/DTD/svg11.dtd">
<svg version="1.1" id="Layer_1" xmlns="http://www.w3.org/2000/svg" xmlns:xlink="http://www.w3.org/1999/xlink" x="0px" y="0px"
	 width="100px" height="100px" viewBox="0 0 100 100" enable-background="new 0 0 100 100" xml:space="preserve">
<g enable-background="new    ">
	<path d="M17.125,41.398h8.5v0.52h-2.503v15.489h0.85c1.338,0,2.404-0.409,3.199-1.228s1.602-2.078,2.42-3.778h0.496l-0.448,5.525
		H17.125v-0.52h1.394V41.918h-1.394V41.398z"/>
	<path d="M38.375,57.667c0.787,0,1.483-0.213,2.09-0.638c0.605-0.425,0.909-1.066,0.909-1.924c0-0.858-0.327-1.516-0.979-1.972
		c-0.654-0.457-1.582-0.854-2.787-1.192c-1.204-0.339-2.078-0.634-2.621-0.886s-1.059-0.582-1.547-0.991
		c-0.976-0.818-1.464-2.086-1.464-3.802c0-1.401,0.5-2.605,1.5-3.612c1-1.008,2.365-1.512,4.097-1.512
		c0.834,0,1.704,0.122,2.609,0.366s1.468,0.366,1.688,0.366c0.22,0,0.417-0.157,0.59-0.473h0.26l0.165,4.77h-0.378
		c-0.755-1.369-1.546-2.468-2.373-3.294c-0.827-0.826-1.724-1.239-2.692-1.239s-1.72,0.225-2.255,0.673
		c-0.536,0.448-0.803,1.047-0.803,1.794c0,0.748,0.319,1.322,0.956,1.725c0.638,0.401,1.42,0.728,2.35,0.979
		c0.928,0.252,1.538,0.425,1.83,0.52c0.291,0.095,0.653,0.225,1.086,0.39c0.433,0.165,0.787,0.339,1.063,0.52
		c0.275,0.181,0.566,0.409,0.874,0.685s0.547,0.578,0.72,0.909c0.425,0.755,0.638,1.652,0.638,2.691c0,1.7-0.531,3.066-1.594,4.097
		c-1.063,1.031-2.459,1.547-4.191,1.547c-0.897,0-1.924-0.118-3.081-0.354c-1.157-0.236-1.799-0.354-1.925-0.354
		c-0.22,0-0.433,0.236-0.637,0.709h-0.331l-0.236-5.62h0.401c0.692,1.37,1.578,2.566,2.656,3.589
		C36.041,57.155,37.179,57.667,38.375,57.667z"/>
	<path d="M45.671,50.654c0-3.038,0.681-5.384,2.042-7.036c1.361-1.653,3.231-2.479,5.608-2.479c1.621,0,2.864,0.327,3.73,0.98
		s1.299,1.507,1.299,2.562c0,0.599-0.192,1.113-0.579,1.547c-0.385,0.433-0.893,0.648-1.522,0.648s-1.134-0.169-1.511-0.507
		c-0.378-0.339-0.566-0.74-0.566-1.204c0-0.465,0.063-0.87,0.188-1.217h0.755c0.095-0.251,0.143-0.534,0.143-0.85
		c0-0.992-0.56-1.487-1.677-1.487c-1.118,0-1.937,0.578-2.456,1.735s-0.787,3.152-0.803,5.985c0.818-1.275,2.008-1.912,3.565-1.912
		c1.559,0,2.786,0.421,3.684,1.263c0.897,0.843,1.346,2.105,1.346,3.79s-0.591,3.054-1.771,4.108
		c-1.181,1.055-2.763,1.582-4.746,1.582C47.914,58.163,45.671,55.66,45.671,50.654z M52.684,48.198
		c-0.535,0-0.988,0.201-1.357,0.603c-0.37,0.401-0.622,0.874-0.756,1.417s-0.201,1.251-0.201,2.125c0,0.873,0.004,1.479,0.012,1.818
		c0.008,0.338,0.032,0.739,0.071,1.204c0.04,0.464,0.099,0.803,0.177,1.015c0.079,0.213,0.189,0.438,0.331,0.673
		c0.251,0.41,0.653,0.614,1.204,0.614s0.965-0.106,1.24-0.318c0.275-0.213,0.476-0.57,0.602-1.074
		c0.189-0.74,0.283-1.661,0.283-2.763s-0.004-1.834-0.012-2.196s-0.027-0.744-0.059-1.146c-0.032-0.401-0.083-0.704-0.154-0.909
		c-0.07-0.204-0.161-0.401-0.271-0.59C53.589,48.356,53.219,48.198,52.684,48.198z"/>
	<path d="M66.686,52.401c0-1.495-0.13-2.542-0.39-3.141c-0.26-0.598-0.847-0.896-1.759-0.896c-0.914,0-1.912,0.339-2.999,1.015
		l-0.401-0.188v-7.532l0.378-0.283c0.96,0.142,2.416,0.311,4.368,0.508c1.951,0.196,3.081,0.295,3.389,0.295
		c0.307,0,0.526-0.074,0.661-0.225c0.133-0.149,0.247-0.405,0.342-0.768l0.354,0.048c-0.236,2.408-0.543,3.841-0.921,4.297
		c-0.205,0.236-0.465,0.354-0.779,0.354c-0.315,0-0.977-0.134-1.983-0.401l-5.147-1.346l-0.118,4.58
		c1.148-0.613,2.338-0.921,3.565-0.921s2.251,0.139,3.069,0.414s1.448,0.657,1.89,1.145c0.834,0.929,1.251,2.055,1.251,3.377
		c0,1.685-0.603,3.01-1.807,3.979c-1.204,0.968-2.861,1.452-4.97,1.452c-1.134,0-2.181-0.236-3.141-0.709
		c-0.52-0.267-0.94-0.648-1.263-1.145c-0.323-0.496-0.484-1.07-0.484-1.724s0.185-1.192,0.555-1.617
		c0.369-0.426,0.881-0.638,1.535-0.638c0.652,0,1.164,0.161,1.535,0.483c0.369,0.323,0.555,0.74,0.555,1.252
		s-0.071,0.948-0.213,1.311h-0.779c-0.095,0.252-0.142,0.547-0.142,0.885c0,0.339,0.134,0.661,0.401,0.969
		c0.268,0.307,0.661,0.46,1.181,0.46s0.913-0.082,1.181-0.248c0.268-0.165,0.473-0.365,0.613-0.602
		c0.143-0.236,0.252-0.606,0.331-1.11C66.639,55.007,66.686,53.897,66.686,52.401z"/>
</g>
<g enable-background="new    ">
	<path d="M79.121,47.105l-0.574-6.231h1.284l0.351,4.219l1.886-4.219h1.347l-3,6.231H79.121z"/>
</g>
<g enable-background="new    ">
	<path d="M79.572,57.883l0.969-4.6c-0.283,0.085-0.563,0.148-0.84,0.19c-0.275,0.042-0.559,0.063-0.848,0.063l0.153-0.863
		c0.509-0.053,0.933-0.169,1.271-0.349c0.339-0.181,0.585-0.421,0.737-0.722h1.14l-1.32,6.279H79.572z"/>
</g>
<rect x="16.063" y="35.202" width="67.875" height="1.967"/>
<rect x="16.263" y="62.027" width="67.375" height="1.968"/>
</svg>
