0
SECTION
2
HEADER
9
$INSUNITS
70
4
9
$ACADVER
1
AC1014
9
$HANDSEED
5
FFFF
0
ENDSEC
0
SECTION
2
TABLES
0
TABLE
2
VPORT
5
8
100
AcDbSymbolTable
0
ENDTAB
0
TABLE
2
LTYPE
5
5
100
AcDbSymbolTable
0
LTYPE
5
14
100
AcDbSymbolTableRecord
100
AcDbLinetypeTableRecord
2
BYBLOCK
70
0
0
LTYPE
5
15
100
AcDbSymbolTableRecord
100
AcDbLinetypeTableRecord
2
BYLAYER
70
0
0
ENDTAB
0
TABLE
2
LAYER
5
2
100
AcDbSymbolTable
70
2
0
LAYER
5
50
100
AcDbSymbolTableRecord
100
AcDbLayerTableRecord
2
0
70
0
6
CONTINUOUS
0
ENDTAB
0
TABLE
2
STYLE
5
3
100
AcDbSymbolTable
70
1
0
STYLE
5
11
100
AcDbSymbolTableRecord
100
AcDbTextStyleTableRecord
2
STANDARD
70
0
0
ENDTAB
0
TABLE
2
VIEW
5
6
100
AcDbSymbolTable
70
0
0
ENDTAB
0
TABLE
2
UCS
5
7
100
AcDbSymbolTable
70
0
0
ENDTAB
0
TABLE
2
APPID
5
9
100
AcDbSymbolTable
70
2
0
APPID
5
12
100
AcDbSymbolTableRecord
100
AcDbRegAppTableRecord
2
ACAD
70
0
0
ENDTAB
0
TABLE
2
DIMSTYLE
5
A
100
AcDbSymbolTable
70
1
0
ENDTAB
0
TABLE
2
BLOCK_RECORD
5
1
100
AcDbSymbolTable
70
1
0
BLOCK_RECORD
5
1F
100
AcDbSymbolTableRecord
100
AcDbBlockTableRecord
2
*MODEL_SPACE
0
BLOCK_RECORD
5
1B
100
AcDbSymbolTableRecord
100
AcDbBlockTableRecord
2
*PAPER_SPACE
0
ENDTAB
0
ENDSEC
0
SECTION
2
BLOCKS
0
BLOCK
5
20
100
AcDbEntity
100
AcDbBlockBegin
2
*MODEL_SPACE
0
ENDBLK
5
21
100
AcDbEntity
100
AcDbBlockEnd
0
BLOCK
5
1C
100
AcDbEntity
100
AcDbBlockBegin
2
*PAPER_SPACE
0
ENDBLK
5
1D
100
AcDbEntity
100
AcDbBlockEnd
0
ENDSEC
0
SECTION
2
ENTITIES
0
LWPOLYLINE
5
100
100
AcDbEntity
8
0
100
AcDbPolyline
90
11
70
1
43
0.0
10
21.41928305625914
20
-88.84601446849004
10
19.698038005828842
20
-91.365635721503651
10
19.059337282180771
20
-91.365635721503651
10
19.059337282180771
20
-88.848720817386067
10
18.566779994964584
20
-88.848720817386067
10
18.566779994964584
20
-88.180249957858479
10
19.059337282180771
20
-88.180249957858479
10
19.059337282180771
20
-87.381873755275166
10
19.795467162132248
20
-87.381873755275166
10
19.795467162132248
20
-88.180249957858479
10
21.41928305625914
20
-88.180249957858479
0
SPLINE
5
101
100
AcDbEntity
8
0
100
AcDbSpline
70
0
71
3
72
9
73
5
74
0
42
0.000000001
43
0.0000000001
44
0.0000000001
40
0
40
0
40
0
40
0
40
0.02167881616585297
40
0.04138341984282564
40
0.04138341984282564
40
0.04138341984282564
40
0.04138341984282564
10
15.367863082885727
20
-90.735053746520435
30
0
10
15.441939392893493
20
-90.730303467487786
30
0
10
15.583346147487745
20
-90.721235500396091
30
0
10
15.694044431317572
20
-90.633426620281739
30
0
10
15.746753120422348
20
-90.591616658984577
30
0
0
SPLINE
5
102
100
AcDbEntity
8
0
100
AcDbSpline
70
0
71
3
72
9
73
5
74
0
42
0.000000001
43
0.0000000001
44
0.0000000001
40
0
40
0
40
0
40
0
40
0.022071730898792229
40
0.05108318357312755
40
0.05108318357312755
40
0.05108318357312755
40
0.05108318357312755
10
15.746753120422348
20
-90.591616658984577
30
0
10
15.788913107737399
20
-90.52992009231771
30
0
10
15.886488888328909
20
-90.387128525343329
30
0
10
15.900931642783059
20
-90.213758474319135
30
0
10
15.909134054183944
20
-90.115297167121327
30
0
0
LINE
5
103
100
AcDbEntity
8
0
100
AcDbLine
10
15.909134054183944
20
-90.115297167121327
30
0
11
16.666915321350082
21
-90.191075532256519
31
0
0
SPLINE
5
104
100
AcDbEntity
8
0
100
AcDbSpline
70
0
71
3
72
9
73
5
74
0
42
0.000000001
43
0.0000000001
44
0.0000000001
40
0
40
0
40
0
40
0
40
0.055713326382195963
40
0.10177444666256402
40
0.10177444666256402
40
0.10177444666256402
40
0.10177444666256402
10
16.666915321350082
20
-90.191075532256519
30
0
10
16.638886658596057
20
-90.380075658753924
30
0
10
16.587685234668982
20
-90.725332073017796
30
0
10
16.349716462001776
20
-90.977959202402886
30
0
10
16.242016458511337
20
-91.092293290912068
30
0
0
SPLINE
5
105
100
AcDbEntity
8
0
100
AcDbSpline
70
0
71
3
72
9
73
5
74
0
42
0.000000001
43
0.0000000001
44
0.0000000001
40
0
40
0
40
0
40
0
40
0.045116127714860864
40
0.094709612355530881
40
0.094709612355530881
40
0.094709612355530881
40
0.094709612355530881
10
16.242016458511337
20
-91.092293290912068
30
0
10
16.111621696350419
20
-91.171969593199563
30
0
10
15.837891702156256
20
-91.339229331252966
30
0
10
15.516966661040257
20
-91.356560483781294
30
0
10
15.348918342590316
20
-91.365635721503651
30
0
0
SPLINE
5
106
100
AcDbEntity
8
0
100
AcDbSpline
70
0
71
3
72
9
73
5
74
0
42
0.000000001
43
0.0000000001
44
0.0000000001
40
0
40
0
40
0
40
0
40
0.053029930012653291
40
0.099420655275452338
40
0.099420655275452338
40
0.099420655275452338
40
0.099420655275452338
10
15.348918342590316
20
-91.365635721503651
30
0
10
15.168015164141258
20
-91.356344598687826
30
0
10
14.82885739911071
20
-91.338925576668132
30
0
10
14.554204728558984
20
-91.141235624926651
30
0
10
14.426048898696884
20
-91.048991410552418
30
0
0
SPLINE
5
107
100
AcDbEntity
8
0
100
AcDbSpline
70
0
71
3
72
9
73
5
74
0
42
0.000000001
43
0.0000000001
44
0.0000000001
40
0
40
0
40
0
40
0
40
0.043534178313727523
40
0.087574790412442233
40
0.087574790412442233
40
0.087574790412442233
40
0.087574790412442233
10
14.426048898696884
20
-91.048991410552418
30
0
10
14.328169862437756
20
-90.93656671644348
30
0
10
14.131273161542355
20
-90.710409489980606
30
0
10
14.104117029654915
20
-90.411672751115617
30
0
10
14.090460443496688
20
-90.261440603553211
30
0
0
SPLINE
5
108
100
AcDbEntity
8
0
100
AcDbSpline
70
0
71
3
72
9
73
5
74
0
42
0.000000001
43
0.0000000001
44
0.0000000001
40
0
40
0
40
0
40
0
40
0.026260276964789497
40
0.052147971815369253
40
0.052147971815369253
40
0.052147971815369253
40
0.052147971815369253
10
14.090460443496688
20
-90.261440603553211
30
0
10
14.094348250022669
20
-90.173494703808103
30
0
10
14.102068702682491
20
-89.998850685112728
30
0
10
14.1585146497387
20
-89.833417504026727
30
0
10
14.186535978317245
20
-89.75129189950124
30
0
0
SPLINE
5
109
100
AcDbEntity
8
0
100
AcDbSpline
70
0
71
3
72
9
73
5
74
0
42
0.000000001
43
0.0000000001
44
0.0000000001
40
0
40
0
40
0
40
0
40
0.027731528265993718
40
0.059328666913728997
40
0.059328666913728997
40
0.059328666913728997
40
0.059328666913728997
10
14.186535978317245
20
-89.75129189950124
30
0
10
14.225264825698144
20
-89.667058228419705
30
0
10
14.308121091828689
20
-89.486849212653141
30
0
10
14.42745034016194
20
-89.328293054781795
30
0
10
14.491002464294418
20
-89.243849544345295
30
0
0
SPLINE
5
110
100
AcDbEntity
8
0
100
AcDbSpline
70
0
71
3
72
9
73
5
74
0
42
0.000000001
43
0.0000000001
44
0.0000000001
40
0
40
0
40
0
40
0
40
0.028886881285593725
40
0.071045574755747326
40
0.071045574755747326
40
0.071045574755747326
40
0.071045574755747326
10
14.491002464294418
20
-89.243849544345295
30
0
10
14.554479634499788
20
-89.171362338915429
30
0
10
14.71059797751241
20
-88.993084347557101
30
0
10
14.885301920297831
20
-88.832846133420844
30
0
10
14.98897185325621
20
-88.737760214625752
30
0
0
SPLINE
5
111
100
AcDbEntity
8
0
100
AcDbSpline
70
0
71
3
72
9
73
5
74
0
42
0.000000001
43
0.0000000001
44
0.0000000001
40
0
40
0
40
0
40
0
40
0.040234448913257906
40
0.063270751489095042
40
0.063270751489095042
40
0.063270751489095042
40
0.063270751489095042
10
14.98897185325621
20
-88.737760214625752
30
0
10
15.088126103408719
20
-88.647390222162585
30
0
10
15.244051289162158
20
-88.505278735870434
30
0
10
15.391360089148481
20
-88.354299914755941
30
0
10
15.444993877410873
20
-88.299329905330097
30
0
0
SPLINE
5
112
100
AcDbEntity
8
0
100
AcDbSpline
70
0
71
3
72
9
73
5
74
0
42
0.000000001
43
0.0000000001
44
0.0000000001
40
0
40
0
40
0
40
0
40
0.013779259366833425
40
0.026258323120965696
40
0.026258323120965696
40
0.026258323120965696
40
0.026258323120965696
10
15.444993877410873
20
-88.299329905330097
30
0
10
15.474946342732212
20
-88.264408809658335
30
0
10
15.53202499200783
20
-88.197861734124302
30
0
10
15.578515453768677
20
-88.123549710413414
30
0
10
15.600609683990463
20
-88.088233499347126
30
0
0
LINE
5
113
100
AcDbEntity
8
0
100
AcDbLine
10
15.600609683990463
20
-88.088233499347126
30
0
11
14.090460443496688
21
-88.088233499347126
31
0
0
LINE
5
114
100
AcDbEntity
8
0
100
AcDbLine
10
14.090460443496688
20
-88.088233499347126
30
0
11
14.090460443496688
21
-87.381873755275166
31
0
0
LINE
5
115
100
AcDbEntity
8
0
100
AcDbLine
10
14.090460443496688
20
-87.381873755275166
30
0
11
16.756225132942184
21
-87.381873755275166
31
0
0
SPLINE
5
116
100
AcDbEntity
8
0
100
AcDbSpline
70
0
71
3
72
9
73
5
74
0
42
0.000000001
43
0.0000000001
44
0.0000000001
40
0
40
0
40
0
40
0
40
0.039955252633212555
40
0.080725476706086291
40
0.080725476706086291
40
0.080725476706086291
40
0.080725476706086291
10
16.756225132942184
20
-87.381873755275166
30
0
10
16.734215967878526
20
-87.514230513149286
30
0
10
16.689748714524455
20
-87.781643723440922
30
0
10
16.561291486629685
20
-88.020416422518537
30
0
10
16.496414446830734
20
-88.141008047877705
30
0
0
SPLINE
5
117
100
AcDbEntity
8
0
100
AcDbSpline
70
0
71
3
72
9
73
5
74
0
42
0.000000001
43
0.0000000001
44
0.0000000001
40
0
40
0
40
0
40
0
40
0.052697943235982446
40
0.1281689481494761
40
0.1281689481494761
40
0.1281689481494761
40
0.1281689481494761
10
16.496414446830734
20
-88.141008047877705
30
0
10
16.392503702027163
20
-88.283071461607946
30
0
10
16.139777883046651
20
-88.628590037670648
30
0
10
15.825981236463955
20
-88.920440298910847
30
0
10
15.641205215454086
20
-89.092293410121357
30
0
0
SPLINE
5
118
100
AcDbEntity
8
0
100
AcDbSpline
70
0
71
3
72
9
73
5
74
0
42
0.000000001
43
0.0000000001
44
0.0000000001
40
0
40
0
40
0
40
0
40
0.057752657934706346
40
0.090601560684111321
40
0.090601560684111321
40
0.090601560684111321
40
0.090601560684111321
10
15.641205215454086
20
-89.092293410121357
30
0
10
15.499205865166051
20
-89.222701750899972
30
0
10
15.276439273769146
20
-89.427284528962318
30
0
10
15.081353724435489
20
-89.658124990250414
30
0
10
15.010622644424423
20
-89.741819529353535
30
0
0
SPLINE
5
119
100
AcDbEntity
8
0
100
AcDbSpline
70
0
71
3
72
9
73
5
74
0
42
0.000000001
43
0.0000000001
44
0.0000000001
40
0
40
0
40
0
40
0
40
0.026203565163776057
40
0.04967333412328595
40
0.04967333412328595
40
0.04967333412328595
40
0.04967333412328595
10
15.010622644424423
20
-89.741819529353535
30
0
10
14.964881531852598
20
-89.817721169154808
30
0
10
14.878171439017899
20
-89.961605693676148
30
0
10
14.861520897720746
20
-90.128472174402319
30
0
10
14.853653812408432
20
-90.207313625632679
30
0
0
SPLINE
5
120
100
AcDbEntity
8
0
100
AcDbSpline
70
0
71
3
72
9
73
5
74
0
42
0.000000001
43
0.0000000001
44
0.0000000001
40
0
40
0
40
0
40
0
40
0.02275460093708704
40
0.04227308321851591
40
0.04227308321851591
40
0.04227308321851591
40
0.04227308321851591
10
14.853653812408432
20
-90.207313625632679
30
0
10
14.857387850587788
20
-90.285112461573377
30
0
10
14.86432487871382
20
-90.429645722126622
30
0
10
14.950524482843306
20
-90.545082698265617
30
0
10
14.990324878692611
20
-90.598382680236256
30
0
0
SPLINE
5
121
100
AcDbEntity
8
0
100
AcDbSpline
70
0
71
3
72
9
73
5
74
0
42
0.000000001
43
0.0000000001
44
0.0000000001
40
0
40
0
40
0
40
0
40
0.019231470622085297
40
0.040983253278035231
40
0.040983253278035231
40
0.040983253278035231
40
0.040983253278035231
10
14.990324878692611
20
-90.598382680236256
30
0
10
15.042437313922111
20
-90.638204498246779
30
0
10
15.153491594372881
20
-90.723066841100774
30
0
10
15.293535206024849
20
-90.730897591071979
30
0
10
15.367863082885727
20
-90.735053746520435
30
0
0
LWPOLYLINE
5
122
100
AcDbEntity
8
0
100
AcDbPolyline
90
11
70
1
43
0.0
10
1.3651560783386074
20
-88.84601446849004
10
-0.35608777999879493
20
-91.365635721503651
10
-0.99478969573976173
20
-91.365635721503651
10
-0.99478969573976173
20
-88.848720817386067
10
-1.4873481750488438
20
-88.848720817386067
10
-1.4873481750488438
20
-88.180249957858479
10
-0.99478969573976173
20
-88.180249957858479
10
-0.99478969573976173
20
-87.381873755275166
10
-0.25866041183473243
20
-87.381873755275166
10
-0.25866041183473243
20
-88.180249957858479
10
1.3651560783386074
20
-88.180249957858479
0
SPLINE
5
123
100
AcDbEntity
8
0
100
AcDbSpline
70
0
71
3
72
9
73
5
74
0
42
0.000000001
43
0.0000000001
44
0.0000000001
40
0
40
0
40
0
40
0
40
0.056657778972467272
40
0.11459068951583611
40
0.11459068951583611
40
0.11459068951583611
40
0.11459068951583611
10
-4.5807171821594395
20
-90.247908859073078
30
0
10
-4.4345611590606193
20
-90.126124284398102
30
0
10
-4.1389597470828488
20
-89.879814269471808
30
0
10
-3.7798576822320618
20
-89.741421061532506
30
0
10
-3.5983086585998691
20
-89.671454458056843
30
0
0
LINE
5
124
100
AcDbEntity
8
0
100
AcDbLine
10
-3.5983086585998687
20
-89.671454458056857
30
0
11
-3.5983086585998691
21
-90.361576108752644
31
0
0
SPLINE
5
125
100
AcDbEntity
8
0
100
AcDbSpline
70
0
71
3
72
9
73
5
74
0
42
0.000000001
43
0.0000000001
44
0.0000000001
40
0
40
0
40
0
40
0
40
0.034109318602068499
40
0.074756308871628013
40
0.074756308871628013
40
0.074756308871628013
40
0.074756308871628013
10
-3.5983086585998691
20
-90.361576108752644
30
0
10
-3.7039845419085715
20
-90.404754830516865
30
0
10
-3.9355910147634221
20
-90.499388261883411
30
0
10
-4.1361043189109781
20
-90.649418596962363
30
0
10
-4.2451287269592441
20
-90.730994074164784
30
0
0
SPLINE
5
126
100
AcDbEntity
8
0
100
AcDbSpline
70
0
71
3
72
9
73
5
74
0
42
0.000000001
43
0.0000000001
44
0.0000000001
40
0
40
0
40
0
40
0
40
0.041646719753044154
40
0.080338793116147
40
0.080338793116147
40
0.080338793116147
40
0.080338793116147
10
-4.2451287269592441
20
-90.730994074164784
30
0
10
-4.3514863063381481
20
-90.823052868795742
30
0
10
-4.5566558759158671
20
-91.000639302979124
30
0
10
-4.6697075838130342
20
-91.246990292628425
30
0
10
-4.7241545677185215
20
-91.365635721503651
30
0
0
LINE
5
127
100
AcDbEntity
8
0
100
AcDbLine
10
-4.7241545677185215
20
-91.365635721503651
30
0
11
-5.3412033081054844
21
-91.365635721503651
31
0
0
LINE
5
128
100
AcDbEntity
8
0
100
AcDbLine
10
-5.3412033081054844
20
-91.365635721503651
30
0
11
-5.3412033081054844
21
-87.381873755275166
31
0
0
LINE
5
129
100
AcDbEntity
8
0
100
AcDbLine
10
-5.3412033081054844
20
-87.381873755275166
30
0
11
-4.5807171821594395
21
-87.381873755275166
31
0
0
LINE
5
130
100
AcDbEntity
8
0
100
AcDbLine
10
-4.5807171821594395
20
-87.381873755275166
30
0
11
-4.5807171821594395
21
-90.247908859073078
31
0
0
SPLINE
5
131
100
AcDbEntity
8
0
100
AcDbSpline
70
0
71
3
72
9
73
5
74
0
42
0.000000001
43
0.0000000001
44
0.0000000001
40
0
40
0
40
0
40
0
40
0.0263278797672729
40
0.051753614153731357
40
0.051753614153731357
40
0.051753614153731357
40
0.051753614153731357
10
-61.400745010375992
20
-90.342631666480457
30
0
10
-61.395196449092438
20
-90.253801483730044
30
0
10
-61.384289452315066
20
-90.079184953880031
30
0
10
-61.299143336822922
20
-89.926458972544893
30
0
10
-61.257312393188492
20
-89.851427106677448
30
0
0
SPLINE
5
132
100
AcDbEntity
8
0
100
AcDbSpline
70
0
71
3
72
9
73
5
74
0
42
0.000000001
43
0.0000000001
44
0.0000000001
40
0
40
0
40
0
40
0
40
0.02564841839024944
40
0.052586259093679713
40
0.052586259093679713
40
0.052586259093679713
40
0.052586259093679713
10
-61.257312393188492
20
-89.851427106677448
30
0
10
-61.203635420124449
20
-89.783499891146462
30
0
10
-61.093582972836593
20
-89.644230556832142
30
0
10
-60.935196044204091
20
-89.563803793848422
30
0
10
-60.854060745239273
20
-89.522604374705708
30
0
0
SPLINE
5
133
100
AcDbEntity
8
0
100
AcDbSpline
70
0
71
3
72
9
73
5
74
0
42
0.000000001
43
0.0000000001
44
0.0000000001
40
0
40
0
40
0
40
0
40
0.033322424802861995
40
0.064121235917182495
40
0.064121235917182495
40
0.064121235917182495
40
0.064121235917182495
10
-60.854060745239273
20
-89.522604374705708
30
0
10
-60.956285624274962
20
-89.475115223425362
30
0
10
-61.152993565669682
20
-89.383733426009101
30
0
10
-61.29019376644635
20
-89.21610874043995
30
0
10
-61.356093978881852
20
-89.135594992457783
30
0
0
SPLINE
5
134
100
AcDbEntity
8
0
100
AcDbSpline
70
0
71
3
72
9
73
5
74
0
42
0.000000001
43
0.0000000001
44
0.0000000001
40
0
40
0
40
0
40
0
40
0.030281805961909668
40
0.061901132959066532
40
0.061901132959066532
40
0.061901132959066532
40
0.061901132959066532
10
-61.356093978881852
20
-89.135594992457783
30
0
10
-61.406210966736055
20
-89.046374440628227
30
0
10
-61.508658566214542
20
-88.863992542784047
30
0
10
-61.521424966402023
20
-88.655045907647562
30
0
10
-61.527946090698258
20
-88.548315195857441
30
0
0
SPLINE
5
135
100
AcDbEntity
8
0
100
AcDbSpline
70
0
71
3
72
9
73
5
74
0
42
0.000000001
43
0.0000000001
44
0.0000000001
40
0
40
0
40
0
40
0
40
0.050562099858041665
40
0.098019210494179859
40
0.098019210494179859
40
0.098019210494179859
40
0.098019210494179859
10
-61.527946090698258
20
-88.548315195857441
30
0
10
-61.515281669386837
20
-88.375705961452482
30
0
10
-61.490730541530283
20
-88.041087325599122
30
0
10
-61.279662002518776
20
-87.781094404502525
30
0
10
-61.177470779418961
20
-87.655215887843525
30
0
0
SPLINE
5
136
100
AcDbEntity
8
0
100
AcDbSpline
70
0
71
3
72
9
73
5
74
0
42
0.000000001
43
0.0000000001
44
0.0000000001
40
0
40
0
40
0
40
0
40
0.048287937414652655
40
0.10139024920617448
40
0.10139024920617448
40
0.10139024920617448
40
0.10139024920617448
10
-61.177470779418961
20
-87.655215887843525
30
0
10
-61.046779030416033
20
-87.555029533174462
30
0
10
-60.772365383653479
20
-87.34466810523179
30
0
10
-60.426351888714116
20
-87.322906267880569
30
0
10
-60.245130157470719
20
-87.311508683978474
30
0
0
SPLINE
5
137
100
AcDbEntity
8
0
100
AcDbSpline
70
0
71
3
72
9
73
5
74
0
42
0.000000001
43
0.0000000001
44
0.0000000001
40
0
40
0
40
0
40
0
40
0.050100173229292159
40
0.095889797942979194
40
0.095889797942979194
40
0.095889797942979194
40
0.095889797942979194
10
-60.245130157470719
20
-87.311508683978474
30
0
10
-60.075244170891615
20
-87.321069796055269
30
0
10
-59.750088949334632
20
-87.339369395558805
30
0
10
-59.475188749908398
20
-87.512839956008989
30
0
10
-59.343917465209977
20
-87.59567621213094
30
0
0
SPLINE
5
138
100
AcDbEntity
8
0
100
AcDbSpline
70
0
71
3
72
9
73
5
74
0
42
0.000000001
43
0.0000000001
44
0.0000000001
40
0
40
0
40
0
40
0
40
0.050973456963446406
40
0.10427530284540611
40
0.10427530284540611
40
0.10427530284540611
40
0.10427530284540611
10
-59.343917465209977
20
-87.59567621213094
30
0
10
-59.220003201880772
20
-87.720004018901236
30
0
10
-58.966514462735944
20
-87.974338734954998
30
0
10
-58.935083702823867
20
-88.33267142075988
30
0
10
-58.919017410278336
20
-88.515838413058674
30
0
0
SPLINE
5
139
100
AcDbEntity
8
0
100
AcDbSpline
70
0
71
3
72
9
73
5
74
0
42
0.000000001
43
0.0000000001
44
0.0000000001
40
0
40
0
40
0
40
0
40
0.031143272980453406
40
0.061824469658704653
40
0.061824469658704653
40
0.061824469658704653
40
0.061824469658704653
10
-58.919017410278336
20
-88.515838413058674
30
0
10
-58.925470531854742
20
-88.620651123543979
30
0
10
-58.938281029304811
20
-88.828721426344572
30
0
10
-59.032121531899158
20
-89.014822903169417
30
0
10
-59.078691101074234
20
-89.107178180037891
30
0
0
SPLINE
5
140
100
AcDbEntity
8
0
100
AcDbSpline
70
0
71
3
72
9
73
5
74
0
42
0.000000001
43
0.0000000001
44
0.0000000001
40
0
40
0
40
0
40
0
40
0.031494281291902466
40
0.066124949415695647
40
0.066124949415695647
40
0.066124949415695647
40
0.066124949415695647
10
-59.078691101074234
20
-89.107178180037891
30
0
10
-59.142090299572061
20
-89.192836880233429
30
0
10
-59.275202363784878
20
-89.372684680694277
30
0
10
-59.47660227511912
20
-89.471075543903837
30
0
10
-59.582078552246109
20
-89.522604374705708
30
0
0
SPLINE
5
141
100
AcDbEntity
8
0
100
AcDbSpline
70
0
71
3
72
9
73
5
74
0
42
0.000000001
43
0.0000000001
44
0.0000000001
40
0
40
0
40
0
40
0
40
0.029453429909218013
40
0.055566564060478447
40
0.055566564060478447
40
0.055566564060478447
40
0.055566564060478447
10
-59.582078552246109
20
-89.522604374705708
30
0
10
-59.492018039245451
20
-89.565560286149108
30
0
10
-59.322110721816053
20
-89.646600504974316
30
0
10
-59.207143785487006
20
-89.795149530706595
30
0
10
-59.153115844726578
20
-89.864959149180805
30
0
0
SPLINE
5
142
100
AcDbEntity
8
0
100
AcDbSpline
70
0
71
3
72
9
73
5
74
0
42
0.000000001
43
0.0000000001
44
0.0000000001
40
0
40
0
40
0
40
0
40
0.024947450121441558
40
0.050103734880046449
40
0.050103734880046449
40
0.050103734880046449
40
0.050103734880046449
10
-59.153115844726578
20
-89.864959149180805
30
0
10
-59.114044792548256
20
-89.939506785960447
30
0
10
-59.035575625146457
20
-90.089226096389353
30
0
10
-59.024642540580103
20
-90.257928756339908
30
0
10
-59.019153213500992
20
-90.342631666480457
30
0
0
SPLINE
5
143
100
AcDbEntity
8
0
100
AcDbSpline
70
0
71
3
72
9
73
5
74
0
42
0.000000001
43
0.0000000001
44
0.0000000001
40
0
40
0
40
0
40
0
40
0.041261462660038224
40
0.081472723471573222
40
0.081472723471573222
40
0.081472723471573222
40
0.081472723471573222
10
-59.019153213500992
20
-90.342631666480457
30
0
10
-59.031384797313194
20
-90.483511156020853
30
0
10
-59.05553664218985
20
-90.761684418774735
30
0
10
-59.238652756204395
20
-90.972169337364875
30
0
10
-59.329030609130875
20
-91.076055197535908
30
0
0
SPLINE
5
144
100
AcDbEntity
8
0
100
AcDbSpline
70
0
71
3
72
9
73
5
74
0
42
0.000000001
43
0.0000000001
44
0.0000000001
40
0
40
0
40
0
40
0
40
0.043349618751849305
40
0.09444039299164475
40
0.09444039299164475
40
0.09444039299164475
40
0.09444039299164475
10
-59.329030609130875
20
-91.076055197535908
30
0
10
-59.449958134464183
20
-91.160366293949195
30
0
10
-59.71340781048923
20
-91.344044335604138
30
0
10
-60.035631266382197
20
-91.35805576015585
30
0
10
-60.209949111938492
20
-91.365635721503651
30
0
0
SPLINE
5
145
100
AcDbEntity
8
0
100
AcDbSpline
70
0
71
3
72
9
73
5
74
0
42
0.000000001
43
0.0000000001
44
0.0000000001
40
0
40
0
40
0
40
0
40
0.050755658621913259
40
0.094164716212348648
40
0.094164716212348648
40
0.094164716212348648
40
0.094164716212348648
10
-60.209949111938492
20
-91.365635721503651
30
0
10
-60.383055820921513
20
-91.357813223741729
30
0
10
-60.704212999616907
20
-91.343300491529774
30
0
10
-60.967018039505575
20
-91.160379891386214
30
0
10
-61.08816871643068
20
-91.076055197535908
30
0
0
SPLINE
5
146
100
AcDbEntity
8
0
100
AcDbSpline
70
0
71
3
72
9
73
5
74
0
42
0.000000001
43
0.0000000001
44
0.0000000001
40
0
40
0
40
0
40
0
40
0.04032845238782691
40
0.081602681112591668
40
0.081602681112591668
40
0.081602681112591668
40
0.081602681112591668
10
-61.08816871643068
20
-91.076055197535908
30
0
10
-61.179333343262471
20
-90.972261296745501
30
0
10
-61.363800574996574
20
-90.762239337405717
30
0
10
-61.388335412201869
20
-90.483577455297564
30
0
10
-61.400745010375992
20
-90.342631666480457
30
0
0
SPLINE
5
147
100
AcDbEntity
8
0
100
AcDbSpline
70
0
71
3
72
9
73
5
74
0
42
0.000000001
43
0.0000000001
44
0.0000000001
40
0
40
0
40
0
40
0
40
0.056657778972467272
40
0.11459068951583611
40
0.11459068951583611
40
0.11459068951583611
40
0.11459068951583611
10
-33.89059791564943
20
-90.247908859073078
30
0
10
-33.744441892550597
20
-90.126124284398102
30
0
10
-33.448840480572827
20
-89.879814269471808
30
0
10
-33.089738415722053
20
-89.741421061532506
30
0
10
-32.908189392089859
20
-89.671454458056843
30
0
0
LINE
5
148
100
AcDbEntity
8
0
100
AcDbLine
10
-32.908189392089852
20
-89.671454458056857
30
0
11
-32.908189392089859
21
-90.361576108752644
31
0
0
SPLINE
5
149
100
AcDbEntity
8
0
100
AcDbSpline
70
0
71
3
72
9
73
5
74
0
42
0.000000001
43
0.0000000001
44
0.0000000001
40
0
40
0
40
0
40
0
40
0.034109318602068499
40
0.074756308871628013
40
0.074756308871628013
40
0.074756308871628013
40
0.074756308871628013
10
-32.908189392089859
20
-90.361576108752644
30
0
10
-33.013865275398551
20
-90.404754830516865
30
0
10
-33.245471748253408
20
-90.499388261883411
30
0
10
-33.445985052400971
20
-90.649418596962363
30
0
10
-33.555009460449234
20
-90.730994074164784
30
0
0
SPLINE
5
150
100
AcDbEntity
8
0
100
AcDbSpline
70
0
71
3
72
9
73
5
74
0
42
0.000000001
43
0.0000000001
44
0.0000000001
40
0
40
0
40
0
40
0
40
0.041646719753044154
40
0.080338793116147
40
0.080338793116147
40
0.080338793116147
40
0.080338793116147
10
-33.555009460449234
20
-90.730994074164784
30
0
10
-33.661367039828143
20
-90.823052868795742
30
0
10
-33.866536609405856
20
-91.000639302979124
30
0
10
-33.979588317303012
20
-91.246990292628425
30
0
10
-34.034035301208512
20
-91.365635721503651
30
0
0
LINE
5
151
100
AcDbEntity
8
0
100
AcDbLine
10
-34.034035301208512
20
-91.365635721503651
30
0
11
-34.651086425781266
21
-91.365635721503651
31
0
0
LINE
5
152
100
AcDbEntity
8
0
100
AcDbLine
10
-34.651086425781266
20
-91.365635721503651
30
0
11
-34.651086425781266
21
-87.381873755275166
31
0
0
LINE
5
153
100
AcDbEntity
8
0
100
AcDbLine
10
-34.651086425781266
20
-87.381873755275166
30
0
11
-33.89059791564943
21
-87.381873755275166
31
0
0
LINE
5
154
100
AcDbEntity
8
0
100
AcDbLine
10
-33.89059791564943
20
-87.381873755275166
30
0
11
-33.89059791564943
21
-90.247908859073078
31
0
0
LWPOLYLINE
5
155
100
AcDbEntity
8
0
100
AcDbPolyline
90
4
70
1
43
0.0
10
-39.03809318542482
20
-87.381873755275166
10
-39.03809318542482
20
-88.142361073314106
10
-39.798581695556656
20
-88.142361073314106
10
-39.798581695556656
20
-87.381873755275166
0
SPLINE
5
156
100
AcDbEntity
8
0
100
AcDbSpline
70
0
71
3
72
9
73
5
74
0
42
0.000000001
43
0.0000000001
44
0.0000000001
40
0
40
0
40
0
40
0
40
0.056657396889371804
40
0.11459074236493133
40
0.11459074236493133
40
0.11459074236493133
40
0.11459074236493133
10
-52.402093505859391
20
-90.247908859073078
30
0
10
-52.255939205263189
20
-90.126124075004412
30
0
10
-51.960339147289325
20
-89.879811861924281
30
0
10
-51.601235888699037
20
-89.741420580537095
30
0
10
-51.41968498229982
20
-89.671454458056843
30
0
0
LINE
5
157
100
AcDbEntity
8
0
100
AcDbLine
10
-51.41968498229982
20
-89.671454458056843
30
0
11
-51.41968498229982
21
-90.361576108752644
31
0
0
SPLINE
5
158
100
AcDbEntity
8
0
100
AcDbSpline
70
0
71
3
72
9
73
5
74
0
42
0.000000001
43
0.0000000001
44
0.0000000001
40
0
40
0
40
0
40
0
40
0.034109318602068499
40
0.074756308871628013
40
0.074756308871628013
40
0.074756308871628013
40
0.074756308871628013
10
-51.41968498229982
20
-90.361576108752644
30
0
10
-51.525360865608512
20
-90.404754830516865
30
0
10
-51.756967338463376
20
-90.499388261883411
30
0
10
-51.957480642610946
20
-90.649418596962363
30
0
10
-52.066505050659195
20
-90.730994074164784
30
0
0
SPLINE
5
159
100
AcDbEntity
8
0
100
AcDbSpline
70
0
71
3
72
9
73
5
74
0
42
0.000000001
43
0.0000000001
44
0.0000000001
40
0
40
0
40
0
40
0
40
0.041646382772639844
40
0.080338683769821326
40
0.080338683769821326
40
0.080338683769821326
40
0.080338683769821326
10
-52.066505050659195
20
-90.730994074164784
30
0
10
-52.17286036968023
20
-90.823053352086305
30
0
10
-52.378026959746791
20
-91.000641913796272
30
0
10
-52.491081938020841
20
-91.24699056119043
30
0
10
-52.545530891418473
20
-91.365635721503651
30
0
0
LINE
5
160
100
AcDbEntity
8
0
100
AcDbLine
10
-52.545530891418473
20
-91.365635721503637
30
0
11
-53.162582015991227
21
-91.365635721503651
31
0
0
LINE
5
161
100
AcDbEntity
8
0
100
AcDbLine
10
-53.162582015991227
20
-91.365635721503651
30
0
11
-53.162582015991227
21
-87.381873755275166
31
0
0
LINE
5
162
100
AcDbEntity
8
0
100
AcDbLine
10
-53.162582015991227
20
-87.381873755275166
30
0
11
-52.402093505859391
21
-87.381873755275166
31
0
0
LINE
5
163
100
AcDbEntity
8
0
100
AcDbLine
10
-52.402093505859391
20
-87.381873755275166
30
0
11
-52.402093505859391
21
-90.247908859073078
31
0
0
LWPOLYLINE
5
164
100
AcDbEntity
8
0
100
AcDbPolyline
90
4
70
1
43
0.0
10
-57.549598312377945
20
-87.381873755275166
10
-57.549598312377945
20
-88.142361073314106
10
-58.310086822509781
20
-88.142361073314106
10
-58.310086822509781
20
-87.381873755275166
0
SPLINE
5
165
100
AcDbEntity
8
0
100
AcDbSpline
70
0
71
3
72
9
73
5
74
0
42
0.000000001
43
0.0000000001
44
0.0000000001
40
0
40
0
40
0
40
0
40
0.01649686315224741
40
0.03453783332554973
40
0.03453783332554973
40
0.03453783332554973
40
0.03453783332554973
10
-55.849998092651383
20
-90.62138649684087
30
0
10
-55.805674925742267
20
-90.65609923484088
30
0
10
-55.712879941808694
20
-90.728773824443351
30
0
10
-55.594956769209993
20
-90.73645444342489
30
0
10
-55.53335914611818
20
-90.740466444312489
30
0
0
SPLINE
5
166
100
AcDbEntity
8
0
100
AcDbSpline
70
0
71
3
72
9
73
5
74
0
42
0.000000001
43
0.0000000001
44
0.0000000001
40
0
40
0
40
0
40
0
40
0.018379470459620798
40
0.036674967990791375
40
0.036674967990791375
40
0.036674967990791375
40
0.036674967990791375
10
-55.53335914611818
20
-90.740466444312489
30
0
10
-55.47082481773792
20
-90.734880008915141
30
0
10
-55.346041870551801
20
-90.72373266167078
30
0
10
-55.248925920245441
20
-90.644616106396541
30
0
10
-55.200479125976578
20
-90.60514840346471
30
0
0
SPLINE
5
167
100
AcDbEntity
8
0
100
AcDbSpline
70
0
71
3
72
9
73
5
74
0
42
0.000000001
43
0.0000000001
44
0.0000000001
40
0
40
0
40
0
40
0
40
0.020003698874867585
40
0.043568188767215965
40
0.043568188767215965
40
0.043568188767215965
40
0.043568188767215965
10
-55.200479125976578
20
-90.60514840346471
30
0
10
-55.158693737141732
20
-90.551786872689775
30
0
10
-55.067684883236439
20
-90.435565104893087
30
0
10
-55.044967277936117
20
-90.289189405137776
30
0
10
-55.032680130004898
20
-90.210019974528706
30
0
0
LINE
5
168
100
AcDbEntity
8
0
100
AcDbLine
10
-55.032680130004898
20
-90.210019974528706
30
0
11
-54.331729507446305
21
-90.3290996239771
31
0
0
SPLINE
5
169
100
AcDbEntity
8
0
100
AcDbSpline
70
0
71
3
72
9
73
5
74
0
42
0.000000001
43
0.0000000001
44
0.0000000001
40
0
40
0
40
0
40
0
40
0.033647819417689372
40
0.061895541019943642
40
0.061895541019943642
40
0.061895541019943642
40
0.061895541019943642
10
-54.331729507446305
20
-90.3290996239771
30
0
10
-54.356683356316289
20
-90.439221365748722
30
0
10
-54.402586241051942
20
-90.641791544231978
30
0
10
-54.505388307656943
20
-90.821971328942766
30
0
10
-54.552304840087906
20
-90.904201297580158
30
0
0
SPLINE
5
170
100
AcDbEntity
8
0
100
AcDbSpline
70
0
71
3
72
9
73
5
74
0
42
0.000000001
43
0.0000000001
44
0.0000000001
40
0
40
0
40
0
40
0
40
0.026097286787057413
40
0.053751845127958144
40
0.053751845127958144
40
0.053751845127958144
40
0.053751845127958144
10
-54.552304840087906
20
-90.904201297580158
30
0
10
-54.607530427576393
20
-90.972640599778586
30
0
10
-54.721277011656312
20
-91.113603099154545
30
0
10
-54.88132820055263
20
-91.198709877177009
30
0
10
-54.963672256469742
20
-91.24249610167638
30
0
0
SPLINE
5
171
100
AcDbEntity
8
0
100
AcDbSpline
70
0
71
3
72
9
73
5
74
0
42
0.000000001
43
0.0000000001
44
0.0000000001
40
0
40
0
40
0
40
0
40
0.029461939665287845
40
0.060770198692757425
40
0.060770198692757425
40
0.060770198692757425
40
0.060770198692757425
10
-54.963672256469742
20
-91.24249610167638
30
0
10
-55.055844388960566
20
-91.278402631266133
30
0
10
-55.245964892533586
20
-91.352465879047031
30
0
10
-55.449927734138299
20
-91.361157748596725
30
0
10
-55.555007553100602
20
-91.365635721503651
30
0
0
SPLINE
5
172
100
AcDbEntity
8
0
100
AcDbSpline
70
0
71
3
72
9
73
5
74
0
42
0.000000001
43
0.0000000001
44
0.0000000001
40
0
40
0
40
0
40
0
40
0.051258213761576306
40
0.098886216936057397
40
0.098886216936057397
40
0.098886216936057397
40
0.098886216936057397
10
-55.555007553100602
20
-91.365635721503651
30
0
10
-55.730248790946995
20
-91.353061344894343
30
0
10
-56.068320327002183
20
-91.328803134512555
30
0
10
-56.328302406579823
20
-91.112552234951906
30
0
10
-56.453521347045914
20
-91.008396177112019
30
0
0
SPLINE
5
173
100
AcDbEntity
8
0
100
AcDbSpline
70
0
71
3
72
9
73
5
74
0
42
0.000000001
43
0.0000000001
44
0.0000000001
40
0
40
0
40
0
40
0
40
0.037493051335146681
40
0.073093770242901923
40
0.073093770242901923
40
0.073093770242901923
40
0.073093770242901923
10
-56.453521347045914
20
-91.008396177112019
30
0
10
-56.534808504818344
20
-90.909478055193475
30
0
10
-56.693280131488741
20
-90.716634362325095
30
0
10
-56.719500190457822
20
-90.468768689998825
30
0
10
-56.732270812988297
20
-90.348044364272511
30
0
0
SPLINE
5
174
100
AcDbEntity
8
0
100
AcDbSpline
70
0
71
3
72
9
73
5
74
0
42
0.000000001
43
0.0000000001
44
0.0000000001
40
0
40
0
40
0
40
0
40
0.049077754610454029
40
0.10528453535330004
40
0.10528453535330004
40
0.10528453535330004
40
0.10528453535330004
10
-56.732270812988297
20
-90.348044364272511
30
0
10
-56.702643795105487
20
-90.179739418330698
30
0
10
-56.639086143854804
20
-89.818681579157058
30
0
10
-56.327546834737291
20
-89.620360321199371
30
0
10
-56.161229705810563
20
-89.514485328017628
30
0
0
SPLINE
5
175
100
AcDbEntity
8
0
100
AcDbSpline
70
0
71
3
72
9
73
5
74
0
42
0.000000001
43
0.0000000001
44
0.0000000001
40
0
40
0
40
0
40
0
40
0.032888771204645256
40
0.064604462978030436
40
0.064604462978030436
40
0.064604462978030436
40
0.064604462978030436
10
-56.161229705810563
20
-89.514485328017628
30
0
10
-56.268558076187091
20
-89.483366166057522
30
0
10
-56.479386619684107
20
-89.422237802998609
30
0
10
-56.63175761977012
20
-89.264468294602665
30
0
10
-56.706559753417984
20
-89.187015919505512
30
0
0
SPLINE
5
176
100
AcDbEntity
8
0
100
AcDbSpline
70
0
71
3
72
9
73
5
74
0
42
0.000000001
43
0.0000000001
44
0.0000000001
40
0
40
0
40
0
40
0
40
0.031988659420921293
40
0.06573337672318133
40
0.06573337672318133
40
0.06573337672318133
40
0.06573337672318133
10
-56.706559753417984
20
-89.187015919505512
30
0
10
-56.766147752167306
20
-89.09629339720675
30
0
10
-56.888594908155596
20
-88.909868025106249
30
0
10
-56.903329764483637
20
-88.687054841220686
30
0
10
-56.910894012451188
20
-88.572672037898457
30
0
0
SPLINE
5
177
100
AcDbEntity
8
0
100
AcDbSpline
70
0
71
3
72
9
73
5
74
0
42
0.000000001
43
0.0000000001
44
0.0000000001
40
0
40
0
40
0
40
0
40
0.049307819100286615
40
0.099032771662222852
40
0.099032771662222852
40
0.099032771662222852
40
0.099032771662222852
10
-56.910894012451188
20
-88.572672037898457
30
0
10
-56.894729265403718
20
-88.404734372840963
30
0
10
-56.862263021052627
20
-88.06743832648165
30
0
10
-56.640599100854772
20
-87.811026099903756
30
0
10
-56.529300308227555
20
-87.682279972850239
30
0
0
SPLINE
5
178
100
AcDbEntity
8
0
100
AcDbSpline
70
0
71
3
72
9
73
5
74
0
42
0.000000001
43
0.0000000001
44
0.0000000001
40
0
40
0
40
0
40
0
40
0.050954046233584585
40
0.10392442277355829
40
0.10392442277355829
40
0.10392442277355829
40
0.10392442277355829
10
-56.529300308227555
20
-87.682279972850239
30
0
10
-56.392545256600926
20
-87.574939011580057
30
0
10
-56.113623544740875
20
-87.356009441417442
30
0
10
-55.759739451854898
20
-87.328325344979049
30
0
10
-55.579364395141617
20
-87.314214734851276
30
0
0
SPLINE
5
179
100
AcDbEntity
8
0
100
AcDbSpline
70
0
71
3
72
9
73
5
74
0
42
0.000000001
43
0.0000000001
44
0.0000000001
40
0
40
0
40
0
40
0
40
0.049861823606531519
40
0.096169568737289712
40
0.096169568737289712
40
0.096169568737289712
40
0.096169568737289712
10
-55.579364395141617
20
-87.314214734851276
30
0
10
-55.40988048057276
20
-87.325108019914609
30
0
10
-55.082993219075611
20
-87.346118132479688
30
0
10
-54.815210629458591
20
-87.533745875477905
30
0
10
-54.686267471313492
20
-87.624092726527607
30
0
0
SPLINE
5
180
100
AcDbEntity
8
0
100
AcDbSpline
70
0
71
3
72
9
73
5
74
0
42
0.000000001
43
0.0000000001
44
0.0000000001
40
0
40
0
40
0
40
0
40
0.045422456679943393
40
0.092583744788984124
40
0.092583744788984124
40
0.092583744788984124
40
0.092583744788984124
10
-54.686267471313492
20
-87.624092726527607
30
0
10
-54.580333464667667
20
-87.736850298187719
30
0
10
-54.364410158165782
20
-87.966681949768429
30
0
10
-54.305108010661804
20
-88.276718331620444
30
0
10
-54.274900054931656
20
-88.434647946177876
30
0
0
LINE
5
181
100
AcDbEntity
8
0
100
AcDbLine
10
-54.274900054931656
20
-88.434647946177861
30
0
11
-55.011031723022477
21
-88.523957757769978
31
0
0
SPLINE
5
182
100
AcDbEntity
8
0
100
AcDbSpline
70
0
71
3
72
9
73
5
74
0
42
0.000000001
43
0.0000000001
44
0.0000000001
40
0
40
0
40
0
40
0
40
0.02566639236115836
40
0.047717113818646559
40
0.047717113818646559
40
0.047717113818646559
40
0.047717113818646559
10
-55.011031723022477
20
-88.523957757769978
30
0
10
-55.02551587902051
20
-88.437919349684236
30
0
10
-55.052443781882729
20
-88.277962918970005
30
0
10
-55.153691288493064
20
-88.151901074576074
30
0
10
-55.200479125976578
20
-88.093646197139179
30
0
0
SPLINE
5
183
100
AcDbEntity
8
0
100
AcDbSpline
70
0
71
3
72
9
73
5
74
0
42
0.000000001
43
0.0000000001
44
0.0000000001
40
0
40
0
40
0
40
0
40
0.020379493985058058
40
0.041015786739779472
40
0.041015786739779472
40
0.041015786739779472
40
0.041015786739779472
10
-55.200479125976578
20
-88.093646197139179
30
0
10
-55.254831032327481
20
-88.050232246555694
30
0
10
-55.364219724776049
20
-87.962857293086813
30
0
10
-55.503753410516232
20
-87.950841980105537
30
0
10
-55.573957061767594
20
-87.944796709834492
30
0
0
SPLINE
5
184
100
AcDbEntity
8
0
100
AcDbSpline
70
0
71
3
72
9
73
5
74
0
42
0.000000001
43
0.0000000001
44
0.0000000001
40
0
40
0
40
0
40
0
40
0.022139653077676499
40
0.044548364144352814
40
0.044548364144352814
40
0.044548364144352814
40
0.044548364144352814
10
-55.573957061767594
20
-87.944796709834492
30
0
10
-55.649500169918618
20
-87.952417227564183
30
0
10
-55.801504443820363
20
-87.967750873380609
30
0
10
-55.913900284245344
20
-88.071319339577784
30
0
10
-55.970437622070328
20
-88.123416333018696
30
0
0
SPLINE
5
185
100
AcDbEntity
8
0
100
AcDbSpline
70
0
71
3
72
9
73
5
74
0
42
0.000000001
43
0.0000000001
44
0.0000000001
40
0
40
0
40
0
40
0
40
0.024202939773867026
40
0.051698122378756706
40
0.051698122378756706
40
0.051698122378756706
40
0.051698122378756706
10
-55.970437622070328
20
-88.123416333018696
30
0
10
-56.017354078464514
20
-88.191014873710927
30
0
10
-56.117568875795158
20
-88.335407152582206
30
0
10
-56.126640740523271
20
-88.511496620716628
30
0
10
-56.131465530395523
20
-88.605148224650776
30
0
0
SPLINE
5
186
100
AcDbEntity
8
0
100
AcDbSpline
70
0
71
3
72
9
73
5
74
0
42
0.000000001
43
0.0000000001
44
0.0000000001
40
0
40
0
40
0
40
0
40
0.025998081088706451
40
0.048893083610594357
40
0.048893083610594357
40
0.048893083610594357
40
0.048893083610594357
10
-56.131465530395523
20
-88.605148224650776
30
0
10
-56.126835433579529
20
-88.693753204527951
30
0
10
-56.118127878972821
20
-88.860387452442936
30
0
10
-56.022144835312432
20
-88.996213916392151
30
0
10
-55.977199172973648
20
-89.059816925345814
30
0
0
SPLINE
5
187
100
AcDbEntity
8
0
100
AcDbSpline
70
0
71
3
72
9
73
5
74
0
42
0.000000001
43
0.0000000001
44
0.0000000001
40
0
40
0
40
0
40
0
40
0.021245708861725599
40
0.042171612032757558
40
0.042171612032757558
40
0.042171612032757558
40
0.042171612032757558
10
-55.977199172973648
20
-89.059816925345814
30
0
10
-55.923244993743957
20
-89.10875609811842
30
0
10
-55.816148792396696
20
-89.205897776035741
30
0
10
-55.672361331246151
20
-89.220410044926496
30
0
10
-55.601012802124039
20
-89.227611152945911
30
0
0
SPLINE
5
188
100
AcDbEntity
8
0
100
AcDbSpline
70
0
71
3
72
9
73
5
74
0
42
0.000000001
43
0.0000000001
44
0.0000000001
40
0
40
0
40
0
40
0
40
0.016097904674932287
40
0.03545019666537394
40
0.03545019666537394
40
0.03545019666537394
40
0.03545019666537394
10
-55.601012802124039
20
-89.227611152945911
30
0
10
-55.547310877557067
20
-89.224483240290837
30
0
10
-55.429050530906366
20
-89.21759506937579
30
0
10
-55.31445144510171
20
-89.187310304557172
30
0
10
-55.251891708374039
20
-89.170777826129353
30
0
0
LINE
5
189
100
AcDbEntity
8
0
100
AcDbLine
10
-55.251891708374039
20
-89.170777826129353
30
0
11
-55.335795974731461
21
-89.790534107505238
31
0
0
SPLINE
5
190
100
AcDbEntity
8
0
100
AcDbSpline
70
0
71
3
72
9
73
5
74
0
42
0.000000001
43
0.0000000001
44
0.0000000001
40
0
40
0
40
0
40
0
40
0.027357569603201338
40
0.049828715948202956
40
0.049828715948202956
40
0.049828715948202956
40
0.049828715948202956
10
-55.335795974731461
20
-89.790534107505238
30
0
10
-55.429186872882994
20
-89.791392584516089
30
0
10
-55.59928782130919
20
-89.792956203205264
30
0
10
-55.742236174510431
20
-89.883614742838404
30
0
10
-55.806701278686539
20
-89.924498824893391
30
0
0
SPLINE
5
191
100
AcDbEntity
8
0
100
AcDbSpline
70
0
71
3
72
9
73
5
74
0
42
0.000000001
43
0.0000000001
44
0.0000000001
40
0
40
0
40
0
40
0
40
0.020542546472961928
40
0.042138481428333312
40
0.042138481428333312
40
0.042138481428333312
40
0.042138481428333312
10
-55.806701278686539
20
-89.924498824893391
30
0
10
-55.854058000206379
20
-89.976688478987455
30
0
10
-55.951199819157402
20
-90.083743988034911
30
0
10
-55.96302368408498
20
-90.228069457749285
30
0
10
-55.969083404541031
20
-90.302036135016834
30
0
0
SPLINE
5
192
100
AcDbEntity
8
0
100
AcDbSpline
70
0
71
3
72
9
73
5
74
0
42
0.000000001
43
0.0000000001
44
0.0000000001
40
0
40
0
40
0
40
0
40
0.018241912032279449
40
0.034795650494906405
40
0.034795650494906405
40
0.034795650494906405
40
0.034795650494906405
10
-55.969083404541031
20
-90.302036135016834
30
0
10
-55.965156875071713
20
-90.364332248761272
30
0
10
-55.957667191598226
20
-90.483159364976217
30
0
10
-55.884707874805684
20
-90.576825581204304
30
0
10
-55.849998092651383
20
-90.62138649684087
30
0
0
SPLINE
5
193
100
AcDbEntity
8
0
100
AcDbSpline
70
0
71
3
72
9
73
5
74
0
42
0.000000001
43
0.0000000001
44
0.0000000001
40
0
40
0
40
0
40
0
40
0.044531460132225274
40
0.090537438778562712
40
0.090537438778562712
40
0.090537438778562712
40
0.090537438778562712
10
-41.506292915344254
20
-88.721522121249592
30
0
10
-41.354694947253194
20
-88.73753315050763
30
0
10
-41.046479323641343
20
-88.770085363638032
30
0
10
-40.815709196326758
20
-88.977450080913272
30
0
10
-40.698444938659684
20
-89.082821039973652
30
0
0
SPLINE
5
194
100
AcDbEntity
8
0
100
AcDbSpline
70
0
71
3
72
9
73
5
74
0
42
0.000000001
43
0.0000000001
44
0.0000000001
40
0
40
0
40
0
40
0
40
0.048759414673220904
40
0.10191164592602932
40
0.10191164592602932
40
0.10191164592602932
40
0.10191164592602932
10
-40.698444938659684
20
-89.082821039973652
30
0
10
-40.599433576497631
20
-89.216180782778508
30
0
10
-40.392490754256258
20
-89.494914868915473
30
0
10
-40.370347473469998
20
-89.842169585655796
30
0
10
-40.35879859924318
20
-90.023281006633198
30
0
0
SPLINE
5
195
100
AcDbEntity
8
0
100
AcDbSpline
70
0
71
3
72
9
73
5
74
0
42
0.000000001
43
0.0000000001
44
0.0000000001
40
0
40
0
40
0
40
0
40
0.055231768654009562
40
0.1057752725166923
40
0.1057752725166923
40
0.1057752725166923
40
0.1057752725166923
10
-40.35879859924318
20
-90.023281006633198
30
0
10
-40.370907875667193
20
-90.211677433035817
30
0
10
-40.394098550978583
20
-90.572478541338938
30
0
10
-40.612857985743815
20
-90.859207368362235
30
0
10
-40.717389678955094
20
-90.996217458068287
30
0
0
SPLINE
5
196
100
AcDbEntity
8
0
100
AcDbSpline
70
0
71
3
72
9
73
5
74
0
42
0.000000001
43
0.0000000001
44
0.0000000001
40
0
40
0
40
0
40
0
40
0.049288685308087977
40
0.1007002592748813
40
0.1007002592748813
40
0.1007002592748813
40
0.1007002592748813
10
-40.717389678955094
20
-90.996217458068287
30
0
10
-40.846970978665041
20
-91.103951126122183
30
0
10
-41.111714710343072
20
-91.324058605919021
30
0
10
-41.455347208155764
20
-91.351583264783812
30
0
10
-41.630785560607926
20
-91.365635721503651
30
0
0
SPLINE
5
197
100
AcDbEntity
8
0
100
AcDbSpline
70
0
71
3
72
9
73
5
74
0
42
0.000000001
43
0.0000000001
44
0.0000000001
40
0
40
0
40
0
40
0
40
0.056164824998913031
40
0.11248535414533339
40
0.11248535414533339
40
0.11248535414533339
40
0.11248535414533339
10
-41.630785560607926
20
-91.365635721503651
30
0
10
-41.823024442885867
20
-91.346076241238279
30
0
10
-42.208035145829484
20
-91.306903056516489
30
0
10
-42.483427728219645
20
-91.034952231689005
30
0
10
-42.621314620971695
20
-90.898788599788105
30
0
0
SPLINE
5
198
100
AcDbEntity
8
0
100
AcDbSpline
70
0
71
3
72
9
73
5
74
0
42
0.000000001
43
0.0000000001
44
0.0000000001
40
0
40
0
40
0
40
0
40
0.068221667682625567
40
0.16057692968677248
40
0.16057692968677248
40
0.16057692968677248
40
0.16057692968677248
10
-42.621314620971695
20
-90.898788599788105
30
0
10
-42.733560491481065
20
-90.697317049527186
30
0
10
-42.997759504326453
20
-90.223102858360875
30
0
10
-43.004467255551063
20
-89.677011650554462
30
0
10
-43.008325195312516
20
-89.36292919379369
30
0
0
SPLINE
5
199
100
AcDbEntity
8
0
100
AcDbSpline
70
0
71
3
72
9
73
5
74
0
42
0.000000001
43
0.0000000001
44
0.0000000001
40
0
40
0
40
0
40
0
40
0.094181171819739923
40
0.16436094301094878
40
0.16436094301094878
40
0.16436094301094878
40
0.16436094301094878
10
-43.008325195312516
20
-89.36292919379369
30
0
10
-43.00385419194545
20
-89.042531956901854
30
0
10
-42.996051588564974
20
-88.483388436215606
30
0
10
-42.722066169730432
20
-87.999748085874288
30
0
10
-42.605078315734879
20
-87.793240575610554
30
0
0
SPLINE
5
200
100
AcDbEntity
8
0
100
AcDbSpline
70
0
71
3
72
9
73
5
74
0
42
0.000000001
43
0.0000000001
44
0.0000000001
40
0
40
0
40
0
40
0
40
0.058818526483678545
40
0.11863622278584049
40
0.11863622278584049
40
0.11863622278584049
40
0.11863622278584049
10
-42.605078315734879
20
-87.793240575610554
30
0
10
-42.459620203177565
20
-87.652738264298165
30
0
10
-42.166233032858941
20
-87.369346882308875
30
0
10
-41.759892673407613
20
-87.330896029462806
30
0
10
-41.555011367797867
20
-87.311508683978474
30
0
0
SPLINE
5
201
100
AcDbEntity
8
0
100
AcDbSpline
70
0
71
3
72
9
73
5
74
0
42
0.000000001
43
0.0000000001
44
0.0000000001
40
0
40
0
40
0
40
0
40
0.042537134156192737
40
0.080537463592192382
40
0.080537463592192382
40
0.080537463592192382
40
0.080537463592192382
10
-41.555011367797867
20
-87.311508683978474
30
0
10
-41.410352503678034
20
-87.319293811446357
30
0
10
-41.136463389297155
20
-87.334033742390019
30
0
10
-40.909657954566924
20
-87.486976656165211
30
0
10
-40.80264339447023
20
-87.559140353022968
30
0
0
SPLINE
5
202
100
AcDbEntity
8
0
100
AcDbSpline
70
0
71
3
72
9
73
5
74
0
42
0.000000001
43
0.0000000001
44
0.0000000001
40
0
40
0
40
0
40
0
40
0.038837675390654178
40
0.083962796019093677
40
0.083962796019093677
40
0.083962796019093677
40
0.083962796019093677
10
-40.80264339447023
20
-87.559140353022968
30
0
10
-40.714804213760857
20
-87.657286722826029
30
0
10
-40.524905535783816
20
-87.869468413539977
30
0
10
-40.466153411132275
20
-88.149063697815762
30
0
10
-40.43457756042482
20
-88.299329905330097
30
0
0
LINE
5
203
100
AcDbEntity
8
0
100
AcDbLine
10
-40.434577560424813
20
-88.299329905330097
30
0
11
-41.170704460144059
21
-88.380520372210896
31
0
0
SPLINE
5
204
100
AcDbEntity
8
0
100
AcDbSpline
70
0
71
3
72
9
73
5
74
0
42
0.000000001
43
0.0000000001
44
0.0000000001
40
0
40
0
40
0
40
0
40
0.020151151563056385
40
0.036683507877223229
40
0.036683507877223229
40
0.036683507877223229
40
0.036683507877223229
10
-41.170704460144059
20
-88.380520372210896
30
0
10
-41.1811333602367
20
-88.312767254487042
30
0
10
-41.200118311915617
20
-88.189428296911743
30
0
10
-41.276854888192688
20
-88.091687804188737
30
0
10
-41.311438179016129
20
-88.047638563929951
30
0
0
SPLINE
5
205
100
AcDbEntity
8
0
100
AcDbSpline
70
0
71
3
72
9
73
5
74
0
42
0.000000001
43
0.0000000001
44
0.0000000001
40
0
40
0
40
0
40
0
40
0.015491648116946555
40
0.032554302355398967
40
0.032554302355398967
40
0.032554302355398967
40
0.032554302355398967
10
-41.311438179016129
20
-88.047638563929951
30
0
10
-41.35374979026988
20
-88.016084289162848
30
0
10
-41.442663828046911
20
-87.949775824523158
30
0
10
-41.553662956890577
20
-87.942957627101507
30
0
10
-41.611840820312516
20
-87.939384012042439
30
0
0
SPLINE
5
206
100
AcDbEntity
8
0
100
AcDbSpline
70
0
71
3
72
9
73
5
74
0
42
0.000000001
43
0.0000000001
44
0.0000000001
40
0
40
0
40
0
40
0
40
0.022449004282149288
40
0.046890404369635277
40
0.046890404369635277
40
0.046890404369635277
40
0.046890404369635277
10
-41.611840820312516
20
-87.939384012042439
30
0
10
-41.688459273818893
20
-87.949844935462679
30
0
10
-41.848496227883118
20
-87.971695211006733
30
0
10
-41.956228893854394
20
-88.092778455114882
30
0
10
-42.012384033203141
20
-88.155892519771015
30
0
0
SPLINE
5
207
100
AcDbEntity
8
0
100
AcDbSpline
70
0
71
3
72
9
73
5
74
0
42
0.000000001
43
0.0000000001
44
0.0000000001
40
0
40
0
40
0
40
0
40
0.03593345859609641
40
0.093001747503786314
40
0.093001747503786314
40
0.093001747503786314
40
0.093001747503786314
10
-42.012384033203141
20
-88.155892519771015
30
0
10
-42.063130844068581
20
-88.265354824003936
30
0
10
-42.194472002841515
20
-88.548661412826348
30
0
10
-42.212448808228856
20
-88.862081511080788
30
0
10
-42.223479843139664
20
-89.054404227553761
30
0
0
SPLINE
5
208
100
AcDbEntity
8
0
100
AcDbSpline
70
0
71
3
72
9
73
5
74
0
42
0.000000001
43
0.0000000001
44
0.0000000001
40
0
40
0
40
0
40
0
40
0.040802868567886737
40
0.081116591844001773
40
0.081116591844001773
40
0.081116591844001773
40
0.081116591844001773
10
-42.223479843139664
20
-89.054404227553761
30
0
10
-42.122316244832675
20
-88.957314665446432
30
0
10
-41.921201798683221
20
-88.764299452100076
30
0
10
-41.644038764815072
20
-88.735723793020682
30
0
10
-41.506292915344254
20
-88.721522121249592
30
0
0
SPLINE
5
209
100
AcDbEntity
8
0
100
AcDbSpline
70
0
71
3
72
9
73
5
74
0
42
0.000000001
43
0.0000000001
44
0.0000000001
40
0
40
0
40
0
40
0
40
0.01649646223892897
40
0.034538373013782334
40
0.034538373013782334
40
0.034538373013782334
40
0.034538373013782334
10
-37.33849773406984
20
-90.62138649684087
30
0
10
-37.29417616403147
20
-90.656099203124043
30
0
10
-37.201380818194892
20
-90.728776628171985
30
0
10
-37.083455179455704
20
-90.736455309252264
30
0
10
-37.021854019165055
20
-90.740466444312489
30
0
0
SPLINE
5
210
100
AcDbEntity
8
0
100
AcDbSpline
70
0
71
3
72
9
73
5
74
0
42
0.000000001
43
0.0000000001
44
0.0000000001
40
0
40
0
40
0
40
0
40
0.018379001769555158
40
0.036675292801658432
40
0.036675292801658432
40
0.036675292801658432
40
0.036675292801658432
10
-37.021854019165055
20
-90.740466444312489
30
0
10
-36.959321678574391
20
-90.73487922697683
30
0
10
-36.834538410718451
20
-90.723729936373303
30
0
10
-36.737419282443312
20
-90.644616108155361
30
0
10
-36.688969230651871
20
-90.60514840346471
30
0
0
SPLINE
5
211
100
AcDbEntity
8
0
100
AcDbSpline
70
0
71
3
72
9
73
5
74
0
42
0.000000001
43
0.0000000001
44
0.0000000001
40
0
40
0
40
0
40
0
40
0.020003963379155828
40
0.043568223257608167
40
0.043568223257608167
40
0.043568223257608167
40
0.043568223257608167
10
-36.688969230651871
20
-90.60514840346471
30
0
10
-36.647181293154283
20
-90.551787240470446
30
0
10
-36.556168019641326
20
-90.435567718441007
30
0
10
-36.533457947139752
20
-90.289189780325643
30
0
10
-36.521175003051773
20
-90.210019974528706
30
0
0
LINE
5
212
100
AcDbEntity
8
0
100
AcDbLine
10
-36.521175003051773
20
-90.210019974528706
30
0
11
-35.820229148864762
21
-90.3290996239771
31
0
0
SPLINE
5
213
100
AcDbEntity
8
0
100
AcDbSpline
70
0
71
3
72
9
73
5
74
0
42
0.000000001
43
0.0000000001
44
0.0000000001
40
0
40
0
40
0
40
0
40
0.033647819417689372
40
0.061895105856694069
40
0.061895105856694069
40
0.061895105856694069
40
0.061895105856694069
10
-35.820229148864762
20
-90.3290996239771
30
0
10
-35.845183773286223
20
-90.439220963345548
30
0
10
-35.891087761922364
20
-90.641788977417463
30
0
10
-35.993882259532832
20
-90.821970997451857
30
0
10
-36.040794944763199
20
-90.904201297580158
30
0
0
SPLINE
5
214
100
AcDbEntity
8
0
100
AcDbSpline
70
0
71
3
72
9
73
5
74
0
42
0.000000001
43
0.0000000001
44
0.0000000001
40
0
40
0
40
0
40
0
40
0.026097286787057413
40
0.053751845127958144
40
0.053751845127958144
40
0.053751845127958144
40
0.053751845127958144
10
-36.040794944763199
20
-90.904201297580158
30
0
10
-36.096020532251686
20
-90.972640599778586
30
0
10
-36.209767116331591
20
-91.113603099154545
30
0
10
-36.36981830522793
20
-91.198709877177009
30
0
10
-36.452162361145035
20
-91.24249610167638
30
0
0
SPLINE
5
215
100
AcDbEntity
8
0
100
AcDbSpline
70
0
71
3
72
9
73
5
74
0
42
0.000000001
43
0.0000000001
44
0.0000000001
40
0
40
0
40
0
40
0
40
0.029462392469129288
40
0.060770651496598868
40
0.060770651496598868
40
0.060770651496598868
40
0.060770651496598868
10
-36.452162361145035
20
-91.24249610167638
30
0
10
-36.544336095698469
20
-91.278402635843065
30
0
10
-36.734458398412215
20
-91.352465306638777
30
0
10
-36.938422659063363
20
-91.361157575989736
30
0
10
-37.043502426147477
20
-91.365635721503651
30
0
0
SPLINE
5
216
100
AcDbEntity
8
0
100
AcDbSpline
70
0
71
3
72
9
73
5
74
0
42
0.000000001
43
0.0000000001
44
0.0000000001
40
0
40
0
40
0
40
0
40
0.051258213761576306
40
0.098886216936057397
40
0.098886216936057397
40
0.098886216936057397
40
0.098886216936057397
10
-37.043502426147477
20
-91.365635721503651
30
0
10
-37.218743663993877
20
-91.353061344894343
30
0
10
-37.556815200049058
20
-91.328803134512555
30
0
10
-37.816797279626691
20
-91.112552234951906
30
0
10
-37.942016220092789
20
-91.008396177112019
30
0
0
SPLINE
5
217
100
AcDbEntity
8
0
100
AcDbSpline
70
0
71
3
72
9
73
5
74
0
42
0.000000001
43
0.0000000001
44
0.0000000001
40
0
40
0
40
0
40
0
40
0.037493051335146681
40
0.07309386358225925
40
0.07309386358225925
40
0.07309386358225925
40
0.07309386358225925
10
-37.942016220092789
20
-91.008396177112019
30
0
10
-38.023302950184636
20
-90.909477966619136
30
0
10
-38.181773945443744
20
-90.716633854814603
30
0
10
-38.207997911655312
20
-90.468768632953783
30
0
10
-38.220770454406754
20
-90.348044364272511
30
0
0
SPLINE
5
218
100
AcDbEntity
8
0
100
AcDbSpline
70
0
71
3
72
9
73
5
74
0
42
0.000000001
43
0.0000000001
44
0.0000000001
40
0
40
0
40
0
40
0
40
0.04907761590272728
40
0.1052847599797021
40
0.1052847599797021
40
0.1052847599797021
40
0.1052847599797021
10
-38.220770454406754
20
-90.348044364272511
30
0
10
-38.191145360905772
20
-90.17973924738429
30
0
10
-38.127591522740367
20
-89.818679250703667
30
0
10
-37.81604894265886
20
-89.620359809711488
30
0
10
-37.64972934722902
20
-89.514485328017628
30
0
0
SPLINE
5
219
100
AcDbEntity
8
0
100
AcDbSpline
70
0
71
3
72
9
73
5
74
0
42
0.000000001
43
0.0000000001
44
0.0000000001
40
0
40
0
40
0
40
0
40
0.032888326340760214
40
0.064604376686527548
40
0.064604376686527548
40
0.064604376686527548
40
0.064604376686527548
10
-37.64972934722902
20
-89.514485328017628
30
0
10
-37.757055763546141
20
-89.48336560751558
30
0
10
-37.967883038741775
20
-89.422235402078456
30
0
10
-38.120255565895249
20
-89.264468160753239
30
0
10
-38.195059394836441
20
-89.187015919505512
30
0
0
SPLINE
5
220
100
AcDbEntity
8
0
100
AcDbSpline
70
0
71
3
72
9
73
5
74
0
42
0.000000001
43
0.0000000001
44
0.0000000001
40
0
40
0
40
0
40
0
40
0.031988202533082044
40
0.065732992016651864
40
0.065732992016651864
40
0.065732992016651864
40
0.065732992016651864
10
-38.195059394836441
20
-89.187015919505512
30
0
10
-38.254643067377359
20
-89.096292951838748
30
0
10
-38.37708236565939
20
-88.909865092905449
30
0
10
-38.391822082090158
20
-88.687054450583318
30
0
10
-38.399388885498063
20
-88.572672037898457
30
0
0
SPLINE
5
221
100
AcDbEntity
8
0
100
AcDbSpline
70
0
71
3
72
9
73
5
74
0
42
0.000000001
43
0.0000000001
44
0.0000000001
40
0
40
0
40
0
40
0
40
0.049307819100286615
40
0.099032771662222852
40
0.099032771662222852
40
0.099032771662222852
40
0.099032771662222852
10
-38.399388885498063
20
-88.572672037898457
30
0
10
-38.383224138450593
20
-88.404734372840963
30
0
10
-38.350757894099523
20
-88.06743832648165
30
0
10
-38.129093973901654
20
-87.811026099903756
30
0
10
-38.01779518127443
20
-87.682279972850239
30
0
0
SPLINE
5
222
100
AcDbEntity
8
0
100
AcDbSpline
70
0
71
3
72
9
73
5
74
0
42
0.000000001
43
0.0000000001
44
0.0000000001
40
0
40
0
40
0
40
0
40
0.050954046233584585
40
0.10392442277355829
40
0.10392442277355829
40
0.10392442277355829
40
0.10392442277355829
10
-38.01779518127443
20
-87.682279972850239
30
0
10
-37.881040129647801
20
-87.574939011580057
30
0
10
-37.60211841778775
20
-87.356009441417442
30
0
10
-37.248234324901787
20
-87.328325344979049
30
0
10
-37.067859268188492
20
-87.314214734851276
30
0
0
SPLINE
5
223
100
AcDbEntity
8
0
100
AcDbSpline
70
0
71
3
72
9
73
5
74
0
42
0.000000001
43
0.0000000001
44
0.0000000001
40
0
40
0
40
0
40
0
40
0.049860881513413446
40
0.096169451516607385
40
0.096169451516607385
40
0.096169451516607385
40
0.096169451516607385
10
-37.067859268188492
20
-87.314214734851276
30
0
10
-36.898378969594177
20
-87.32510907754434
30
0
10
-36.57149290452729
20
-87.346121601383203
30
0
10
-36.30370872305037
20
-87.533745842353426
30
0
10
-36.174762344360367
20
-87.624092726527607
30
0
0
SPLINE
5
224
100
AcDbEntity
8
0
100
AcDbSpline
70
0
71
3
72
9
73
5
74
0
42
0.000000001
43
0.0000000001
44
0.0000000001
40
0
40
0
40
0
40
0
40
0.045422750729536332
40
0.092583906122998078
40
0.092583906122998078
40
0.092583906122998078
40
0.092583906122998078
10
-36.174762344360367
20
-87.624092726527607
30
0
10
-36.068826019384389
20
-87.736849936414075
30
0
10
-35.852899009041238
20
-87.966679763255257
30
0
10
-35.793600760152778
20
-88.276718070484861
30
0
10
-35.763394927978531
20
-88.434647946177876
30
0
0
LINE
5
225
100
AcDbEntity
8
0
100
AcDbLine
10
-35.763394927978531
20
-88.43464794617789
30
0
11
-36.499526596069352
21
-88.523957757769978
31
0
0
SPLINE
5
226
100
AcDbEntity
8
0
100
AcDbSpline
70
0
71
3
72
9
73
5
74
0
42
0.000000001
43
0.0000000001
44
0.0000000001
40
0
40
0
40
0
40
0
40
0.02566639236115836
40
0.047716844612286161
40
0.047716844612286161
40
0.047716844612286161
40
0.047716844612286161
10
-36.499526596069352
20
-88.523957757769978
30
0
10
-36.514011050609234
20
-88.437919563104487
30
0
10
-36.540939356576338
20
-88.277964431592224
30
0
10
-36.642183332146551
20
-88.151901291008969
30
0
10
-36.688969230651871
20
-88.093646197139179
30
0
0
SPLINE
5
227
100
AcDbEntity
8
0
100
AcDbSpline
70
0
71
3
72
9
73
5
74
0
42
0.000000001
43
0.0000000001
44
0.0000000001
40
0
40
0
40
0
40
0
40
0.020379892915829305
40
0.041015716650313686
40
0.041015716650313686
40
0.041015716650313686
40
0.041015716650313686
10
-36.688969230651871
20
-88.093646197139179
30
0
10
-36.74332275627421
20
-88.050232243306525
30
0
10
-36.852712379422826
20
-87.962859142946073
30
0
10
-36.992245350414905
20
-87.950842514750008
30
0
10
-37.062447166442887
20
-87.944796709834492
30
0
0
SPLINE
5
228
100
AcDbEntity
8
0
100
AcDbSpline
70
0
71
3
72
9
73
5
74
0
42
0.000000001
43
0.0000000001
44
0.0000000001
40
0
40
0
40
0
40
0
40
0.022139653077676499
40
0.044548364144352814
40
0.044548364144352814
40
0.044548364144352814
40
0.044548364144352814
10
-37.062447166442887
20
-87.944796709834492
30
0
10
-37.137990274593932
20
-87.952417227564183
30
0
10
-37.289994548495677
20
-87.967750873380609
30
0
10
-37.402390388920637
20
-88.071319339577784
30
0
10
-37.458927726745621
20
-88.123416333018696
30
0
0
SPLINE
5
229
100
AcDbEntity
8
0
100
AcDbSpline
70
0
71
3
72
9
73
5
74
0
42
0.000000001
43
0.0000000001
44
0.0000000001
40
0
40
0
40
0
40
0
40
0.024202701834380079
40
0.051697954255129699
40
0.051697954255129699
40
0.051697954255129699
40
0.051697954255129699
10
-37.458927726745621
20
-88.123416333018696
30
0
10
-37.505841884516315
20
-88.191015120034706
30
0
10
-37.606052431212461
20
-88.335408875028293
30
0
10
-37.615128553107766
20
-88.511496864679543
30
0
10
-37.619955635070816
20
-88.605148224650776
30
0
0
SPLINE
5
230
100
AcDbEntity
8
0
100
AcDbSpline
70
0
71
3
72
9
73
5
74
0
42
0.000000001
43
0.0000000001
44
0.0000000001
40
0
40
0
40
0
40
0
40
0.025998010357059165
40
0.048893012878947067
40
0.048893012878947067
40
0.048893012878947067
40
0.048893012878947067
10
-37.619955635070816
20
-88.605148224650776
30
0
10
-37.615327508138762
20
-88.693753254919713
30
0
10
-37.606623647089911
20
-88.860387809894519
30
0
10
-37.510640038103979
20
-88.996213967725367
30
0
10
-37.465694046020523
20
-89.059816925345814
30
0
0
SPLINE
5
231
100
AcDbEntity
8
0
100
AcDbSpline
70
0
71
3
72
9
73
5
74
0
42
0.000000001
43
0.0000000001
44
0.0000000001
40
0
40
0
40
0
40
0
40
0.021245708861725599
40
0.042171144874941072
40
0.042171144874941072
40
0.042171144874941072
40
0.042171144874941072
10
-37.465694046020523
20
-89.059816925345814
30
0
10
-37.411739884841772
20
-89.108756095722313
30
0
10
-37.304644905686992
20
-89.205896692792493
30
0
10
-37.160859266264154
20
-89.220409739809
30
0
10
-37.089512443542496
20
-89.227611152945911
30
0
0
SPLINE
5
232
100
AcDbEntity
8
0
100
AcDbSpline
70
0
71
3
72
9
73
5
74
0
42
0.000000001
43
0.0000000001
44
0.0000000001
40
0
40
0
40
0
40
0
40
0.016097904674932287
40
0.03545019666537394
40
0.03545019666537394
40
0.03545019666537394
40
0.03545019666537394
10
-37.089512443542496
20
-89.227611152945911
30
0
10
-37.035810518975538
20
-89.224483240290837
30
0
10
-36.917550172324809
20
-89.21759506937579
30
0
10
-36.802951086520146
20
-89.187310304557172
30
0
10
-36.740391349792496
20
-89.170777826129353
30
0
0
LINE
5
233
100
AcDbEntity
8
0
100
AcDbLine
10
-36.740391349792496
20
-89.170777826129353
30
0
11
-36.824286079406754
21
-89.790534107505238
31
0
0
SPLINE
5
234
100
AcDbEntity
8
0
100
AcDbSpline
70
0
71
3
72
9
73
5
74
0
42
0.000000001
43
0.0000000001
44
0.0000000001
40
0
40
0
40
0
40
0
40
0.027358043672936011
40
0.049829190017937633
40
0.049829190017937633
40
0.049829190017937633
40
0.049829190017937633
10
-36.824286079406754
20
-89.790534107505238
30
0
10
-36.917678640663212
20
-89.791392312759399
30
0
10
-37.087781288964521
20
-89.792955424259446
30
0
10
-37.230731033452216
20
-89.883614768814795
30
0
10
-37.295196151733414
20
-89.924498824893391
30
0
0
SPLINE
5
235
100
AcDbEntity
8
0
100
AcDbSpline
70
0
71
3
72
9
73
5
74
0
42
0.000000001
43
0.0000000001
44
0.0000000001
40
0
40
0
40
0
40
0
40
0.020542263766789141
40
0.042138288346175418
40
0.042138288346175418
40
0.042138288346175418
40
0.042138288346175418
10
-37.295196151733414
20
-89.924498824893391
30
0
10
-37.342550521988628
20
-89.976688799726418
30
0
10
-37.439688409561228
20
-90.083745949476807
30
0
10
-37.451516393307813
20
-90.228069695339869
30
0
10
-37.457578277587906
20
-90.302036135016834
30
0
0
SPLINE
5
236
100
AcDbEntity
8
0
100
AcDbSpline
70
0
71
3
72
9
73
5
74
0
42
0.000000001
43
0.0000000001
44
0.0000000001
40
0
40
0
40
0
40
0
40
0.018241834210910274
40
0.03479557267353723
40
0.03479557267353723
40
0.03479557267353723
40
0.03479557267353723
10
-37.457578277587906
20
-90.302036135016834
30
0
10
-37.45365370535842
20
-90.364332301334599
30
0
10
-37.44616774004129
20
-90.483159758997601
30
0
10
-37.373207861229957
20
-90.576825640693599
30
0
10
-37.33849773406984
20
-90.62138649684087
30
0
0
LWPOLYLINE
5
237
100
AcDbEntity
8
0
100
AcDbPolyline
90
11
70
1
43
0.0
10
-18.688967323303238
20
-88.84601446849004
10
-20.410211181640641
20
-91.365635721503651
10
-21.048915481567398
20
-91.365635721503651
10
-21.048915481567398
20
-88.848720817386067
10
-21.541469192504898
20
-88.848720817386067
10
-21.541469192504898
20
-88.180249957858479
10
-21.048915481567398
20
-88.180249957858479
10
-21.048915481567398
20
-87.381873755275166
10
-20.312783813476578
20
-87.381873755275166
10
-20.312783813476578
20
-88.180249957858479
10
-18.688967323303238
20
-88.180249957858479
0
SPLINE
5
238
100
AcDbEntity
8
0
100
AcDbSpline
70
0
71
3
72
9
73
5
74
0
42
0.000000001
43
0.0000000001
44
0.0000000001
40
0
40
0
40
0
40
0
40
0.056657778972467272
40
0.11459068951583611
40
0.11459068951583611
40
0.11459068951583611
40
0.11459068951583611
10
-16.921718215942398
20
-90.247908859073078
30
0
10
-16.77556219284358
20
-90.126124284398102
30
0
10
-16.479960780865799
20
-89.879814269471808
30
0
10
-16.120858716015015
20
-89.741421061532506
30
0
10
-15.939309692382828
20
-89.671454458056843
30
0
0
LINE
5
239
100
AcDbEntity
8
0
100
AcDbLine
10
-15.939309692382828
20
-89.671454458056857
30
0
11
-15.939309692382828
21
-90.361576108752644
31
0
0
SPLINE
5
240
100
AcDbEntity
8
0
100
AcDbSpline
70
0
71
3
72
9
73
5
74
0
42
0.000000001
43
0.0000000001
44
0.0000000001
40
0
40
0
40
0
40
0
40
0.034109318602068499
40
0.074756308871628013
40
0.074756308871628013
40
0.074756308871628013
40
0.074756308871628013
10
-15.939309692382828
20
-90.361576108752644
30
0
10
-16.04498557569153
20
-90.404754830516865
30
0
10
-16.276592048546377
20
-90.499388261883411
30
0
10
-16.47710535269394
20
-90.649418596962363
30
0
10
-16.586129760742203
20
-90.730994074164784
30
0
0
SPLINE
5
241
100
AcDbEntity
8
0
100
AcDbSpline
70
0
71
3
72
9
73
5
74
0
42
0.000000001
43
0.0000000001
44
0.0000000001
40
0
40
0
40
0
40
0
40
0.041646719753044154
40
0.080338793116147
40
0.080338793116147
40
0.080338793116147
40
0.080338793116147
10
-16.586129760742203
20
-90.730994074164784
30
0
10
-16.692487340121112
20
-90.823052868795742
30
0
10
-16.897656909698835
20
-91.000639302979124
30
0
10
-17.010708617595995
20
-91.246990292628425
30
0
10
-17.06515560150148
20
-91.365635721503651
30
0
0
LINE
5
242
100
AcDbEntity
8
0
100
AcDbLine
10
-17.06515560150148
20
-91.365635721503651
30
0
11
-17.682206726074234
21
-91.365635721503651
31
0
0
LINE
5
243
100
AcDbEntity
8
0
100
AcDbLine
10
-17.682206726074234
20
-91.365635721503651
30
0
11
-17.682206726074234
21
-87.381873755275166
31
0
0
LINE
5
244
100
AcDbEntity
8
0
100
AcDbLine
10
-17.682206726074234
20
-87.381873755275166
30
0
11
-16.921718215942398
21
-87.381873755275166
31
0
0
LINE
5
245
100
AcDbEntity
8
0
100
AcDbLine
10
-16.921718215942398
20
-87.381873755275166
30
0
11
-16.921718215942398
21
-90.247908859073078
31
0
0
LWPOLYLINE
5
246
100
AcDbEntity
8
0
100
AcDbPolyline
90
4
70
1
43
0.0
10
-2.0150876998901524
20
-87.381873755275166
10
-2.0150876998901524
20
-88.142361073314106
10
-2.7755738258361973
20
-88.142361073314106
10
-2.7755738258361973
20
-87.381873755275166
0
SPLINE
5
247
100
AcDbEntity
8
0
100
AcDbSpline
70
0
71
3
72
9
73
5
74
0
42
0.000000001
43
0.0000000001
44
0.0000000001
40
0
40
0
40
0
40
0
40
0.056657778972467272
40
0.11459068951583611
40
0.11459068951583611
40
0.11459068951583611
40
0.11459068951583611
10
3.1324075698852383
20
-90.247908859073078
30
0
10
3.278563592984054
20
-90.126124284398102
30
0
10
3.574165004961829
20
-89.879814269471808
30
0
10
3.933267069812616
20
-89.741421061532506
30
0
10
4.1148160934448086
20
-89.671454458056843
30
0
0
LINE
5
248
100
AcDbEntity
8
0
100
AcDbLine
10
4.1148160934448095
20
-89.671454458056857
30
0
11
4.1148160934448086
21
-90.361576108752644
31
0
0
SPLINE
5
249
100
AcDbEntity
8
0
100
AcDbSpline
70
0
71
3
72
9
73
5
74
0
42
0.000000001
43
0.0000000001
44
0.0000000001
40
0
40
0
40
0
40
0
40
0.034109318602068499
40
0.074756308871628013
40
0.074756308871628013
40
0.074756308871628013
40
0.074756308871628013
10
4.1148160934448086
20
-90.361576108752644
30
0
10
4.0091402101361062
20
-90.404754830516865
30
0
10
3.7775337372812512
20
-90.499388261883411
30
0
10
3.5770204331336997
20
-90.649418596962363
30
0
10
3.4679960250854336
20
-90.730994074164784
30
0
0
SPLINE
5
250
100
AcDbEntity
8
0
100
AcDbSpline
70
0
71
3
72
9
73
5
74
0
42
0.000000001
43
0.0000000001
44
0.0000000001
40
0
40
0
40
0
40
0
40
0.041646719753044154
40
0.080338793116147
40
0.080338793116147
40
0.080338793116147
40
0.080338793116147
10
3.4679960250854336
20
-90.730994074164784
30
0
10
3.3616384457065296
20
-90.823052868795742
30
0
10
3.1564688761288062
20
-91.000639302979124
30
0
10
3.0434171682316435
20
-91.246990292628425
30
0
10
2.9889701843261562
20
-91.365635721503651
30
0
0
LINE
5
251
100
AcDbEntity
8
0
100
AcDbLine
10
2.9889701843261562
20
-91.365635721503651
30
0
11
2.3719190597534023
21
-91.365635721503651
31
0
0
LINE
5
252
100
AcDbEntity
8
0
100
AcDbLine
10
2.3719190597534023
20
-91.365635721503651
30
0
11
2.3719190597534023
21
-87.381873755275166
31
0
0
LINE
5
253
100
AcDbEntity
8
0
100
AcDbLine
10
2.3719190597534023
20
-87.381873755275166
30
0
11
3.1324075698852383
21
-87.381873755275166
31
0
0
LINE
5
254
100
AcDbEntity
8
0
100
AcDbLine
10
3.1324075698852383
20
-87.381873755275166
30
0
11
3.1324075698852383
21
-90.247908859073078
31
0
0
LWPOLYLINE
5
255
100
AcDbEntity
8
0
100
AcDbPolyline
90
4
70
1
43
0.0
10
18.03903927803038
20
-87.381873755275166
10
18.03903927803038
20
-88.142361073314106
10
17.278551959991439
20
-88.142361073314106
10
17.278551959991439
20
-87.381873755275166
0
SPLINE
5
256
100
AcDbEntity
8
0
100
AcDbSpline
70
0
71
3
72
9
73
5
74
0
42
0.000000001
43
0.0000000001
44
0.0000000001
40
0
40
0
40
0
40
0
40
0.056657778972467272
40
0.11459071669907871
40
0.11459071669907871
40
0.11459071669907871
40
0.11459071669907871
10
23.186535739898666
20
-90.247908859073078
30
0
10
23.332691760188954
20
-90.126124277503706
30
0
10
23.628293236609128
20
-89.879814190203746
30
0
10
23.987395430494729
20
-89.741421045695972
30
0
10
24.16894456148146
20
-89.671454458056843
30
0
0
LINE
5
257
100
AcDbEntity
8
0
100
AcDbLine
10
24.16894456148146
20
-89.671454458056843
30
0
11
24.16894456148146
21
-90.361576108752644
31
0
0
SPLINE
5
258
100
AcDbEntity
8
0
100
AcDbSpline
70
0
71
3
72
9
73
5
74
0
42
0.000000001
43
0.0000000001
44
0.0000000001
40
0
40
0
40
0
40
0
40
0.034109345736138004
40
0.074756311350751906
40
0.074756311350751906
40
0.074756311350751906
40
0.074756311350751906
10
24.16894456148146
20
-90.361576108752644
30
0
10
24.063268565591578
20
-90.404754807155356
30
0
10
23.831662022559147
20
-90.499388115178448
30
0
10
23.63114879161958
20
-90.649418579095595
30
0
10
23.522124493122085
20
-90.730994074164784
30
0
0
SPLINE
5
259
100
AcDbEntity
8
0
100
AcDbSpline
70
0
71
3
72
9
73
5
74
0
42
0.000000001
43
0.0000000001
44
0.0000000001
40
0
40
0
40
0
40
0
40
0.041646614446374228
40
0.080338744717571367
40
0.080338744717571367
40
0.080338744717571367
40
0.080338744717571367
10
23.522124493122085
20
-90.730994074164784
30
0
10
23.415767597247044
20
-90.823053007108683
30
0
10
23.210598951001845
20
-91.000640050162929
30
0
10
23.097546435921732
20
-91.24699036948661
30
0
10
23.043098950386032
20
-91.365635721503651
30
0
0
LINE
5
260
100
AcDbEntity
8
0
100
AcDbLine
10
23.043098950386032
20
-91.365635721503651
30
0
11
22.426048719882949
21
-91.365635721503651
31
0
0
LINE
5
261
100
AcDbEntity
8
0
100
AcDbLine
10
22.426048719882949
20
-91.365635721503651
30
0
11
22.426048719882949
21
-87.381873755275166
31
0
0
LINE
5
262
100
AcDbEntity
8
0
100
AcDbLine
10
22.426048719882949
20
-87.381873755275166
30
0
11
23.186535739898666
21
-87.381873755275166
31
0
0
LINE
5
263
100
AcDbEntity
8
0
100
AcDbLine
10
23.186535739898666
20
-87.381873755275166
30
0
11
23.186535739898666
21
-90.247908859073078
31
0
0
LWPOLYLINE
5
264
100
AcDbEntity
8
0
100
AcDbPolyline
90
4
70
1
43
0.0
10
-64.050000000000011
20
-106.84437393408913
10
-64.050000000000011
20
-93.044373934089109
10
-50.25
20
-93.044373934089109
10
-50.25
20
-106.84437393408913
0
LWPOLYLINE
5
265
100
AcDbEntity
8
0
100
AcDbPolyline
90
4
70
1
43
0.0
10
-26.050000000000004
20
-106.94437393408911
10
-26.050000000000004
20
-92.944373934089128
10
-12.050000000000001
20
-92.944373934089128
10
-12.050000000000001
20
-106.94437393408911
0
LWPOLYLINE
5
266
100
AcDbEntity
8
0
100
AcDbPolyline
90
4
70
1
43
0.0
10
-45.050000000000011
20
-106.89437393408912
10
-45.050000000000011
20
-92.994373934089111
10
-31.150000000000002
20
-92.994373934089111
10
-31.150000000000002
20
-106.89437393408912
0
LWPOLYLINE
5
267
100
AcDbEntity
8
0
100
AcDbPolyline
90
4
70
1
43
0.0
10
11.949999999999985
20
-107.0693739340891
10
11.949999999999985
20
-92.819373934089086
10
26.149999999999984
20
-92.8193739340891
10
26.149999999999984
20
-107.0693739340891
0
LWPOLYLINE
5
268
100
AcDbEntity
8
0
100
AcDbPolyline
90
4
70
1
43
0.0
10
-7.0500000000000007
20
-106.99437393408913
10
-7.0500000000000007
20
-92.894373934089117
10
7.0500000000000007
20
-92.894373934089117
10
7.0500000000000007
20
-106.99437393408913
0
LWPOLYLINE
5
269
100
AcDbEntity
8
0
100
AcDbPolyline
90
4
70
1
43
0.0
10
-66.050000000000011
20
-85.944373934089114
10
-66.050000000000011
20
-108.94437393408913
10
27.949999999999999
20
-108.94437393408913
10
27.949999999999999
20
-85.944373934089114
0
LWPOLYLINE
5
270
100
AcDbEntity
8
0
100
AcDbPolyline
90
3
70
1
43
0.0
10
20.707510614395126
20
-88.848720817386067
10
19.795467162132248
20
-88.848720817386067
10
19.795467162132248
20
-90.204607276736652
0
LWPOLYLINE
5
271
100
AcDbEntity
8
0
100
AcDbPolyline
90
3
70
1
43
0.0
10
0.65338363647459363
20
-88.848720817386067
10
-0.25866041183473243
20
-88.848720817386067
10
-0.25866041183473243
20
-90.204607276736652
0
LWPOLYLINE
5
272
100
AcDbEntity
8
0
100
AcDbPolyline
90
3
70
1
43
0.0
10
-19.400742149353043
20
-88.848720817386067
10
-20.312783813476578
20
-88.848720817386067
10
-20.312783813476578
20
-90.204607276736652
0
SPLINE
5
273
100
AcDbEntity
8
0
100
AcDbSpline
70
0
71
3
72
9
73
5
74
0
42
0.000000001
43
0.0000000001
44
0.0000000001
40
0
40
0
40
0
40
0
40
0.01975975803675992
40
0.039841775581538563
40
0.039841775581538563
40
0.039841775581538563
40
0.039841775581538563
10
-41.595604515075699
20
-90.735053746520435
30
0
10
-41.528042932879842
20
-90.727897020753758
30
0
10
-41.391817914801514
20
-90.713466851043989
30
0
10
-41.294288396069433
20
-90.61715698015702
30
0
10
-41.245129203796402
20
-90.568612544356739
30
0
0
SPLINE
5
274
100
AcDbEntity
8
0
100
AcDbSpline
70
0
71
3
72
9
73
5
74
0
42
0.000000001
43
0.0000000001
44
0.0000000001
40
0
40
0
40
0
40
0
40
0.024316597827524319
40
0.057080254421858184
40
0.057080254421858184
40
0.057080254421858184
40
0.057080254421858184
10
-41.245129203796402
20
-90.568612544356739
30
0
10
-41.204701441733491
20
-90.497006662560736
30
0
10
-41.109802189764721
20
-90.328920568444801
30
0
10
-41.107230564995916
20
-90.13473952988285
30
0
10
-41.105754470825211
20
-90.023281006633198
30
0
0
SPLINE
5
275
100
AcDbEntity
8
0
100
AcDbSpline
70
0
71
3
72
9
73
5
74
0
42
0.000000001
43
0.0000000001
44
0.0000000001
40
0
40
0
40
0
40
0
40
0.033536788970887625
40
0.059286949210402971
40
0.059286949210402971
40
0.059286949210402971
40
0.059286949210402971
10
-41.105754470825211
20
-90.023281006633198
30
0
10
-41.107999432518305
20
-89.909162628042552
30
0
10
-41.111968116878458
20
-89.707422070192763
30
0
10
-41.213300567891395
20
-89.534228405220716
30
0
10
-41.257312393188492
20
-89.45900502663747
30
0
0
SPLINE
5
276
100
AcDbEntity
8
0
100
AcDbSpline
70
0
71
3
72
9
73
5
74
0
42
0.000000001
43
0.0000000001
44
0.0000000001
40
0
40
0
40
0
40
0
40
0.021746051176466101
40
0.043065448449570415
40
0.043065448449570415
40
0.043065448449570415
40
0.043065448449570415
10
-41.257312393188492
20
-89.45900502663747
30
0
10
-41.310604905383897
20
-89.406514366467405
30
0
10
-41.416144339558656
20
-89.302562904140103
30
0
10
-41.563335814115582
20
-89.286823711432874
30
0
10
-41.636202430725113
20
-89.279032079993641
30
0
0
SPLINE
5
277
100
AcDbEntity
8
0
100
AcDbSpline
70
0
71
3
72
9
73
5
74
0
42
0.000000001
43
0.0000000001
44
0.0000000001
40
0
40
0
40
0
40
0
40
0.020654959914779968
40
0.041848544002244588
40
0.041848544002244588
40
0.041848544002244588
40
0.041848544002244588
10
-41.636202430725113
20
-89.279032079993641
30
0
10
-41.706710706458722
20
-89.28661355500094
30
0
10
-41.849565918559577
20
-89.301974208894876
30
0
10
-41.95315601970308
20
-89.401722989755001
30
0
10
-42.005617713928238
20
-89.452239303409016
30
0
0
SPLINE
5
278
100
AcDbEntity
8
0
100
AcDbSpline
70
0
71
3
72
9
73
5
74
0
42
0.000000001
43
0.0000000001
44
0.0000000001
40
0
40
0
40
0
40
0
40
0.024166534523925507
40
0.053903867476590761
40
0.053903867476590761
40
0.053903867476590761
40
0.053903867476590761
10
-42.005617713928238
20
-89.452239303409016
30
0
10
-42.04930596139743
20
-89.521569389786819
30
0
10
-42.146753342590308
20
-89.676211330051359
30
0
10
-42.15259740477174
20
-89.859770153295955
30
0
10
-42.155821418762223
20
-89.961034684001362
30
0
0
SPLINE
5
279
100
AcDbEntity
8
0
100
AcDbSpline
70
0
71
3
72
9
73
5
74
0
42
0.000000001
43
0.0000000001
44
0.0000000001
40
0
40
0
40
0
40
0
40
0.032951736783221219
40
0.060474768230119103
40
0.060474768230119103
40
0.060474768230119103
40
0.060474768230119103
10
-42.155821418762223
20
-89.961034684001362
30
0
10
-42.151679260518776
20
-90.073086703445995
30
0
10
-42.144077352874518
20
-90.278730489393041
30
0
10
-42.035904269138491
20
-90.452837711762143
30
0
10
-41.986672973632828
20
-90.532076685248768
30
0
0
SPLINE
5
280
100
AcDbEntity
8
0
100
AcDbSpline
70
0
71
3
72
9
73
5
74
0
42
0.000000001
43
0.0000000001
44
0.0000000001
40
0
40
0
40
0
40
0
40
0.02375328142683851
40
0.045234319511512119
40
0.045234319511512119
40
0.045234319511512119
40
0.045234319511512119
10
-41.986672973632828
20
-90.532076685248768
30
0
10
-41.930135983443861
20
-90.5912333121247
30
0
10
-41.822470342117455
20
-90.703887631889813
30
0
10
-41.668650866716241
20
-90.725018868203762
30
0
10
-41.595604515075699
20
-90.735053746520435
30
0
0
SPLINE
5
281
100
AcDbEntity
8
0
100
AcDbSpline
70
0
71
3
72
9
73
5
74
0
42
0.000000001
43
0.0000000001
44
0.0000000001
40
0
40
0
40
0
40
0
40
0.019748725234673376
40
0.037711319821173248
40
0.037711319821173248
40
0.037711319821173248
40
0.037711319821173248
10
-60.209949111938492
20
-89.806772200881397
30
0
10
-60.277364305771343
20
-89.811038044124828
30
0
10
-60.406097472354325
20
-89.819183915665803
30
0
10
-60.507880597723954
20
-89.897852790047637
30
0
10
-60.556361770629898
20
-89.935324220477497
30
0
0
SPLINE
5
282
100
AcDbEntity
8
0
100
AcDbSpline
70
0
71
3
72
9
73
5
74
0
42
0.000000001
43
0.0000000001
44
0.0000000001
40
0
40
0
40
0
40
0
40
0.018160069464955773
40
0.0386824854258912
40
0.0386824854258912
40
0.0386824854258912
40
0.0386824854258912
10
-60.556361770629898
20
-89.935324220477497
30
0
10
-60.594216286953824
20
-89.984367340219663
30
0
10
-60.674849611558074
20
-90.088833337352995
30
0
10
-60.68231214836171
20
-90.221059905138816
30
0
10
-60.686271286010758
20
-90.291210739432728
30
0
0
SPLINE
5
283
100
AcDbEntity
8
0
100
AcDbSpline
70
0
71
3
72
9
73
5
74
0
42
0.000000001
43
0.0000000001
44
0.0000000001
40
0
40
0
40
0
40
0
40
0.019515448784843833
40
0.037335527630848228
40
0.037335527630848228
40
0.037335527630848228
40
0.037335527630848228
10
-60.686271286010758
20
-90.291210739432728
30
0
10
-60.681957165726615
20
-90.357845352433785
30
0
10
-60.673703706692841
20
-90.485325814825387
30
0
10
-60.595190153007792
20
-90.585670940330431
30
0
10
-60.557715988159195
20
-90.633565215884602
30
0
0
SPLINE
5
284
100
AcDbEntity
8
0
100
AcDbSpline
70
0
71
3
72
9
73
5
74
0
42
0.000000001
43
0.0000000001
44
0.0000000001
40
0
40
0
40
0
40
0
40
0.017762692823422709
40
0.037077767181026219
40
0.037077767181026219
40
0.037077767181026219
40
0.037077767181026219
10
-60.557715988159195
20
-90.633565215884602
30
0
10
-60.510061595936975
20
-90.671041567044654
30
0
10
-60.410588026386804
20
-90.749269538271761
30
0
10
-60.284012124392277
20
-90.757716779320958
30
0
10
-60.218074417114273
20
-90.762117235480702
30
0
0
SPLINE
5
285
100
AcDbEntity
8
0
100
AcDbSpline
70
0
71
3
72
9
73
5
74
0
42
0.000000001
43
0.0000000001
44
0.0000000001
40
0
40
0
40
0
40
0
40
0.019955600495292287
40
0.038029041090383756
40
0.038029041090383756
40
0.038029041090383756
40
0.038029041090383756
10
-60.218074417114273
20
-90.762117235480702
30
0
10
-60.149922245446348
20
-90.75785966190719
30
0
10
-60.020045836196196
20
-90.749746077933054
30
0
10
-59.917627846718503
20
-90.670075787022711
30
0
10
-59.868953323364273
20
-90.6322121904482
30
0
0
SPLINE
5
286
100
AcDbEntity
8
0
100
AcDbSpline
70
0
71
3
72
9
73
5
74
0
42
0.000000001
43
0.0000000001
44
0.0000000001
40
0
40
0
40
0
40
0
40
0.017960164880393033
40
0.037514651903861058
40
0.037514651903861058
40
0.037514651903861058
40
0.037514651903861058
10
-59.868953323364273
20
-90.6322121904482
30
0
10
-59.831084123188631
20
-90.584011668988126
30
0
10
-59.751984077508169
20
-90.48333187032253
30
0
10
-59.743477733871515
20
-90.355261161304483
30
0
10
-59.739043807983414
20
-90.288504390536701
30
0
0
SPLINE
5
287
100
AcDbEntity
8
0
100
AcDbSpline
70
0
71
3
72
9
73
5
74
0
42
0.000000001
43
0.0000000001
44
0.0000000001
40
0
40
0
40
0
40
0
40
0.0204837535580982
40
0.038503441439889693
40
0.038503441439889693
40
0.038503441439889693
40
0.038503441439889693
10
-59.739043807983414
20
-90.288504390536701
30
0
10
-59.742888484786718
20
-90.218477281548545
30
0
10
-59.750115348150956
20
-90.086846880778367
30
0
10
-59.830145046407424
20
-89.982708272672141
30
0
10
-59.867599105834977
20
-89.933971195041096
30
0
0
SPLINE
5
288
100
AcDbEntity
8
0
100
AcDbSpline
70
0
71
3
72
9
73
5
74
0
42
0.000000001
43
0.0000000001
44
0.0000000001
40
0
40
0
40
0
40
0
40
0.017764899210974957
40
0.037274762005305551
40
0.037274762005305551
40
0.037274762005305551
40
0.037274762005305551
10
-59.867599105834977
20
-89.933971195041096
30
0
10
-59.915533959429474
20
-89.896893643228211
30
0
10
-60.016112084769517
20
-89.819096583804907
30
0
10
-60.143351264054999
20
-89.811006569263881
30
0
10
-60.209949111938492
20
-89.806772200881397
30
0
0
SPLINE
5
289
100
AcDbEntity
8
0
100
AcDbSpline
70
0
71
3
72
9
73
5
74
0
42
0.000000001
43
0.0000000001
44
0.0000000001
40
0
40
0
40
0
40
0
40
0.021927463094593369
40
0.043506360214507121
40
0.043506360214507121
40
0.043506360214507121
40
0.043506360214507121
10
-60.231597518920914
20
-87.923145918666279
30
0
10
-60.306490414396677
20
-87.92996527095471
30
0
10
-60.455085683900549
20
-87.943495572924036
30
0
10
-60.566202998209192
20
-88.04295960205522
30
0
10
-60.621316528320328
20
-88.092293171702778
30
0
0
SPLINE
5
290
100
AcDbEntity
8
0
100
AcDbSpline
70
0
71
3
72
9
73
5
74
0
42
0.000000001
43
0.0000000001
44
0.0000000001
40
0
40
0
40
0
40
0
40
0.02368767055533666
40
0.052130356725811205
40
0.052130356725811205
40
0.052130356725811205
40
0.052130356725811205
10
-60.621316528320328
20
-88.092293171702778
30
0
10
-60.666212865305212
20
-88.159072757194565
30
0
10
-60.765017940174708
20
-88.30603712861965
30
0
10
-60.77185340724192
20
-88.483801760034595
30
0
10
-60.775582885742203
20
-88.58079138260976
30
0
0
SPLINE
5
291
100
AcDbEntity
8
0
100
AcDbSpline
70
0
71
3
72
9
73
5
74
0
42
0.000000001
43
0.0000000001
44
0.0000000001
40
0
40
0
40
0
40
0
40
0.025439789972358184
40
0.048350999813612711
40
0.048350999813612711
40
0.048350999813612711
40
0.048350999813612711
10
-60.775582885742203
20
-88.58079138260976
30
0
10
-60.770523720908223
20
-88.667479205011247
30
0
10
-60.760908245379106
20
-88.83223854026248
30
0
10
-60.664358409753362
20
-88.96553228085466
30
0
10
-60.618608093261734
20
-89.028693764029896
30
0
0
SPLINE
5
292
100
AcDbEntity
8
0
100
AcDbSpline
70
0
71
3
72
9
73
5
74
0
42
0.000000001
43
0.0000000001
44
0.0000000001
40
0
40
0
40
0
40
0
40
0.021852932075289242
40
0.044245654875308599
40
0.044245654875308599
40
0.044245654875308599
40
0.044245654875308599
10
-60.618608093261734
20
-89.028693764029896
30
0
10
-60.562313710840456
20
-89.078026430717259
30
0
10
-60.448334414723618
20
-89.177910333564157
30
0
10
-60.297241452775182
20
-89.191143838950481
30
0
10
-60.220773315429703
20
-89.197841315089619
30
0
0
SPLINE
5
293
100
AcDbEntity
8
0
100
AcDbSpline
70
0
71
3
72
9
73
5
74
0
42
0.000000001
43
0.0000000001
44
0.0000000001
40
0
40
0
40
0
40
0
40
0.024792352697486447
40
0.047246769493193647
40
0.047246769493193647
40
0.047246769493193647
40
0.047246769493193647
10
-60.220773315429703
20
-89.197841315089619
30
0
10
-60.135054247314429
20
-89.191543545936696
30
0
10
-59.971699478130915
20
-89.179541891591072
30
0
10
-59.858941799680053
20
-89.061696597272373
30
0
10
-59.805352783203141
20
-89.005689649402058
30
0
0
SPLINE
5
294
100
AcDbEntity
8
0
100
AcDbSpline
70
0
71
3
72
9
73
5
74
0
42
0.000000001
43
0.0000000001
44
0.0000000001
40
0
40
0
40
0
40
0
40
0.022497758841743737
40
0.044416593920643357
40
0.044416593920643357
40
0.044416593920643357
40
0.044416593920643357
10
-59.805352783203141
20
-89.005689649402058
30
0
10
-59.765493551861454
20
-88.940786156550644
30
0
10
-59.686800767173622
20
-88.812649300506848
30
0
10
-59.674668690702163
20
-88.662838980835915
30
0
10
-59.668681716918961
20
-88.588910131274616
30
0
0
SPLINE
5
295
100
AcDbEntity
8
0
100
AcDbSpline
70
0
71
3
72
9
73
5
74
0
42
0.000000001
43
0.0000000001
44
0.0000000001
40
0
40
0
40
0
40
0
40
0.028231597146442272
40
0.05249323872351537
40
0.05249323872351537
40
0.05249323872351537
40
0.05249323872351537
10
-59.668681716918961
20
-88.588910131274616
30
0
10
-59.673111162956957
20
-88.49266672738807
30
0
10
-59.68134718187855
20
-88.313713763814135
30
0
10
-59.782813370434852
20
-88.166909687886886
30
0
10
-59.829709625244156
20
-88.099058894931233
30
0
0
SPLINE
5
296
100
AcDbEntity
8
0
100
AcDbSpline
70
0
71
3
72
9
73
5
74
0
42
0.000000001
43
0.0000000001
44
0.0000000001
40
0
40
0
40
0
40
0
40
0.022397192814766296
40
0.044920680679352031
40
0.044920680679352031
40
0.044920680679352031
40
0.044920680679352031
10
-59.829709625244156
20
-88.099058894931233
30
0
10
-59.886825404149633
20
-88.047751282172229
30
0
10
-60.001379030900353
20
-87.944846739257926
30
0
10
-60.154714321558096
20
-87.930393071085831
30
0
10
-60.231597518920914
20
-87.923145918666279
30
0
0
ENDSEC
0
SECTION
2
OBJECTS
0
DICTIONARY
5
C
100
AcDbDictionary
3
ACAD_GROUP
350
D
3
ACAD_MLINESTYLE
350
17
0
DICTIONARY
5
D
100
AcDbDictionary
0
DICTIONARY
5
1A
330
C
100
AcDbDictionary
0
DICTIONARY
5
17
100
AcDbDictionary
0
ENDSEC
0
EOF
