0
SECTION
2
HEADER
9
$INSUNITS
70
4
9
$ACADVER
1
AC1014
9
$HANDSEED
5
FFFF
0
ENDSEC
0
SECTION
2
TABLES
0
TABLE
2
VPORT
5
8
100
AcDbSymbolTable
0
ENDTAB
0
TABLE
2
LTYPE
5
5
100
AcDbSymbolTable
0
LTYPE
5
14
100
AcDbSymbolTableRecord
100
AcDbLinetypeTableRecord
2
BYBLOCK
70
0
0
LTYPE
5
15
100
AcDbSymbolTableRecord
100
AcDbLinetypeTableRecord
2
BYLAYER
70
0
0
ENDTAB
0
TABLE
2
LAYER
5
2
100
AcDbSymbolTable
70
2
0
LAYER
5
50
100
AcDbSymbolTableRecord
100
AcDbLayerTableRecord
2
0
70
0
6
CONTINUOUS
0
ENDTAB
0
TABLE
2
STYLE
5
3
100
AcDbSymbolTable
70
1
0
STYLE
5
11
100
AcDbSymbolTableRecord
100
AcDbTextStyleTableRecord
2
STANDARD
70
0
0
ENDTAB
0
TABLE
2
VIEW
5
6
100
AcDbSymbolTable
70
0
0
ENDTAB
0
TABLE
2
UCS
5
7
100
AcDbSymbolTable
70
0
0
ENDTAB
0
TABLE
2
APPID
5
9
100
AcDbSymbolTable
70
2
0
APPID
5
12
100
AcDbSymbolTableRecord
100
AcDbRegAppTableRecord
2
ACAD
70
0
0
ENDTAB
0
TABLE
2
DIMSTYLE
5
A
100
AcDbSymbolTable
70
1
0
ENDTAB
0
TABLE
2
BLOCK_RECORD
5
1
100
AcDbSymbolTable
70
1
0
BLOCK_RECORD
5
1F
100
AcDbSymbolTableRecord
100
AcDbBlockTableRecord
2
*MODEL_SPACE
0
BLOCK_RECORD
5
1B
100
AcDbSymbolTableRecord
100
AcDbBlockTableRecord
2
*PAPER_SPACE
0
ENDTAB
0
ENDSEC
0
SECTION
2
BLOCKS
0
BLOCK
5
20
100
AcDbEntity
100
AcDbBlockBegin
2
*MODEL_SPACE
0
ENDBLK
5
21
100
AcDbEntity
100
AcDbBlockEnd
0
BLOCK
5
1C
100
AcDbEntity
100
AcDbBlockBegin
2
*PAPER_SPACE
0
ENDBLK
5
1D
100
AcDbEntity
100
AcDbBlockEnd
0
ENDSEC
0
SECTION
2
ENTITIES
0
LWPOLYLINE
5
100
100
AcDbEntity
8
0
100
AcDbPolyline
90
24
70
1
43
0.0
10
-118.06213203435597
20
52.850000000000009
10
-137.93786796564405
20
52.850000000000023
10
-142.84999999999999
20
47.93786796564406
10
-142.84999999999999
20
-47.937867965644031
10
-137.93786796564402
20
-52.850000000000023
10
-118.06213203435597
20
-52.850000000000023
10
-113.06213203435597
20
-47.850000000000023
10
-14.937867965644038
20
-47.850000000000023
10
-9.9378679656440347
20
-52.850000000000023
10
9.9378679656440294
20
-52.850000000000023
10
14.937867965644029
20
-47.850000000000023
10
113.06213203435597
20
-47.850000000000023
10
118.06213203435597
20
-52.850000000000023
10
137.93786796564402
20
-52.850000000000023
10
142.84999999999999
20
-47.937867965644053
10
142.84999999999999
20
47.937867965644053
10
137.93786796564402
20
52.850000000000023
10
118.06213203435595
20
52.850000000000023
10
113.06213203435597
20
47.850000000000023
10
14.937867965644021
20
47.85000000000003
10
9.9378679656440347
20
52.850000000000023
10
-9.9378679656440294
20
52.850000000000023
10
-14.937867965644029
20
47.850000000000023
10
-113.06213203435597
20
47.850000000000009
0
LWPOLYLINE
5
101
100
AcDbEntity
8
0
100
AcDbPolyline
90
4
70
1
43
0.0
10
67.693724999776094
20
45.09881
10
70.693724999776094
20
45.09881
10
70.693724999776094
20
31.098809999999997
10
67.693724999776094
20
31.098809999999997
0
LWPOLYLINE
5
102
100
AcDbEntity
8
0
100
AcDbPolyline
90
4
70
1
43
0.0
10
93.749949999999998
20
45.09881
10
96.749950000000013
20
45.09881
10
96.749950000000013
20
31.098809999999997
10
93.749949999999998
20
31.098809999999997
0
LWPOLYLINE
5
103
100
AcDbEntity
8
0
100
AcDbPolyline
90
4
70
1
43
0.0
10
22.934739064670666
20
31.100636975441759
10
19.934739064670662
20
31.100603160899674
10
19.934739064670662
20
45.100603160899681
10
22.934739064670666
20
45.100603160899681
0
LWPOLYLINE
5
104
100
AcDbEntity
8
0
100
AcDbPolyline
90
4
70
1
43
0.0
10
117.563185
20
45.09881
10
120.56318500000002
20
45.09881
10
120.56318500000002
20
31.098809999999997
10
117.563185
20
31.098809999999997
0
LWPOLYLINE
5
105
100
AcDbEntity
8
0
100
AcDbPolyline
90
12
70
1
43
0.0
10
52.243949999552193
20
46.070435000328587
10
62.044949999552195
20
46.070435000328587
10
62.044949999552195
20
30.130435000328582
10
52.243949999552193
20
30.130435000328582
10
52.243950000000019
20
31.100809999999992
10
38.285343943810005
20
31.100809999999992
10
38.285343943810005
20
30.130434999999991
10
28.444000000000031
20
30.130434999999991
10
28.444000000000031
20
46.070434999999996
10
38.285343943810005
20
46.070434999999996
10
38.285343943810005
20
45.099809999999998
10
52.243950000000019
20
45.099809999999998
0
CIRCLE
5
106
100
AcDbEntity
8
0
100
AcDbCircle
10
-90.487499999999997
20
14.287599999999994
30
0
40
1.1279999999999999
210
0
220
0
230
1
0
CIRCLE
5
107
100
AcDbEntity
8
0
100
AcDbCircle
10
-100.01249999999999
20
14.287599999999994
30
0
40
1.1279999999999999
210
0
220
0
230
1
0
LWPOLYLINE
5
108
100
AcDbEntity
8
0
100
AcDbPolyline
90
4
70
1
43
0.0
10
-96.75
20
19.050099999999993
10
-93.75
20
19.050099999999993
10
-93.75
20
9.525099999999993
10
-96.75
20
9.525099999999993
0
CIRCLE
5
109
100
AcDbEntity
8
0
100
AcDbCircle
10
-128
20
50.500000000000014
30
0
40
1.1279999999999999
210
0
220
0
230
1
0
CIRCLE
5
110
100
AcDbEntity
8
0
100
AcDbCircle
10
127.99999999999999
20
-50.500000000000014
30
0
40
1.1279999999999999
210
0
220
0
230
1
0
CIRCLE
5
111
100
AcDbEntity
8
0
100
AcDbCircle
10
0
20
50.500000000000014
30
0
40
1.1279999999999999
210
0
220
0
230
1
0
CIRCLE
5
112
100
AcDbEntity
8
0
100
AcDbCircle
10
-128
20
-50.500000000000014
30
0
40
1.1279999999999999
210
0
220
0
230
1
0
CIRCLE
5
113
100
AcDbEntity
8
0
100
AcDbCircle
10
0
20
-50.500000000000014
30
0
40
1.1279999999999999
210
0
220
0
230
1
0
CIRCLE
5
114
100
AcDbEntity
8
0
100
AcDbCircle
10
127.99999999999999
20
50.500000000000014
30
0
40
1.1279999999999999
210
0
220
0
230
1
0
LWPOLYLINE
5
115
100
AcDbEntity
8
0
100
AcDbPolyline
90
4
70
1
43
0.0
10
-88.250499999999988
20
-31.100350000000006
10
-88.250499999999988
20
-45.099649999999997
10
-102.24950000000001
20
-45.099649999999997
10
-102.24950000000001
20
-31.100350000000006
0
LWPOLYLINE
5
116
100
AcDbEntity
8
0
100
AcDbPolyline
90
4
70
1
43
0.0
10
-102.24950000000001
20
21.575349999999993
10
-102.24950000000001
20
35.574849999999998
10
-88.250499999999988
20
35.574849999999998
10
-88.250499999999988
20
21.575349999999993
0
LWPOLYLINE
5
117
100
AcDbEntity
8
0
100
AcDbPolyline
90
4
70
1
43
0.0
10
-64.149500000000032
20
-45.099649999999997
10
-64.149500000000032
20
-31.100350000000006
10
-50.150500000000008
20
-31.100350000000006
10
-50.150500000000008
20
-45.099649999999997
0
LWPOLYLINE
5
118
100
AcDbEntity
8
0
100
AcDbPolyline
90
4
70
1
43
0.0
10
123.96896999999998
20
45.099809999999998
10
137.96996999999999
20
45.099809999999998
10
137.96996999999999
20
31.098809999999997
10
123.96896999999998
20
31.098809999999997
0
LWPOLYLINE
5
119
100
AcDbEntity
8
0
100
AcDbPolyline
90
4
70
1
43
0.0
10
6.9994999999999941
20
-45.099649999999997
10
-6.9994999999999941
20
-45.099649999999997
10
-6.9994999999999941
20
-31.100350000000006
10
6.9994999999999941
20
-31.100350000000006
0
LWPOLYLINE
5
120
100
AcDbEntity
8
0
100
AcDbPolyline
90
4
70
1
43
0.0
10
100.15640000000002
20
45.099809999999998
10
114.15740000000001
20
45.099809999999998
10
114.15740000000001
20
31.098809999999997
10
100.15640000000002
20
31.098809999999997
0
LWPOLYLINE
5
121
100
AcDbEntity
8
0
100
AcDbPolyline
90
4
70
1
43
0.0
10
-45.09950000000002
20
-45.099649999999997
10
-45.09950000000002
20
-31.100350000000006
10
-31.100499999999993
20
-31.100350000000006
10
-31.100499999999993
20
-45.099649999999997
0
LWPOLYLINE
5
122
100
AcDbEntity
8
0
100
AcDbPolyline
90
4
70
1
43
0.0
10
-43.006499999999988
20
31.100349999999995
10
-57.005500000000012
20
31.100349999999995
10
-57.005500000000012
20
45.099809999999998
10
-43.006499999999988
20
45.099809999999998
0
LWPOLYLINE
5
123
100
AcDbEntity
8
0
100
AcDbPolyline
90
4
70
1
43
0.0
10
-121.29950000000002
20
45.099809999999998
10
-107.3005
20
45.099809999999998
10
-107.3005
20
31.100349999999995
10
-121.29950000000002
20
31.100349999999995
0
LWPOLYLINE
5
124
100
AcDbEntity
8
0
100
AcDbPolyline
90
4
70
1
43
0.0
10
-88.250499999999988
20
-12.050350000000005
10
-88.250499999999988
20
-26.04965
10
-102.24950000000001
20
-26.04965
10
-102.24950000000001
20
-12.050350000000005
0
LWPOLYLINE
5
125
100
AcDbEntity
8
0
100
AcDbPolyline
90
4
70
1
43
0.0
10
121.29979999999998
20
-45.099649999999997
10
107.3005
20
-45.099649999999997
10
107.3005
20
-31.100350000000006
10
121.29979999999998
20
-31.100350000000006
0
LWPOLYLINE
5
126
100
AcDbEntity
8
0
100
AcDbPolyline
90
4
70
1
43
0.0
10
-26.049500000000005
20
-26.04965
10
-26.049500000000005
20
-12.050350000000005
10
-12.050500000000017
20
-12.050350000000005
10
-12.050500000000017
20
-26.04965
0
LWPOLYLINE
5
127
100
AcDbEntity
8
0
100
AcDbPolyline
90
4
70
1
43
0.0
10
12.050500000000017
20
-12.050350000000005
10
26.051500000000001
20
-12.050350000000005
10
26.051500000000001
20
-26.04965
10
12.050500000000017
20
-26.04965
0
LWPOLYLINE
5
128
100
AcDbEntity
8
0
100
AcDbPolyline
90
4
70
1
43
0.0
10
26.051500000000001
20
-31.100350000000006
10
26.051500000000001
20
-45.099649999999997
10
12.050500000000017
20
-45.099649999999997
10
12.050500000000017
20
-31.100350000000006
0
LWPOLYLINE
5
129
100
AcDbEntity
8
0
100
AcDbPolyline
90
4
70
1
43
0.0
10
-31.100499999999993
20
12.050449999999998
10
-45.09950000000002
20
12.050449999999998
10
-45.09950000000002
20
26.049849999999996
10
-31.100499999999993
20
26.049849999999996
0
LWPOLYLINE
5
130
100
AcDbEntity
8
0
100
AcDbPolyline
90
4
70
1
43
0.0
10
-126.35050000000001
20
21.575349999999993
10
-140.34950000000003
20
21.575349999999993
10
-140.34950000000003
20
35.574849999999998
10
-126.35050000000001
20
35.574849999999998
0
LWPOLYLINE
5
131
100
AcDbEntity
8
0
100
AcDbPolyline
90
4
70
1
43
0.0
10
-26.049500000000005
20
-45.099649999999997
10
-26.049500000000005
20
-31.100350000000006
10
-12.050500000000017
20
-31.100350000000006
10
-12.050500000000017
20
-45.099649999999997
0
LWPOLYLINE
5
132
100
AcDbEntity
8
0
100
AcDbPolyline
90
4
70
1
43
0.0
10
-83.1995
20
-45.099649999999997
10
-83.1995
20
-31.100350000000006
10
-69.200499999999977
20
-31.100350000000006
10
-69.200499999999977
20
-45.099649999999997
0
LWPOLYLINE
5
133
100
AcDbEntity
8
0
100
AcDbPolyline
90
4
70
1
43
0.0
10
-126.35050000000001
20
-31.100350000000006
10
-126.35050000000001
20
-45.099649999999997
10
-140.34950000000003
20
-45.099649999999997
10
-140.34950000000003
20
-31.100350000000006
0
LWPOLYLINE
5
134
100
AcDbEntity
8
0
100
AcDbPolyline
90
4
70
1
43
0.0
10
-107.3005
20
-31.100350000000006
10
-107.3005
20
-45.099649999999997
10
-121.29950000000002
20
-45.099649999999997
10
-121.29950000000002
20
-31.100350000000006
0
LWPOLYLINE
5
135
100
AcDbEntity
8
0
100
AcDbPolyline
90
4
70
1
43
0.0
10
31.100499999999993
20
-45.099649999999997
10
31.100499999999993
20
-31.100350000000006
10
45.101199999999992
20
-31.100350000000006
10
45.101199999999992
20
-45.099649999999997
0
LWPOLYLINE
5
136
100
AcDbEntity
8
0
100
AcDbPolyline
90
4
70
1
43
0.0
10
-83.1995
20
26.049849999999996
10
-69.200499999999977
20
26.049849999999996
10
-69.200499999999977
20
12.050449999999998
10
-83.1995
20
12.050449999999998
0
LWPOLYLINE
5
137
100
AcDbEntity
8
0
100
AcDbPolyline
90
4
70
1
43
0.0
10
102.24980000000001
20
12.050449999999998
10
88.250500000000017
20
12.050449999999998
10
88.250500000000017
20
26.049849999999996
10
102.24980000000001
20
26.049849999999996
0
LWPOLYLINE
5
138
100
AcDbEntity
8
0
100
AcDbPolyline
90
4
70
1
43
0.0
10
64.149800000000013
20
12.050449999999998
10
50.150500000000008
20
12.050449999999998
10
50.150500000000008
20
26.049849999999996
10
64.149800000000013
20
26.049849999999996
0
LWPOLYLINE
5
139
100
AcDbEntity
8
0
100
AcDbPolyline
90
4
70
1
43
0.0
10
-26.049500000000005
20
12.050449999999998
10
-26.049500000000005
20
26.049849999999996
10
-12.050500000000017
20
26.049849999999996
10
-12.050500000000017
20
12.050449999999998
0
LWPOLYLINE
5
140
100
AcDbEntity
8
0
100
AcDbPolyline
90
4
70
1
43
0.0
10
69.200500000000019
20
26.049849999999996
10
83.19980000000001
20
26.049849999999996
10
83.19980000000001
20
12.050449999999998
10
69.200500000000019
20
12.050449999999998
0
LWPOLYLINE
5
141
100
AcDbEntity
8
0
100
AcDbPolyline
90
4
70
1
43
0.0
10
126.35030000000002
20
6.9996499999999973
10
140.34985
20
6.9996499999999973
10
140.34985
20
-6.9996500000000061
10
126.35030000000002
20
-6.9996500000000061
0
LWPOLYLINE
5
142
100
AcDbEntity
8
0
100
AcDbPolyline
90
4
70
1
43
0.0
10
-121.29950000000002
20
26.049849999999996
10
-107.3005
20
26.049849999999996
10
-107.3005
20
12.050449999999998
10
-121.29950000000002
20
12.050449999999998
0
LWPOLYLINE
5
143
100
AcDbEntity
8
0
100
AcDbPolyline
90
4
70
1
43
0.0
10
69.200500000000019
20
-26.04965
10
69.200500000000019
20
-12.050350000000005
10
83.19980000000001
20
-12.050350000000005
10
83.19980000000001
20
-26.04965
0
LWPOLYLINE
5
144
100
AcDbEntity
8
0
100
AcDbPolyline
90
12
70
1
43
0.0
10
107.02455
20
27.019950000000001
10
116.82554999999999
20
27.019950000000147
10
116.82554999999999
20
26.049849999999996
10
130.824625
20
26.049849999999996
10
130.824625
20
27.019950000000001
10
140.62562500000001
20
27.019950000000009
10
140.62562500000001
20
11.079950000000007
10
130.824625
20
11.079949999999998
10
130.824625
20
12.050449999999998
10
116.82554999999999
20
12.050449999999998
10
116.82554999999999
20
11.079950000000142
10
107.02455
20
11.079950000000133
0
LWPOLYLINE
5
145
100
AcDbEntity
8
0
100
AcDbPolyline
90
4
70
1
43
0.0
10
-69.200499999999977
20
6.9996499999999973
10
-69.200499999999977
20
-6.9996500000000061
10
-83.1995
20
-6.9996500000000061
10
-83.1995
20
6.9996499999999973
0
LWPOLYLINE
5
146
100
AcDbEntity
8
0
100
AcDbPolyline
90
4
70
1
43
0.0
10
-45.09950000000002
20
6.9996499999999973
10
-31.100499999999993
20
6.9996499999999973
10
-31.100499999999993
20
-6.9996500000000061
10
-45.09950000000002
20
-6.9996500000000061
0
LWPOLYLINE
5
147
100
AcDbEntity
8
0
100
AcDbPolyline
90
4
70
1
43
0.0
10
-45.09950000000002
20
-26.04965
10
-45.09950000000002
20
-12.050350000000005
10
-31.100499999999993
20
-12.050350000000005
10
-31.100499999999993
20
-26.04965
0
LWPOLYLINE
5
148
100
AcDbEntity
8
0
100
AcDbPolyline
90
4
70
1
43
0.0
10
102.24980000000001
20
-31.100350000000006
10
102.24980000000001
20
-45.099649999999997
10
88.250500000000017
20
-45.099649999999997
10
88.250500000000017
20
-31.100350000000006
0
LWPOLYLINE
5
149
100
AcDbEntity
8
0
100
AcDbPolyline
90
12
70
1
43
0.0
10
-116.82550000000001
20
6.9996499999999973
10
-116.82549999999999
20
7.9700000000000015
10
-107.02450000000042
20
7.9700000000019022
10
-107.02450000000016
20
-7.9699999999981035
10
-116.82549999999999
20
-7.9699999999981124
10
-116.82550000000001
20
-6.9996500000000061
10
-130.82450000000003
20
-6.9996500000000061
10
-130.82449999999875
20
-7.9700000000171958
10
-140.62549999999999
20
-7.9700000000172047
10
-140.62549999999999
20
7.9700000000000024
10
-130.82450000000185
20
7.9699999999828099
10
-130.82450000000003
20
6.9996499999999973
0
LWPOLYLINE
5
150
100
AcDbEntity
8
0
100
AcDbPolyline
90
4
70
1
43
0.0
10
12.050500000000017
20
-6.9996500000000061
10
12.050500000000017
20
6.9996499999999973
10
26.051500000000001
20
6.9996499999999973
10
26.051500000000001
20
-6.9996500000000061
0
LWPOLYLINE
5
151
100
AcDbEntity
8
0
100
AcDbPolyline
90
4
70
1
43
0.0
10
102.24980000000001
20
6.9996499999999973
10
102.24980000000001
20
-6.9996500000000061
10
88.250500000000017
20
-6.9996500000000061
10
88.250500000000017
20
6.9996499999999973
0
LWPOLYLINE
5
152
100
AcDbEntity
8
0
100
AcDbPolyline
90
4
70
1
43
0.0
10
50.150500000000008
20
6.9996499999999973
10
64.149800000000013
20
6.9996499999999973
10
64.149800000000013
20
-6.9996500000000061
10
50.150500000000008
20
-6.9996500000000061
0
LWPOLYLINE
5
153
100
AcDbEntity
8
0
100
AcDbPolyline
90
4
70
1
43
0.0
10
83.19980000000001
20
-6.9996500000000061
10
69.200500000000019
20
-6.9996500000000061
10
69.200500000000019
20
6.9996499999999973
10
83.19980000000001
20
6.9996499999999973
0
LWPOLYLINE
5
154
100
AcDbEntity
8
0
100
AcDbPolyline
90
4
70
1
43
0.0
10
121.29979999999998
20
-6.9996500000000061
10
107.3005
20
-6.9996500000000061
10
107.3005
20
6.9996499999999973
10
121.29979999999998
20
6.9996499999999973
0
LWPOLYLINE
5
155
100
AcDbEntity
8
0
100
AcDbPolyline
90
4
70
1
43
0.0
10
26.051500000000001
20
26.049849999999996
10
26.051500000000001
20
12.050449999999998
10
12.050500000000017
20
12.050449999999998
10
12.050500000000017
20
26.049849999999996
0
LWPOLYLINE
5
156
100
AcDbEntity
8
0
100
AcDbPolyline
90
4
70
1
43
0.0
10
6.9994999999999941
20
-12.050350000000005
10
6.9994999999999941
20
-26.04965
10
-6.9994999999999941
20
-26.04965
10
-6.9994999999999941
20
-12.050350000000005
0
LWPOLYLINE
5
157
100
AcDbEntity
8
0
100
AcDbPolyline
90
4
70
1
43
0.0
10
-140.34950000000003
20
-12.050350000000005
10
-126.35050000000001
20
-12.050350000000005
10
-126.35050000000001
20
-26.04965
10
-140.34950000000003
20
-26.04965
0
LWPOLYLINE
5
158
100
AcDbEntity
8
0
100
AcDbPolyline
90
4
70
1
43
0.0
10
69.200500000000019
20
-31.100350000000006
10
83.19980000000001
20
-31.100350000000006
10
83.19980000000001
20
-45.099649999999997
10
69.200500000000019
20
-45.099649999999997
0
LWPOLYLINE
5
159
100
AcDbEntity
8
0
100
AcDbPolyline
90
4
70
1
43
0.0
10
64.149800000000013
20
-31.100350000000006
10
64.149800000000013
20
-45.099649999999997
10
50.150500000000008
20
-45.099649999999997
10
50.150500000000008
20
-31.100350000000006
0
LWPOLYLINE
5
160
100
AcDbEntity
8
0
100
AcDbPolyline
90
4
70
1
43
0.0
10
-26.049500000000005
20
-6.9996500000000061
10
-26.049500000000005
20
6.9996499999999973
10
-12.050500000000017
20
6.9996499999999973
10
-12.050500000000017
20
-6.9996500000000061
0
LWPOLYLINE
5
161
100
AcDbEntity
8
0
100
AcDbPolyline
90
4
70
1
43
0.0
10
-6.9994999999999941
20
6.9996499999999973
10
6.9994999999999941
20
6.9996499999999973
10
6.9994999999999941
20
-6.9996500000000061
10
-6.9994999999999941
20
-6.9996500000000061
0
LWPOLYLINE
5
162
100
AcDbEntity
8
0
100
AcDbPolyline
90
4
70
1
43
0.0
10
45.101199999999992
20
-6.9996500000000061
10
31.100499999999993
20
-6.9996500000000061
10
31.100499999999993
20
6.9996499999999973
10
45.101199999999992
20
6.9996499999999973
0
LWPOLYLINE
5
163
100
AcDbEntity
8
0
100
AcDbPolyline
90
4
70
1
43
0.0
10
-64.149500000000032
20
-26.04965
10
-64.149500000000032
20
-12.050350000000005
10
-50.150500000000008
20
-12.050350000000005
10
-50.150500000000008
20
-26.04965
0
LWPOLYLINE
5
164
100
AcDbEntity
8
0
100
AcDbPolyline
90
4
70
1
43
0.0
10
88.250500000000017
20
-12.050350000000005
10
102.24980000000001
20
-12.050350000000005
10
102.24980000000001
20
-26.04965
10
88.250500000000017
20
-26.04965
0
LWPOLYLINE
5
165
100
AcDbEntity
8
0
100
AcDbPolyline
90
4
70
1
43
0.0
10
64.149800000000013
20
-12.050350000000005
10
64.149800000000013
20
-26.04965
10
50.150500000000008
20
-26.04965
10
50.150500000000008
20
-12.050350000000005
0
LWPOLYLINE
5
166
100
AcDbEntity
8
0
100
AcDbPolyline
90
4
70
1
43
0.0
10
-107.3005
20
-26.04965
10
-121.29950000000002
20
-26.04965
10
-121.29950000000002
20
-12.050350000000005
10
-107.3005
20
-12.050350000000005
0
LWPOLYLINE
5
167
100
AcDbEntity
8
0
100
AcDbPolyline
90
4
70
1
43
0.0
10
126.35030000000002
20
-45.099649999999997
10
126.35030000000002
20
-31.100350000000006
10
140.34985
20
-31.100350000000006
10
140.34985
20
-45.099649999999997
0
LWPOLYLINE
5
168
100
AcDbEntity
8
0
100
AcDbPolyline
90
4
70
1
43
0.0
10
-83.1995
20
-26.04965
10
-83.1995
20
-12.050350000000005
10
-69.200499999999977
20
-12.050350000000005
10
-69.200499999999977
20
-26.04965
0
LWPOLYLINE
5
169
100
AcDbEntity
8
0
100
AcDbPolyline
90
4
70
1
43
0.0
10
45.101199999999992
20
-12.050350000000005
10
45.101199999999992
20
-26.04965
10
31.100499999999993
20
-26.04965
10
31.100499999999993
20
-12.050350000000005
0
LWPOLYLINE
5
170
100
AcDbEntity
8
0
100
AcDbPolyline
90
4
70
1
43
0.0
10
-102.24950000000001
20
-6.9996500000000061
10
-102.24950000000001
20
6.9996499999999973
10
-88.250499999999988
20
6.9996499999999973
10
-88.250499999999988
20
-6.9996500000000061
0
LWPOLYLINE
5
171
100
AcDbEntity
8
0
100
AcDbPolyline
90
4
70
1
43
0.0
10
76.342500000000001
20
45.099809999999998
10
90.343500000000006
20
45.099809999999998
10
90.343500000000006
20
31.098809999999997
10
76.342500000000001
20
31.098809999999997
0
LWPOLYLINE
5
172
100
AcDbEntity
8
0
100
AcDbPolyline
90
12
70
1
43
0.0
10
130.824625
20
-12.050350000000005
10
130.824625
20
-11.080000000000002
10
140.62562500000001
20
-11.080000000000002
10
140.62562500000001
20
-27.020000000000003
10
130.824625
20
-27.020000000000003
10
130.824625
20
-26.04965
10
116.82555000000001
20
-26.04965
10
116.82555000000001
20
-27.019999999999996
10
107.02455
20
-27.019999999999996
10
107.02455
20
-11.080000000000002
10
116.82555000000001
20
-11.079999999999991
10
116.82555000000001
20
-12.050350000000005
0
LWPOLYLINE
5
173
100
AcDbEntity
8
0
100
AcDbPolyline
90
4
70
1
43
0.0
10
-66.817500000000024
20
31.100349999999995
10
-80.818499999999972
20
31.100349999999995
10
-80.818499999999972
20
45.099809999999998
10
-66.817500000000024
20
45.099809999999998
0
LWPOLYLINE
5
174
100
AcDbEntity
8
0
100
AcDbPolyline
90
4
70
1
43
0.0
10
6.9994999999999941
20
26.049849999999996
10
6.9994999999999941
20
12.050449999999998
10
-6.9994999999999941
20
12.050449999999998
10
-6.9994999999999941
20
26.049849999999996
0
LWPOLYLINE
5
175
100
AcDbEntity
8
0
100
AcDbPolyline
90
4
70
1
43
0.0
10
31.100499999999993
20
12.050449999999998
10
31.100499999999993
20
26.049849999999996
10
45.101199999999992
20
26.049849999999996
10
45.101199999999992
20
12.050449999999998
0
LWPOLYLINE
5
176
100
AcDbEntity
8
0
100
AcDbPolyline
90
4
70
1
43
0.0
10
-64.149500000000032
20
26.049849999999996
10
-50.150500000000008
20
26.049849999999996
10
-50.150500000000008
20
12.050449999999998
10
-64.149500000000032
20
12.050449999999998
0
LWPOLYLINE
5
177
100
AcDbEntity
8
0
100
AcDbPolyline
90
4
70
1
43
0.0
10
-50.150500000000008
20
6.9996499999999973
10
-50.150500000000008
20
-6.9996500000000061
10
-64.149500000000032
20
-6.9996500000000061
10
-64.149500000000032
20
6.9996499999999973
0
LWPOLYLINE
5
178
100
AcDbEntity
8
0
100
AcDbPolyline
90
4
70
1
43
0.0
10
-36.603500000000004
20
31.100349999999995
10
-39.603500000000011
20
31.100349999999995
10
-39.603500000000011
20
45.099809999999998
10
-36.603500000000004
20
45.099809999999998
0
LWPOLYLINE
5
179
100
AcDbEntity
8
0
100
AcDbPolyline
90
4
70
1
43
0.0
10
-84.534500000000008
20
45.099809999999998
10
-84.534500000000008
20
38.937227774699025
10
-103.58449999999998
20
38.937227774699025
10
-103.58449999999998
20
45.099809999999998
0
LWPOLYLINE
5
180
100
AcDbEntity
8
0
100
AcDbPolyline
90
4
70
1
43
0.0
10
-63.411500000000025
20
45.099809999999998
10
-60.411500000000025
20
45.099809999999998
10
-60.411500000000025
20
31.100349999999995
10
-63.411500000000025
20
31.100349999999995
0
LWPOLYLINE
5
181
100
AcDbEntity
8
0
100
AcDbPolyline
90
4
70
1
43
0.0
10
-125.01550000000006
20
10.21297222530098
10
-140.34950000000003
20
10.21297222530098
10
-140.34950000000003
20
18.21297222530097
10
-125.01550000000006
20
18.21297222530097
0
LWPOLYLINE
5
182
100
AcDbEntity
8
0
100
AcDbPolyline
90
4
70
1
43
0.0
10
-125.01550000000006
20
45.099809999999998
10
-125.01550000000006
20
38.937227774699025
10
-140.34950000000003
20
38.937227774699025
10
-140.34950000000003
20
45.099809999999998
0
LWPOLYLINE
5
183
100
AcDbEntity
8
0
100
AcDbPolyline
90
12
70
1
43
0.0
10
-2.5255000000000116
20
45.099809999999998
10
-2.5255000000000116
20
46.0704349999789
10
14.425500000000024
20
46.0704349999789
10
14.425500000000024
20
30.130149999999993
10
-2.5255000000000116
20
30.130149999978897
10
-2.5255000000000116
20
31.100349999999995
10
-16.5245
20
31.100349999999995
10
-16.5245
20
30.130149999978897
10
-33.475500000000039
20
30.130149999999993
10
-33.475500000000039
20
46.0704349999789
10
-16.5245
20
46.0704349999789
10
-16.5245
20
45.099809999999998
0
ENDSEC
0
SECTION
2
OBJECTS
0
DICTIONARY
5
C
100
AcDbDictionary
3
ACAD_GROUP
350
D
3
ACAD_MLINESTYLE
350
17
0
DICTIONARY
5
D
100
AcDbDictionary
0
DICTIONARY
5
1A
330
C
100
AcDbDictionary
0
DICTIONARY
5
17
100
AcDbDictionary
0
ENDSEC
0
EOF
