0
SECTION
2
HEADER
9
$INSUNITS
70
4
0
ENDSEC
0
SECTION
2
TABLES
0
TABLE
2
LTYPE
0
LTYPE
72
65
70
64
2
CONTINUOUS
3
______
73
0
40
0
0
ENDTAB
0
TABLE
2
LAYER
0
ENDTAB
0
ENDSEC
0
SECTION
2
ENTITIES
0
LINE
8
0
10
40.625
20
-2.525
11
54.625
21
-2.525
0
LINE
8
0
10
40.625
20
-16.525
11
54.625
21
-16.525
0
LINE
8
0
10
40.625
20
-2.525
11
40.625
21
-16.525
0
LINE
8
0
10
54.625
20
-2.525
11
54.625
21
-16.525
0
LINE
8
0
10
59.675
20
-2.525
11
73.675
21
-2.525
0
LINE
8
0
10
59.675
20
-16.525
11
73.675
21
-16.525
0
LINE
8
0
10
59.675
20
-2.525
11
59.675
21
-16.525
0
LINE
8
0
10
73.675
20
-2.525
11
73.675
21
-16.525
0
LINE
8
0
10
78.725
20
-2.525
11
92.725
21
-2.525
0
LINE
8
0
10
78.725
20
-16.525
11
92.725
21
-16.525
0
LINE
8
0
10
78.725
20
-2.525
11
78.725
21
-16.525
0
LINE
8
0
10
92.725
20
-2.525
11
92.725
21
-16.525
0
LINE
8
0
10
97.775
20
-2.525
11
111.775
21
-2.525
0
LINE
8
0
10
97.775
20
-16.525
11
111.775
21
-16.525
0
LINE
8
0
10
97.775
20
-2.525
11
97.775
21
-16.525
0
LINE
8
0
10
111.775
20
-2.525
11
111.775
21
-16.525
0
LINE
8
0
10
116.825
20
-2.525
11
130.825
21
-2.525
0
LINE
8
0
10
116.825
20
-16.525
11
130.825
21
-16.525
0
LINE
8
0
10
116.825
20
-2.525
11
116.825
21
-16.525
0
LINE
8
0
10
130.825
20
-2.525
11
130.825
21
-16.525
0
LINE
8
0
10
135.875
20
-2.525
11
149.875
21
-2.525
0
LINE
8
0
10
135.875
20
-16.525
11
149.875
21
-16.525
0
LINE
8
0
10
135.875
20
-2.525
11
135.875
21
-16.525
0
LINE
8
0
10
149.875
20
-2.525
11
149.875
21
-16.525
0
LINE
8
0
10
154.925
20
-2.525
11
168.925
21
-2.525
0
LINE
8
0
10
154.925
20
-16.525
11
168.925
21
-16.525
0
LINE
8
0
10
154.925
20
-2.525
11
154.925
21
-16.525
0
LINE
8
0
10
168.925
20
-2.525
11
168.925
21
-16.525
0
LINE
8
0
10
173.975
20
-2.525
11
187.975
21
-2.525
0
LINE
8
0
10
173.975
20
-16.525
11
187.975
21
-16.525
0
LINE
8
0
10
173.975
20
-2.525
11
173.975
21
-16.525
0
LINE
8
0
10
187.975
20
-2.525
11
187.975
21
-16.525
0
LINE
8
0
10
193.025
20
-2.525
11
207.025
21
-2.525
0
LINE
8
0
10
193.025
20
-16.525
11
207.025
21
-16.525
0
LINE
8
0
10
193.025
20
-2.525
11
193.025
21
-16.525
0
LINE
8
0
10
207.025
20
-2.525
11
207.025
21
-16.525
0
LINE
8
0
10
212.075
20
-2.525
11
226.075
21
-2.525
0
LINE
8
0
10
212.075
20
-16.525
11
226.075
21
-16.525
0
LINE
8
0
10
212.075
20
-2.525
11
212.075
21
-16.525
0
LINE
8
0
10
226.075
20
-2.525
11
226.075
21
-16.525
0
LINE
8
0
10
231.125
20
-2.525
11
245.125
21
-2.525
0
LINE
8
0
10
231.125
20
-16.525
11
245.125
21
-16.525
0
LINE
8
0
10
231.125
20
-2.525
11
231.125
21
-16.525
0
LINE
8
0
10
245.125
20
-2.525
11
245.125
21
-16.525
0
LINE
8
0
10
250.175
20
-2.525
11
264.175
21
-2.525
0
LINE
8
0
10
250.175
20
-16.525
11
264.175
21
-16.525
0
LINE
8
0
10
250.175
20
-2.525
11
250.175
21
-16.525
0
LINE
8
0
10
264.175
20
-2.525
11
264.175
21
-16.525
0
LINE
8
0
10
269.225
20
-2.525
11
283.225
21
-2.525
0
LINE
8
0
10
269.225
20
-16.525
11
283.225
21
-16.525
0
LINE
8
0
10
269.225
20
-2.525
11
269.225
21
-16.525
0
LINE
8
0
10
283.225
20
-2.525
11
283.225
21
-16.525
0
LINE
8
0
10
288.275
20
-2.525
11
302.275
21
-2.525
0
LINE
8
0
10
288.275
20
-16.525
11
302.275
21
-16.525
0
LINE
8
0
10
288.275
20
-2.525
11
288.275
21
-16.525
0
LINE
8
0
10
302.275
20
-2.525
11
302.275
21
-16.525
0
LINE
8
0
10
307.325
20
-2.525
11
321.325
21
-2.525
0
LINE
8
0
10
307.325
20
-16.525
11
321.325
21
-16.525
0
LINE
8
0
10
307.325
20
-2.525
11
307.325
21
-16.525
0
LINE
8
0
10
321.325
20
-2.525
11
321.325
21
-16.525
0
LINE
8
0
10
2.525
20
-21.575
11
16.525
21
-21.575
0
LINE
8
0
10
2.525
20
-35.575
11
16.525
21
-35.575
0
LINE
8
0
10
2.525
20
-21.575
11
2.525
21
-35.575
0
LINE
8
0
10
16.525
20
-21.575
11
16.525
21
-35.575
0
LINE
8
0
10
21.575
20
-21.575
11
35.575
21
-21.575
0
LINE
8
0
10
21.575
20
-35.575
11
35.575
21
-35.575
0
LINE
8
0
10
21.575
20
-21.575
11
21.575
21
-35.575
0
LINE
8
0
10
35.575
20
-21.575
11
35.575
21
-35.575
0
LINE
8
0
10
50.15
20
-21.575
11
64.15
21
-21.575
0
LINE
8
0
10
50.15
20
-35.575
11
64.15
21
-35.575
0
LINE
8
0
10
50.15
20
-21.575
11
50.15
21
-35.575
0
LINE
8
0
10
64.15
20
-21.575
11
64.15
21
-35.575
0
LINE
8
0
10
41.837
20
-22.575
11
48.587
21
-22.575
0
LINE
8
0
10
41.837
20
-36.575
11
48.587
21
-36.575
0
LINE
8
0
10
41.837
20
-22.575
11
41.837
21
-36.575
0
LINE
8
0
10
48.587
20
-22.575
11
48.587
21
-36.575
0
LINE
8
0
10
65.713
20
-22.575
11
72.463
21
-22.575
0
LINE
8
0
10
65.713
20
-36.575
11
72.463
21
-36.575
0
LINE
8
0
10
65.713
20
-22.575
11
65.713
21
-36.575
0
LINE
8
0
10
72.463
20
-22.575
11
72.463
21
-36.575
0
LINE
8
0
10
78.725
20
-21.575
11
92.725
21
-21.575
0
LINE
8
0
10
78.725
20
-35.575
11
92.725
21
-35.575
0
LINE
8
0
10
78.725
20
-21.575
11
78.725
21
-35.575
0
LINE
8
0
10
92.725
20
-21.575
11
92.725
21
-35.575
0
LINE
8
0
10
97.775
20
-21.575
11
111.775
21
-21.575
0
LINE
8
0
10
97.775
20
-35.575
11
111.775
21
-35.575
0
LINE
8
0
10
97.775
20
-21.575
11
97.775
21
-35.575
0
LINE
8
0
10
111.775
20
-21.575
11
111.775
21
-35.575
0
LINE
8
0
10
116.825
20
-21.575
11
130.825
21
-21.575
0
LINE
8
0
10
116.825
20
-35.575
11
130.825
21
-35.575
0
LINE
8
0
10
116.825
20
-21.575
11
116.825
21
-35.575
0
LINE
8
0
10
130.825
20
-21.575
11
130.825
21
-35.575
0
LINE
8
0
10
135.875
20
-21.575
11
149.875
21
-21.575
0
LINE
8
0
10
135.875
20
-35.575
11
149.875
21
-35.575
0
LINE
8
0
10
135.875
20
-21.575
11
135.875
21
-35.575
0
LINE
8
0
10
149.875
20
-21.575
11
149.875
21
-35.575
0
LINE
8
0
10
154.925
20
-21.575
11
168.925
21
-21.575
0
LINE
8
0
10
154.925
20
-35.575
11
168.925
21
-35.575
0
LINE
8
0
10
154.925
20
-21.575
11
154.925
21
-35.575
0
LINE
8
0
10
168.925
20
-21.575
11
168.925
21
-35.575
0
LINE
8
0
10
173.975
20
-21.575
11
187.975
21
-21.575
0
LINE
8
0
10
173.975
20
-35.575
11
187.975
21
-35.575
0
LINE
8
0
10
173.975
20
-21.575
11
173.975
21
-35.575
0
LINE
8
0
10
187.975
20
-21.575
11
187.975
21
-35.575
0
LINE
8
0
10
193.025
20
-21.575
11
207.025
21
-21.575
0
LINE
8
0
10
193.025
20
-35.575
11
207.025
21
-35.575
0
LINE
8
0
10
193.025
20
-21.575
11
193.025
21
-35.575
0
LINE
8
0
10
207.025
20
-21.575
11
207.025
21
-35.575
0
LINE
8
0
10
212.075
20
-21.575
11
226.075
21
-21.575
0
LINE
8
0
10
212.075
20
-35.575
11
226.075
21
-35.575
0
LINE
8
0
10
212.075
20
-21.575
11
212.075
21
-35.575
0
LINE
8
0
10
226.075
20
-21.575
11
226.075
21
-35.575
0
LINE
8
0
10
231.125
20
-21.575
11
245.125
21
-21.575
0
LINE
8
0
10
231.125
20
-35.575
11
245.125
21
-35.575
0
LINE
8
0
10
231.125
20
-21.575
11
231.125
21
-35.575
0
LINE
8
0
10
245.125
20
-21.575
11
245.125
21
-35.575
0
LINE
8
0
10
250.175
20
-21.575
11
264.175
21
-21.575
0
LINE
8
0
10
250.175
20
-35.575
11
264.175
21
-35.575
0
LINE
8
0
10
250.175
20
-21.575
11
250.175
21
-35.575
0
LINE
8
0
10
264.175
20
-21.575
11
264.175
21
-35.575
0
LINE
8
0
10
269.225
20
-21.575
11
283.225
21
-21.575
0
LINE
8
0
10
269.225
20
-35.575
11
283.225
21
-35.575
0
LINE
8
0
10
269.225
20
-21.575
11
269.225
21
-35.575
0
LINE
8
0
10
283.225
20
-21.575
11
283.225
21
-35.575
0
LINE
8
0
10
288.275
20
-21.575
11
302.275
21
-21.575
0
LINE
8
0
10
288.275
20
-35.575
11
302.275
21
-35.575
0
LINE
8
0
10
288.275
20
-21.575
11
288.275
21
-35.575
0
LINE
8
0
10
302.275
20
-21.575
11
302.275
21
-35.575
0
LINE
8
0
10
307.325
20
-21.575
11
321.325
21
-21.575
0
LINE
8
0
10
307.325
20
-35.575
11
321.325
21
-35.575
0
LINE
8
0
10
307.325
20
-21.575
11
307.325
21
-35.575
0
LINE
8
0
10
321.325
20
-21.575
11
321.325
21
-35.575
0
LINE
8
0
10
40.625
20
-40.625
11
54.625
21
-40.625
0
LINE
8
0
10
40.625
20
-54.625
11
54.625
21
-54.625
0
LINE
8
0
10
40.625
20
-40.625
11
40.625
21
-54.625
0
LINE
8
0
10
54.625
20
-40.625
11
54.625
21
-54.625
0
LINE
8
0
10
59.675
20
-40.625
11
73.675
21
-40.625
0
LINE
8
0
10
59.675
20
-54.625
11
73.675
21
-54.625
0
LINE
8
0
10
59.675
20
-40.625
11
59.675
21
-54.625
0
LINE
8
0
10
73.675
20
-40.625
11
73.675
21
-54.625
0
LINE
8
0
10
78.725
20
-40.625
11
92.725
21
-40.625
0
LINE
8
0
10
78.725
20
-54.625
11
92.725
21
-54.625
0
LINE
8
0
10
78.725
20
-40.625
11
78.725
21
-54.625
0
LINE
8
0
10
92.725
20
-40.625
11
92.725
21
-54.625
0
LINE
8
0
10
97.775
20
-40.625
11
111.775
21
-40.625
0
LINE
8
0
10
97.775
20
-54.625
11
111.775
21
-54.625
0
LINE
8
0
10
97.775
20
-40.625
11
97.775
21
-54.625
0
LINE
8
0
10
111.775
20
-40.625
11
111.775
21
-54.625
0
LINE
8
0
10
116.825
20
-40.625
11
130.825
21
-40.625
0
LINE
8
0
10
116.825
20
-54.625
11
130.825
21
-54.625
0
LINE
8
0
10
116.825
20
-40.625
11
116.825
21
-54.625
0
LINE
8
0
10
130.825
20
-40.625
11
130.825
21
-54.625
0
LINE
8
0
10
135.875
20
-40.625
11
149.875
21
-40.625
0
LINE
8
0
10
135.875
20
-54.625
11
149.875
21
-54.625
0
LINE
8
0
10
135.875
20
-40.625
11
135.875
21
-54.625
0
LINE
8
0
10
149.875
20
-40.625
11
149.875
21
-54.625
0
LINE
8
0
10
154.925
20
-40.625
11
168.925
21
-40.625
0
LINE
8
0
10
154.925
20
-54.625
11
168.925
21
-54.625
0
LINE
8
0
10
154.925
20
-40.625
11
154.925
21
-54.625
0
LINE
8
0
10
168.925
20
-40.625
11
168.925
21
-54.625
0
LINE
8
0
10
173.975
20
-40.625
11
187.975
21
-40.625
0
LINE
8
0
10
173.975
20
-54.625
11
187.975
21
-54.625
0
LINE
8
0
10
173.975
20
-40.625
11
173.975
21
-54.625
0
LINE
8
0
10
187.975
20
-40.625
11
187.975
21
-54.625
0
LINE
8
0
10
193.025
20
-40.625
11
207.025
21
-40.625
0
LINE
8
0
10
193.025
20
-54.625
11
207.025
21
-54.625
0
LINE
8
0
10
193.025
20
-40.625
11
193.025
21
-54.625
0
LINE
8
0
10
207.025
20
-40.625
11
207.025
21
-54.625
0
LINE
8
0
10
212.075
20
-40.625
11
226.075
21
-40.625
0
LINE
8
0
10
212.075
20
-54.625
11
226.075
21
-54.625
0
LINE
8
0
10
212.075
20
-40.625
11
212.075
21
-54.625
0
LINE
8
0
10
226.075
20
-40.625
11
226.075
21
-54.625
0
LINE
8
0
10
231.125
20
-40.625
11
245.125
21
-40.625
0
LINE
8
0
10
231.125
20
-54.625
11
245.125
21
-54.625
0
LINE
8
0
10
231.125
20
-40.625
11
231.125
21
-54.625
0
LINE
8
0
10
245.125
20
-40.625
11
245.125
21
-54.625
0
LINE
8
0
10
250.175
20
-40.625
11
264.175
21
-40.625
0
LINE
8
0
10
250.175
20
-54.625
11
264.175
21
-54.625
0
LINE
8
0
10
250.175
20
-40.625
11
250.175
21
-54.625
0
LINE
8
0
10
264.175
20
-40.625
11
264.175
21
-54.625
0
LINE
8
0
10
269.225
20
-40.625
11
283.225
21
-40.625
0
LINE
8
0
10
269.225
20
-54.625
11
283.225
21
-54.625
0
LINE
8
0
10
269.225
20
-40.625
11
269.225
21
-54.625
0
LINE
8
0
10
283.225
20
-40.625
11
283.225
21
-54.625
0
LINE
8
0
10
297.8
20
-40.625
11
311.8
21
-40.625
0
LINE
8
0
10
297.8
20
-54.625
11
311.8
21
-54.625
0
LINE
8
0
10
297.8
20
-40.625
11
297.8
21
-54.625
0
LINE
8
0
10
311.8
20
-40.625
11
311.8
21
-54.625
0
LINE
8
0
10
289.487
20
-41.625
11
296.237
21
-41.625
0
LINE
8
0
10
289.487
20
-55.625
11
296.237
21
-55.625
0
LINE
8
0
10
289.487
20
-41.625
11
289.487
21
-55.625
0
LINE
8
0
10
296.237
20
-41.625
11
296.237
21
-55.625
0
LINE
8
0
10
313.363
20
-41.625
11
320.113
21
-41.625
0
LINE
8
0
10
313.363
20
-55.625
11
320.113
21
-55.625
0
LINE
8
0
10
313.363
20
-41.625
11
313.363
21
-55.625
0
LINE
8
0
10
320.113
20
-41.625
11
320.113
21
-55.625
0
LINE
8
0
10
326.375
20
-40.625
11
340.375
21
-40.625
0
LINE
8
0
10
326.375
20
-54.625
11
340.375
21
-54.625
0
LINE
8
0
10
326.375
20
-40.625
11
326.375
21
-54.625
0
LINE
8
0
10
340.375
20
-40.625
11
340.375
21
-54.625
0
LINE
8
0
10
345.425
20
-40.625
11
359.425
21
-40.625
0
LINE
8
0
10
345.425
20
-54.625
11
359.425
21
-54.625
0
LINE
8
0
10
345.425
20
-40.625
11
345.425
21
-54.625
0
LINE
8
0
10
359.425
20
-40.625
11
359.425
21
-54.625
0
LINE
8
0
10
2.525
20
-59.675
11
16.525
21
-59.675
0
LINE
8
0
10
2.525
20
-73.675
11
16.525
21
-73.675
0
LINE
8
0
10
2.525
20
-59.675
11
2.525
21
-73.675
0
LINE
8
0
10
16.525
20
-59.675
11
16.525
21
-73.675
0
LINE
8
0
10
21.575
20
-59.675
11
35.575
21
-59.675
0
LINE
8
0
10
21.575
20
-73.675
11
35.575
21
-73.675
0
LINE
8
0
10
21.575
20
-59.675
11
21.575
21
-73.675
0
LINE
8
0
10
35.575
20
-59.675
11
35.575
21
-73.675
0
LINE
8
0
10
50.15
20
-59.675
11
64.15
21
-59.675
0
LINE
8
0
10
50.15
20
-73.675
11
64.15
21
-73.675
0
LINE
8
0
10
50.15
20
-59.675
11
50.15
21
-73.675
0
LINE
8
0
10
64.15
20
-59.675
11
64.15
21
-73.675
0
LINE
8
0
10
41.837
20
-60.675
11
48.587
21
-60.675
0
LINE
8
0
10
41.837
20
-74.675
11
48.587
21
-74.675
0
LINE
8
0
10
41.837
20
-60.675
11
41.837
21
-74.675
0
LINE
8
0
10
48.587
20
-60.675
11
48.587
21
-74.675
0
LINE
8
0
10
65.713
20
-60.675
11
72.463
21
-60.675
0
LINE
8
0
10
65.713
20
-74.675
11
72.463
21
-74.675
0
LINE
8
0
10
65.713
20
-60.675
11
65.713
21
-74.675
0
LINE
8
0
10
72.463
20
-60.675
11
72.463
21
-74.675
0
LINE
8
0
10
78.725
20
-59.675
11
92.725
21
-59.675
0
LINE
8
0
10
78.725
20
-73.675
11
92.725
21
-73.675
0
LINE
8
0
10
78.725
20
-59.675
11
78.725
21
-73.675
0
LINE
8
0
10
92.725
20
-59.675
11
92.725
21
-73.675
0
LINE
8
0
10
97.775
20
-59.675
11
111.775
21
-59.675
0
LINE
8
0
10
97.775
20
-73.675
11
111.775
21
-73.675
0
LINE
8
0
10
97.775
20
-59.675
11
97.775
21
-73.675
0
LINE
8
0
10
111.775
20
-59.675
11
111.775
21
-73.675
0
LINE
8
0
10
116.825
20
-59.675
11
130.825
21
-59.675
0
LINE
8
0
10
116.825
20
-73.675
11
130.825
21
-73.675
0
LINE
8
0
10
116.825
20
-59.675
11
116.825
21
-73.675
0
LINE
8
0
10
130.825
20
-59.675
11
130.825
21
-73.675
0
LINE
8
0
10
135.875
20
-59.675
11
149.875
21
-59.675
0
LINE
8
0
10
135.875
20
-73.675
11
149.875
21
-73.675
0
LINE
8
0
10
135.875
20
-59.675
11
135.875
21
-73.675
0
LINE
8
0
10
149.875
20
-59.675
11
149.875
21
-73.675
0
LINE
8
0
10
154.925
20
-59.675
11
168.925
21
-59.675
0
LINE
8
0
10
154.925
20
-73.675
11
168.925
21
-73.675
0
LINE
8
0
10
154.925
20
-59.675
11
154.925
21
-73.675
0
LINE
8
0
10
168.925
20
-59.675
11
168.925
21
-73.675
0
LINE
8
0
10
173.975
20
-59.675
11
187.975
21
-59.675
0
LINE
8
0
10
173.975
20
-73.675
11
187.975
21
-73.675
0
LINE
8
0
10
173.975
20
-59.675
11
173.975
21
-73.675
0
LINE
8
0
10
187.975
20
-59.675
11
187.975
21
-73.675
0
LINE
8
0
10
193.025
20
-59.675
11
207.025
21
-59.675
0
LINE
8
0
10
193.025
20
-73.675
11
207.025
21
-73.675
0
LINE
8
0
10
193.025
20
-59.675
11
193.025
21
-73.675
0
LINE
8
0
10
207.025
20
-59.675
11
207.025
21
-73.675
0
LINE
8
0
10
212.075
20
-59.675
11
226.075
21
-59.675
0
LINE
8
0
10
212.075
20
-73.675
11
226.075
21
-73.675
0
LINE
8
0
10
212.075
20
-59.675
11
212.075
21
-73.675
0
LINE
8
0
10
226.075
20
-59.675
11
226.075
21
-73.675
0
LINE
8
0
10
231.125
20
-59.675
11
245.125
21
-59.675
0
LINE
8
0
10
231.125
20
-73.675
11
245.125
21
-73.675
0
LINE
8
0
10
231.125
20
-59.675
11
231.125
21
-73.675
0
LINE
8
0
10
245.125
20
-59.675
11
245.125
21
-73.675
0
LINE
8
0
10
250.175
20
-59.675
11
264.175
21
-59.675
0
LINE
8
0
10
250.175
20
-73.675
11
264.175
21
-73.675
0
LINE
8
0
10
250.175
20
-59.675
11
250.175
21
-73.675
0
LINE
8
0
10
264.175
20
-59.675
11
264.175
21
-73.675
0
LINE
8
0
10
269.225
20
-59.675
11
283.225
21
-59.675
0
LINE
8
0
10
269.225
20
-73.675
11
283.225
21
-73.675
0
LINE
8
0
10
269.225
20
-59.675
11
269.225
21
-73.675
0
LINE
8
0
10
283.225
20
-59.675
11
283.225
21
-73.675
0
LINE
8
0
10
288.275
20
-59.675
11
302.275
21
-59.675
0
LINE
8
0
10
288.275
20
-73.675
11
302.275
21
-73.675
0
LINE
8
0
10
288.275
20
-59.675
11
288.275
21
-73.675
0
LINE
8
0
10
302.275
20
-59.675
11
302.275
21
-73.675
0
LINE
8
0
10
307.325
20
-59.675
11
321.325
21
-59.675
0
LINE
8
0
10
307.325
20
-73.675
11
321.325
21
-73.675
0
LINE
8
0
10
307.325
20
-59.675
11
307.325
21
-73.675
0
LINE
8
0
10
321.325
20
-59.675
11
321.325
21
-73.675
0
LINE
8
0
10
59.675
20
-78.725
11
73.675
21
-78.725
0
LINE
8
0
10
59.675
20
-92.725
11
73.675
21
-92.725
0
LINE
8
0
10
59.675
20
-78.725
11
59.675
21
-92.725
0
LINE
8
0
10
73.675
20
-78.725
11
73.675
21
-92.725
0
LINE
8
0
10
78.725
20
-78.725
11
92.725
21
-78.725
0
LINE
8
0
10
78.725
20
-92.725
11
92.725
21
-92.725
0
LINE
8
0
10
78.725
20
-78.725
11
78.725
21
-92.725
0
LINE
8
0
10
92.725
20
-78.725
11
92.725
21
-92.725
0
LINE
8
0
10
97.775
20
-78.725
11
111.775
21
-78.725
0
LINE
8
0
10
97.775
20
-92.725
11
111.775
21
-92.725
0
LINE
8
0
10
97.775
20
-78.725
11
97.775
21
-92.725
0
LINE
8
0
10
111.775
20
-78.725
11
111.775
21
-92.725
0
LINE
8
0
10
116.825
20
-78.725
11
130.825
21
-78.725
0
LINE
8
0
10
116.825
20
-92.725
11
130.825
21
-92.725
0
LINE
8
0
10
116.825
20
-78.725
11
116.825
21
-92.725
0
LINE
8
0
10
130.825
20
-78.725
11
130.825
21
-92.725
0
LINE
8
0
10
135.875
20
-78.725
11
149.875
21
-78.725
0
LINE
8
0
10
135.875
20
-92.725
11
149.875
21
-92.725
0
LINE
8
0
10
135.875
20
-78.725
11
135.875
21
-92.725
0
LINE
8
0
10
149.875
20
-78.725
11
149.875
21
-92.725
0
LINE
8
0
10
154.925
20
-78.725
11
168.925
21
-78.725
0
LINE
8
0
10
154.925
20
-92.725
11
168.925
21
-92.725
0
LINE
8
0
10
154.925
20
-78.725
11
154.925
21
-92.725
0
LINE
8
0
10
168.925
20
-78.725
11
168.925
21
-92.725
0
LINE
8
0
10
173.975
20
-78.725
11
187.975
21
-78.725
0
LINE
8
0
10
173.975
20
-92.725
11
187.975
21
-92.725
0
LINE
8
0
10
173.975
20
-78.725
11
173.975
21
-92.725
0
LINE
8
0
10
187.975
20
-78.725
11
187.975
21
-92.725
0
LINE
8
0
10
193.025
20
-78.725
11
207.025
21
-78.725
0
LINE
8
0
10
193.025
20
-92.725
11
207.025
21
-92.725
0
LINE
8
0
10
193.025
20
-78.725
11
193.025
21
-92.725
0
LINE
8
0
10
207.025
20
-78.725
11
207.025
21
-92.725
0
LINE
8
0
10
212.075
20
-78.725
11
226.075
21
-78.725
0
LINE
8
0
10
212.075
20
-92.725
11
226.075
21
-92.725
0
LINE
8
0
10
212.075
20
-78.725
11
212.075
21
-92.725
0
LINE
8
0
10
226.075
20
-78.725
11
226.075
21
-92.725
0
LINE
8
0
10
231.125
20
-78.725
11
245.125
21
-78.725
0
LINE
8
0
10
231.125
20
-92.725
11
245.125
21
-92.725
0
LINE
8
0
10
231.125
20
-78.725
11
231.125
21
-92.725
0
LINE
8
0
10
245.125
20
-78.725
11
245.125
21
-92.725
0
LINE
8
0
10
250.175
20
-78.725
11
264.175
21
-78.725
0
LINE
8
0
10
250.175
20
-92.725
11
264.175
21
-92.725
0
LINE
8
0
10
250.175
20
-78.725
11
250.175
21
-92.725
0
LINE
8
0
10
264.175
20
-78.725
11
264.175
21
-92.725
0
LINE
8
0
10
269.225
20
-78.725
11
283.225
21
-78.725
0
LINE
8
0
10
269.225
20
-92.725
11
283.225
21
-92.725
0
LINE
8
0
10
269.225
20
-78.725
11
269.225
21
-92.725
0
LINE
8
0
10
283.225
20
-78.725
11
283.225
21
-92.725
0
LINE
8
0
10
288.275
20
-78.725
11
302.275
21
-78.725
0
LINE
8
0
10
288.275
20
-92.725
11
302.275
21
-92.725
0
LINE
8
0
10
288.275
20
-78.725
11
288.275
21
-92.725
0
LINE
8
0
10
302.275
20
-78.725
11
302.275
21
-92.725
0
LINE
8
0
10
64.4375
20
-97.775
11
78.4375
21
-97.775
0
LINE
8
0
10
64.4375
20
-111.775
11
78.4375
21
-111.775
0
LINE
8
0
10
64.4375
20
-97.775
11
64.4375
21
-111.775
0
LINE
8
0
10
78.4375
20
-97.775
11
78.4375
21
-111.775
0
LINE
8
0
10
88.25
20
-97.775
11
102.25
21
-97.775
0
LINE
8
0
10
88.25
20
-111.775
11
102.25
21
-111.775
0
LINE
8
0
10
88.25
20
-97.775
11
88.25
21
-111.775
0
LINE
8
0
10
102.25
20
-97.775
11
102.25
21
-111.775
0
LINE
8
0
10
112.0625
20
-97.775
11
126.0625
21
-97.775
0
LINE
8
0
10
112.0625
20
-111.775
11
126.0625
21
-111.775
0
LINE
8
0
10
112.0625
20
-97.775
11
112.0625
21
-111.775
0
LINE
8
0
10
126.0625
20
-97.775
11
126.0625
21
-111.775
0
LINE
8
0
10
235.8875
20
-97.775
11
249.8875
21
-97.775
0
LINE
8
0
10
235.8875
20
-111.775
11
249.8875
21
-111.775
0
LINE
8
0
10
235.8875
20
-97.775
11
235.8875
21
-111.775
0
LINE
8
0
10
249.8875
20
-97.775
11
249.8875
21
-111.775
0
LINE
8
0
10
259.7
20
-97.775
11
273.7
21
-97.775
0
LINE
8
0
10
259.7
20
-111.775
11
273.7
21
-111.775
0
LINE
8
0
10
259.7
20
-97.775
11
259.7
21
-111.775
0
LINE
8
0
10
273.7
20
-97.775
11
273.7
21
-111.775
0
LINE
8
0
10
283.5125
20
-97.775
11
297.5125
21
-97.775
0
LINE
8
0
10
283.5125
20
-111.775
11
297.5125
21
-111.775
0
LINE
8
0
10
283.5125
20
-97.775
11
283.5125
21
-111.775
0
LINE
8
0
10
297.5125
20
-97.775
11
297.5125
21
-111.775
0
LINE
8
0
10
135.875
20
-116.825
11
149.875
21
-116.825
0
LINE
8
0
10
135.875
20
-130.825
11
149.875
21
-130.825
0
LINE
8
0
10
135.875
20
-116.825
11
135.875
21
-130.825
0
LINE
8
0
10
149.875
20
-116.825
11
149.875
21
-130.825
0
LINE
8
0
10
165.3
20
-129.825
11
158.55
21
-129.825
0
LINE
8
0
10
165.3
20
-115.825
11
158.55
21
-115.825
0
LINE
8
0
10
165.3
20
-129.825
11
165.3
21
-115.825
0
LINE
8
0
10
158.55
20
-129.825
11
158.55
21
-115.825
0
LINE
8
0
10
127.2
20
-129.825
11
120.45
21
-129.825
0
LINE
8
0
10
127.2
20
-115.825
11
120.45
21
-115.825
0
LINE
8
0
10
127.2
20
-129.825
11
127.2
21
-115.825
0
LINE
8
0
10
120.45
20
-129.825
11
120.45
21
-115.825
0
LINE
8
0
10
212.075
20
-116.825
11
226.075
21
-116.825
0
LINE
8
0
10
212.075
20
-130.825
11
226.075
21
-130.825
0
LINE
8
0
10
212.075
20
-116.825
11
212.075
21
-130.825
0
LINE
8
0
10
226.075
20
-116.825
11
226.075
21
-130.825
0
LINE
8
0
10
241.5
20
-129.825
11
234.75
21
-129.825
0
LINE
8
0
10
241.5
20
-115.825
11
234.75
21
-115.825
0
LINE
8
0
10
241.5
20
-129.825
11
241.5
21
-115.825
0
LINE
8
0
10
234.75
20
-129.825
11
234.75
21
-115.825
0
LINE
8
0
10
203.4
20
-129.825
11
196.65
21
-129.825
0
LINE
8
0
10
203.4
20
-115.825
11
196.65
21
-115.825
0
LINE
8
0
10
203.4
20
-129.825
11
203.4
21
-115.825
0
LINE
8
0
10
196.65
20
-129.825
11
196.65
21
-115.825
0
LINE
8
0
10
173.975
20
-135.875
11
187.975
21
-135.875
0
LINE
8
0
10
173.975
20
-149.875
11
187.975
21
-149.875
0
LINE
8
0
10
173.975
20
-135.875
11
173.975
21
-149.875
0
LINE
8
0
10
187.975
20
-135.875
11
187.975
21
-149.875
0
LINE
8
0
10
203.4
20
-148.875
11
196.65
21
-148.875
0
LINE
8
0
10
203.4
20
-134.875
11
196.65
21
-134.875
0
LINE
8
0
10
203.4
20
-148.875
11
203.4
21
-134.875
0
LINE
8
0
10
196.65
20
-148.875
11
196.65
21
-134.875
0
LINE
8
0
10
165.3
20
-148.875
11
158.55
21
-148.875
0
LINE
8
0
10
165.3
20
-134.875
11
158.55
21
-134.875
0
LINE
8
0
10
165.3
20
-148.875
11
165.3
21
-134.875
0
LINE
8
0
10
158.55
20
-148.875
11
158.55
21
-134.875
0
LINE
8
0
10
145.4
20
-154.925
11
159.4
21
-154.925
0
LINE
8
0
10
145.4
20
-168.925
11
159.4
21
-168.925
0
LINE
8
0
10
145.4
20
-154.925
11
145.4
21
-168.925
0
LINE
8
0
10
159.4
20
-154.925
11
159.4
21
-168.925
0
LINE
8
0
10
167.713
20
-167.925
11
160.963
21
-167.925
0
LINE
8
0
10
167.713
20
-153.925
11
160.963
21
-153.925
0
LINE
8
0
10
167.713
20
-167.925
11
167.713
21
-153.925
0
LINE
8
0
10
160.963
20
-167.925
11
160.963
21
-153.925
0
LINE
8
0
10
143.837
20
-167.925
11
137.087
21
-167.925
0
LINE
8
0
10
143.837
20
-153.925
11
137.087
21
-153.925
0
LINE
8
0
10
143.837
20
-167.925
11
143.837
21
-153.925
0
LINE
8
0
10
137.087
20
-167.925
11
137.087
21
-153.925
0
LINE
8
0
10
202.55
20
-154.925
11
216.55
21
-154.925
0
LINE
8
0
10
202.55
20
-168.925
11
216.55
21
-168.925
0
LINE
8
0
10
202.55
20
-154.925
11
202.55
21
-168.925
0
LINE
8
0
10
216.55
20
-154.925
11
216.55
21
-168.925
0
LINE
8
0
10
224.863
20
-167.925
11
218.113
21
-167.925
0
LINE
8
0
10
224.863
20
-153.925
11
218.113
21
-153.925
0
LINE
8
0
10
224.863
20
-167.925
11
224.863
21
-153.925
0
LINE
8
0
10
218.113
20
-167.925
11
218.113
21
-153.925
0
LINE
8
0
10
200.987
20
-167.925
11
194.237
21
-167.925
0
LINE
8
0
10
200.987
20
-153.925
11
194.237
21
-153.925
0
LINE
8
0
10
200.987
20
-167.925
11
200.987
21
-153.925
0
LINE
8
0
10
194.237
20
-167.925
11
194.237
21
-153.925
0
LINE
8
0
10
154.925
20
-173.975
11
168.925
21
-173.975
0
LINE
8
0
10
154.925
20
-187.975
11
168.925
21
-187.975
0
LINE
8
0
10
154.925
20
-173.975
11
154.925
21
-187.975
0
LINE
8
0
10
168.925
20
-173.975
11
168.925
21
-187.975
0
LINE
8
0
10
184.35
20
-186.975
11
177.6
21
-186.975
0
LINE
8
0
10
184.35
20
-172.975
11
177.6
21
-172.975
0
LINE
8
0
10
184.35
20
-186.975
11
184.35
21
-172.975
0
LINE
8
0
10
177.6
20
-186.975
11
177.6
21
-172.975
0
LINE
8
0
10
146.25
20
-186.975
11
139.5
21
-186.975
0
LINE
8
0
10
146.25
20
-172.975
11
139.5
21
-172.975
0
LINE
8
0
10
146.25
20
-186.975
11
146.25
21
-172.975
0
LINE
8
0
10
139.5
20
-186.975
11
139.5
21
-172.975
0
LINE
8
0
10
193.025
20
-193.025
11
207.025
21
-193.025
0
LINE
8
0
10
193.025
20
-207.025
11
207.025
21
-207.025
0
LINE
8
0
10
193.025
20
-193.025
11
193.025
21
-207.025
0
LINE
8
0
10
207.025
20
-193.025
11
207.025
21
-207.025
0
LINE
8
0
10
222.45
20
-206.025
11
215.7
21
-206.025
0
LINE
8
0
10
222.45
20
-192.025
11
215.7
21
-192.025
0
LINE
8
0
10
222.45
20
-206.025
11
222.45
21
-192.025
0
LINE
8
0
10
215.7
20
-206.025
11
215.7
21
-192.025
0
LINE
8
0
10
184.35
20
-206.025
11
177.6
21
-206.025
0
LINE
8
0
10
184.35
20
-192.025
11
177.6
21
-192.025
0
LINE
8
0
10
184.35
20
-206.025
11
184.35
21
-192.025
0
LINE
8
0
10
177.6
20
-206.025
11
177.6
21
-192.025
0
LINE
8
0
10
173.975
20
-212.075
11
187.975
21
-212.075
0
LINE
8
0
10
173.975
20
-226.075
11
187.975
21
-226.075
0
LINE
8
0
10
173.975
20
-212.075
11
173.975
21
-226.075
0
LINE
8
0
10
187.975
20
-212.075
11
187.975
21
-226.075
0
LINE
8
0
10
241.5
20
-225.075
11
234.75
21
-225.075
0
LINE
8
0
10
241.5
20
-211.075
11
234.75
21
-211.075
0
LINE
8
0
10
241.5
20
-225.075
11
241.5
21
-211.075
0
LINE
8
0
10
234.75
20
-225.075
11
234.75
21
-211.075
0
LINE
8
0
10
127.2
20
-225.075
11
120.45
21
-225.075
0
LINE
8
0
10
127.2
20
-211.075
11
120.45
21
-211.075
0
LINE
8
0
10
127.2
20
-225.075
11
127.2
21
-211.075
0
LINE
8
0
10
120.45
20
-225.075
11
120.45
21
-211.075
0
LINE
8
0
10
0
20
-228.6
11
361.95
21
-228.6
0
LINE
8
0
10
0
20
0
11
361.95
21
0
0
LINE
8
0
10
0
20
-228.6
11
0
21
0
0
LINE
8
0
10
361.95
20
-228.6
11
361.95
21
0
0
ENDSEC
0
EOF