0
SECTION
2
HEADER
9
$INSUNITS
70
4
0
ENDSEC
0
SECTION
2
TABLES
0
TABLE
2
LTYPE
0
LTYPE
72
65
70
64
2
CONTINUOUS
3
______
73
0
40
0
0
ENDTAB
0
TABLE
2
LAYER
0
ENDTAB
0
ENDSEC
0
SECTION
2
ENTITIES
0
LINE
8
0
10
54.9125
20
-2.525
11
68.9125
21
-2.525
0
LINE
8
0
10
54.9125
20
-16.525
11
68.9125
21
-16.525
0
LINE
8
0
10
54.9125
20
-2.525
11
54.9125
21
-16.525
0
LINE
8
0
10
68.9125
20
-2.525
11
68.9125
21
-16.525
0
LINE
8
0
10
73.9625
20
-2.525
11
87.9625
21
-2.525
0
LINE
8
0
10
73.9625
20
-16.525
11
87.9625
21
-16.525
0
LINE
8
0
10
73.9625
20
-2.525
11
73.9625
21
-16.525
0
LINE
8
0
10
87.9625
20
-2.525
11
87.9625
21
-16.525
0
LINE
8
0
10
93.0125
20
-2.525
11
107.0125
21
-2.525
0
LINE
8
0
10
93.0125
20
-16.525
11
107.0125
21
-16.525
0
LINE
8
0
10
93.0125
20
-2.525
11
93.0125
21
-16.525
0
LINE
8
0
10
107.0125
20
-2.525
11
107.0125
21
-16.525
0
LINE
8
0
10
112.0625
20
-2.525
11
126.0625
21
-2.525
0
LINE
8
0
10
112.0625
20
-16.525
11
126.0625
21
-16.525
0
LINE
8
0
10
112.0625
20
-2.525
11
112.0625
21
-16.525
0
LINE
8
0
10
126.0625
20
-2.525
11
126.0625
21
-16.525
0
LINE
8
0
10
131.1125
20
-2.525
11
145.1125
21
-2.525
0
LINE
8
0
10
131.1125
20
-16.525
11
145.1125
21
-16.525
0
LINE
8
0
10
131.1125
20
-2.525
11
131.1125
21
-16.525
0
LINE
8
0
10
145.1125
20
-2.525
11
145.1125
21
-16.525
0
LINE
8
0
10
150.1625
20
-2.525
11
164.1625
21
-2.525
0
LINE
8
0
10
150.1625
20
-16.525
11
164.1625
21
-16.525
0
LINE
8
0
10
150.1625
20
-2.525
11
150.1625
21
-16.525
0
LINE
8
0
10
164.1625
20
-2.525
11
164.1625
21
-16.525
0
LINE
8
0
10
169.2125
20
-2.525
11
183.2125
21
-2.525
0
LINE
8
0
10
169.2125
20
-16.525
11
183.2125
21
-16.525
0
LINE
8
0
10
169.2125
20
-2.525
11
169.2125
21
-16.525
0
LINE
8
0
10
183.2125
20
-2.525
11
183.2125
21
-16.525
0
LINE
8
0
10
188.2625
20
-2.525
11
202.2625
21
-2.525
0
LINE
8
0
10
188.2625
20
-16.525
11
202.2625
21
-16.525
0
LINE
8
0
10
188.2625
20
-2.525
11
188.2625
21
-16.525
0
LINE
8
0
10
202.2625
20
-2.525
11
202.2625
21
-16.525
0
LINE
8
0
10
207.3125
20
-2.525
11
221.3125
21
-2.525
0
LINE
8
0
10
207.3125
20
-16.525
11
221.3125
21
-16.525
0
LINE
8
0
10
207.3125
20
-2.525
11
207.3125
21
-16.525
0
LINE
8
0
10
221.3125
20
-2.525
11
221.3125
21
-16.525
0
LINE
8
0
10
226.3625
20
-2.525
11
240.3625
21
-2.525
0
LINE
8
0
10
226.3625
20
-16.525
11
240.3625
21
-16.525
0
LINE
8
0
10
226.3625
20
-2.525
11
226.3625
21
-16.525
0
LINE
8
0
10
240.3625
20
-2.525
11
240.3625
21
-16.525
0
LINE
8
0
10
245.4125
20
-2.525
11
259.4125
21
-2.525
0
LINE
8
0
10
245.4125
20
-16.525
11
259.4125
21
-16.525
0
LINE
8
0
10
245.4125
20
-2.525
11
245.4125
21
-16.525
0
LINE
8
0
10
259.4125
20
-2.525
11
259.4125
21
-16.525
0
LINE
8
0
10
264.4625
20
-2.525
11
278.4625
21
-2.525
0
LINE
8
0
10
264.4625
20
-16.525
11
278.4625
21
-16.525
0
LINE
8
0
10
264.4625
20
-2.525
11
264.4625
21
-16.525
0
LINE
8
0
10
278.4625
20
-2.525
11
278.4625
21
-16.525
0
LINE
8
0
10
283.5125
20
-2.525
11
297.5125
21
-2.525
0
LINE
8
0
10
283.5125
20
-16.525
11
297.5125
21
-16.525
0
LINE
8
0
10
283.5125
20
-2.525
11
283.5125
21
-16.525
0
LINE
8
0
10
297.5125
20
-2.525
11
297.5125
21
-16.525
0
LINE
8
0
10
302.5625
20
-2.525
11
316.5625
21
-2.525
0
LINE
8
0
10
302.5625
20
-16.525
11
316.5625
21
-16.525
0
LINE
8
0
10
302.5625
20
-2.525
11
302.5625
21
-16.525
0
LINE
8
0
10
316.5625
20
-2.525
11
316.5625
21
-16.525
0
LINE
8
0
10
321.6125
20
-2.525
11
335.6125
21
-2.525
0
LINE
8
0
10
321.6125
20
-16.525
11
335.6125
21
-16.525
0
LINE
8
0
10
321.6125
20
-2.525
11
321.6125
21
-16.525
0
LINE
8
0
10
335.6125
20
-2.525
11
335.6125
21
-16.525
0
LINE
8
0
10
16.8125
20
-21.575
11
30.8125
21
-21.575
0
LINE
8
0
10
16.8125
20
-35.575
11
30.8125
21
-35.575
0
LINE
8
0
10
16.8125
20
-21.575
11
16.8125
21
-35.575
0
LINE
8
0
10
30.8125
20
-21.575
11
30.8125
21
-35.575
0
LINE
8
0
10
35.8625
20
-21.575
11
49.8625
21
-21.575
0
LINE
8
0
10
35.8625
20
-35.575
11
49.8625
21
-35.575
0
LINE
8
0
10
35.8625
20
-21.575
11
35.8625
21
-35.575
0
LINE
8
0
10
49.8625
20
-21.575
11
49.8625
21
-35.575
0
LINE
8
0
10
64.4375
20
-21.575
11
78.4375
21
-21.575
0
LINE
8
0
10
64.4375
20
-35.575
11
78.4375
21
-35.575
0
LINE
8
0
10
64.4375
20
-21.575
11
64.4375
21
-35.575
0
LINE
8
0
10
78.4375
20
-21.575
11
78.4375
21
-35.575
0
LINE
8
0
10
56.1245
20
-22.575
11
62.8745
21
-22.575
0
LINE
8
0
10
56.1245
20
-36.575
11
62.8745
21
-36.575
0
LINE
8
0
10
56.1245
20
-22.575
11
56.1245
21
-36.575
0
LINE
8
0
10
62.8745
20
-22.575
11
62.8745
21
-36.575
0
LINE
8
0
10
80.0005
20
-22.575
11
86.7505
21
-22.575
0
LINE
8
0
10
80.0005
20
-36.575
11
86.7505
21
-36.575
0
LINE
8
0
10
80.0005
20
-22.575
11
80.0005
21
-36.575
0
LINE
8
0
10
86.7505
20
-22.575
11
86.7505
21
-36.575
0
LINE
8
0
10
93.0125
20
-21.575
11
107.0125
21
-21.575
0
LINE
8
0
10
93.0125
20
-35.575
11
107.0125
21
-35.575
0
LINE
8
0
10
93.0125
20
-21.575
11
93.0125
21
-35.575
0
LINE
8
0
10
107.0125
20
-21.575
11
107.0125
21
-35.575
0
LINE
8
0
10
112.0625
20
-21.575
11
126.0625
21
-21.575
0
LINE
8
0
10
112.0625
20
-35.575
11
126.0625
21
-35.575
0
LINE
8
0
10
112.0625
20
-21.575
11
112.0625
21
-35.575
0
LINE
8
0
10
126.0625
20
-21.575
11
126.0625
21
-35.575
0
LINE
8
0
10
131.1125
20
-21.575
11
145.1125
21
-21.575
0
LINE
8
0
10
131.1125
20
-35.575
11
145.1125
21
-35.575
0
LINE
8
0
10
131.1125
20
-21.575
11
131.1125
21
-35.575
0
LINE
8
0
10
145.1125
20
-21.575
11
145.1125
21
-35.575
0
LINE
8
0
10
150.1625
20
-21.575
11
164.1625
21
-21.575
0
LINE
8
0
10
150.1625
20
-35.575
11
164.1625
21
-35.575
0
LINE
8
0
10
150.1625
20
-21.575
11
150.1625
21
-35.575
0
LINE
8
0
10
164.1625
20
-21.575
11
164.1625
21
-35.575
0
LINE
8
0
10
169.2125
20
-21.575
11
183.2125
21
-21.575
0
LINE
8
0
10
169.2125
20
-35.575
11
183.2125
21
-35.575
0
LINE
8
0
10
169.2125
20
-21.575
11
169.2125
21
-35.575
0
LINE
8
0
10
183.2125
20
-21.575
11
183.2125
21
-35.575
0
LINE
8
0
10
188.2625
20
-21.575
11
202.2625
21
-21.575
0
LINE
8
0
10
188.2625
20
-35.575
11
202.2625
21
-35.575
0
LINE
8
0
10
188.2625
20
-21.575
11
188.2625
21
-35.575
0
LINE
8
0
10
202.2625
20
-21.575
11
202.2625
21
-35.575
0
LINE
8
0
10
207.3125
20
-21.575
11
221.3125
21
-21.575
0
LINE
8
0
10
207.3125
20
-35.575
11
221.3125
21
-35.575
0
LINE
8
0
10
207.3125
20
-21.575
11
207.3125
21
-35.575
0
LINE
8
0
10
221.3125
20
-21.575
11
221.3125
21
-35.575
0
LINE
8
0
10
226.3625
20
-21.575
11
240.3625
21
-21.575
0
LINE
8
0
10
226.3625
20
-35.575
11
240.3625
21
-35.575
0
LINE
8
0
10
226.3625
20
-21.575
11
226.3625
21
-35.575
0
LINE
8
0
10
240.3625
20
-21.575
11
240.3625
21
-35.575
0
LINE
8
0
10
245.4125
20
-21.575
11
259.4125
21
-21.575
0
LINE
8
0
10
245.4125
20
-35.575
11
259.4125
21
-35.575
0
LINE
8
0
10
245.4125
20
-21.575
11
245.4125
21
-35.575
0
LINE
8
0
10
259.4125
20
-21.575
11
259.4125
21
-35.575
0
LINE
8
0
10
264.4625
20
-21.575
11
278.4625
21
-21.575
0
LINE
8
0
10
264.4625
20
-35.575
11
278.4625
21
-35.575
0
LINE
8
0
10
264.4625
20
-21.575
11
264.4625
21
-35.575
0
LINE
8
0
10
278.4625
20
-21.575
11
278.4625
21
-35.575
0
LINE
8
0
10
283.5125
20
-21.575
11
297.5125
21
-21.575
0
LINE
8
0
10
283.5125
20
-35.575
11
297.5125
21
-35.575
0
LINE
8
0
10
283.5125
20
-21.575
11
283.5125
21
-35.575
0
LINE
8
0
10
297.5125
20
-21.575
11
297.5125
21
-35.575
0
LINE
8
0
10
302.5625
20
-21.575
11
316.5625
21
-21.575
0
LINE
8
0
10
302.5625
20
-35.575
11
316.5625
21
-35.575
0
LINE
8
0
10
302.5625
20
-21.575
11
302.5625
21
-35.575
0
LINE
8
0
10
316.5625
20
-21.575
11
316.5625
21
-35.575
0
LINE
8
0
10
321.6125
20
-21.575
11
335.6125
21
-21.575
0
LINE
8
0
10
321.6125
20
-35.575
11
335.6125
21
-35.575
0
LINE
8
0
10
321.6125
20
-21.575
11
321.6125
21
-35.575
0
LINE
8
0
10
335.6125
20
-21.575
11
335.6125
21
-35.575
0
LINE
8
0
10
54.9125
20
-40.625
11
68.9125
21
-40.625
0
LINE
8
0
10
54.9125
20
-54.625
11
68.9125
21
-54.625
0
LINE
8
0
10
54.9125
20
-40.625
11
54.9125
21
-54.625
0
LINE
8
0
10
68.9125
20
-40.625
11
68.9125
21
-54.625
0
LINE
8
0
10
73.9625
20
-40.625
11
87.9625
21
-40.625
0
LINE
8
0
10
73.9625
20
-54.625
11
87.9625
21
-54.625
0
LINE
8
0
10
73.9625
20
-40.625
11
73.9625
21
-54.625
0
LINE
8
0
10
87.9625
20
-40.625
11
87.9625
21
-54.625
0
LINE
8
0
10
93.0125
20
-40.625
11
107.0125
21
-40.625
0
LINE
8
0
10
93.0125
20
-54.625
11
107.0125
21
-54.625
0
LINE
8
0
10
93.0125
20
-40.625
11
93.0125
21
-54.625
0
LINE
8
0
10
107.0125
20
-40.625
11
107.0125
21
-54.625
0
LINE
8
0
10
112.0625
20
-40.625
11
126.0625
21
-40.625
0
LINE
8
0
10
112.0625
20
-54.625
11
126.0625
21
-54.625
0
LINE
8
0
10
112.0625
20
-40.625
11
112.0625
21
-54.625
0
LINE
8
0
10
126.0625
20
-40.625
11
126.0625
21
-54.625
0
LINE
8
0
10
131.1125
20
-40.625
11
145.1125
21
-40.625
0
LINE
8
0
10
131.1125
20
-54.625
11
145.1125
21
-54.625
0
LINE
8
0
10
131.1125
20
-40.625
11
131.1125
21
-54.625
0
LINE
8
0
10
145.1125
20
-40.625
11
145.1125
21
-54.625
0
LINE
8
0
10
150.1625
20
-40.625
11
164.1625
21
-40.625
0
LINE
8
0
10
150.1625
20
-54.625
11
164.1625
21
-54.625
0
LINE
8
0
10
150.1625
20
-40.625
11
150.1625
21
-54.625
0
LINE
8
0
10
164.1625
20
-40.625
11
164.1625
21
-54.625
0
LINE
8
0
10
169.2125
20
-40.625
11
183.2125
21
-40.625
0
LINE
8
0
10
169.2125
20
-54.625
11
183.2125
21
-54.625
0
LINE
8
0
10
169.2125
20
-40.625
11
169.2125
21
-54.625
0
LINE
8
0
10
183.2125
20
-40.625
11
183.2125
21
-54.625
0
LINE
8
0
10
188.2625
20
-40.625
11
202.2625
21
-40.625
0
LINE
8
0
10
188.2625
20
-54.625
11
202.2625
21
-54.625
0
LINE
8
0
10
188.2625
20
-40.625
11
188.2625
21
-54.625
0
LINE
8
0
10
202.2625
20
-40.625
11
202.2625
21
-54.625
0
LINE
8
0
10
207.3125
20
-40.625
11
221.3125
21
-40.625
0
LINE
8
0
10
207.3125
20
-54.625
11
221.3125
21
-54.625
0
LINE
8
0
10
207.3125
20
-40.625
11
207.3125
21
-54.625
0
LINE
8
0
10
221.3125
20
-40.625
11
221.3125
21
-54.625
0
LINE
8
0
10
226.3625
20
-40.625
11
240.3625
21
-40.625
0
LINE
8
0
10
226.3625
20
-54.625
11
240.3625
21
-54.625
0
LINE
8
0
10
226.3625
20
-40.625
11
226.3625
21
-54.625
0
LINE
8
0
10
240.3625
20
-40.625
11
240.3625
21
-54.625
0
LINE
8
0
10
245.4125
20
-40.625
11
259.4125
21
-40.625
0
LINE
8
0
10
245.4125
20
-54.625
11
259.4125
21
-54.625
0
LINE
8
0
10
245.4125
20
-40.625
11
245.4125
21
-54.625
0
LINE
8
0
10
259.4125
20
-40.625
11
259.4125
21
-54.625
0
LINE
8
0
10
264.4625
20
-40.625
11
278.4625
21
-40.625
0
LINE
8
0
10
264.4625
20
-54.625
11
278.4625
21
-54.625
0
LINE
8
0
10
264.4625
20
-40.625
11
264.4625
21
-54.625
0
LINE
8
0
10
278.4625
20
-40.625
11
278.4625
21
-54.625
0
LINE
8
0
10
283.5125
20
-40.625
11
297.5125
21
-40.625
0
LINE
8
0
10
283.5125
20
-54.625
11
297.5125
21
-54.625
0
LINE
8
0
10
283.5125
20
-40.625
11
283.5125
21
-54.625
0
LINE
8
0
10
297.5125
20
-40.625
11
297.5125
21
-54.625
0
LINE
8
0
10
312.0875
20
-40.625
11
326.0875
21
-40.625
0
LINE
8
0
10
312.0875
20
-54.625
11
326.0875
21
-54.625
0
LINE
8
0
10
312.0875
20
-40.625
11
312.0875
21
-54.625
0
LINE
8
0
10
326.0875
20
-40.625
11
326.0875
21
-54.625
0
LINE
8
0
10
303.7745
20
-41.625
11
310.5245
21
-41.625
0
LINE
8
0
10
303.7745
20
-55.625
11
310.5245
21
-55.625
0
LINE
8
0
10
303.7745
20
-41.625
11
303.7745
21
-55.625
0
LINE
8
0
10
310.5245
20
-41.625
11
310.5245
21
-55.625
0
LINE
8
0
10
327.6505
20
-41.625
11
334.4005
21
-41.625
0
LINE
8
0
10
327.6505
20
-55.625
11
334.4005
21
-55.625
0
LINE
8
0
10
327.6505
20
-41.625
11
327.6505
21
-55.625
0
LINE
8
0
10
334.4005
20
-41.625
11
334.4005
21
-55.625
0
LINE
8
0
10
340.6625
20
-40.625
11
354.6625
21
-40.625
0
LINE
8
0
10
340.6625
20
-54.625
11
354.6625
21
-54.625
0
LINE
8
0
10
340.6625
20
-40.625
11
340.6625
21
-54.625
0
LINE
8
0
10
354.6625
20
-40.625
11
354.6625
21
-54.625
0
LINE
8
0
10
359.7125
20
-40.625
11
373.7125
21
-40.625
0
LINE
8
0
10
359.7125
20
-54.625
11
373.7125
21
-54.625
0
LINE
8
0
10
359.7125
20
-40.625
11
359.7125
21
-54.625
0
LINE
8
0
10
373.7125
20
-40.625
11
373.7125
21
-54.625
0
LINE
8
0
10
16.8125
20
-59.675
11
30.8125
21
-59.675
0
LINE
8
0
10
16.8125
20
-73.675
11
30.8125
21
-73.675
0
LINE
8
0
10
16.8125
20
-59.675
11
16.8125
21
-73.675
0
LINE
8
0
10
30.8125
20
-59.675
11
30.8125
21
-73.675
0
LINE
8
0
10
35.8625
20
-59.675
11
49.8625
21
-59.675
0
LINE
8
0
10
35.8625
20
-73.675
11
49.8625
21
-73.675
0
LINE
8
0
10
35.8625
20
-59.675
11
35.8625
21
-73.675
0
LINE
8
0
10
49.8625
20
-59.675
11
49.8625
21
-73.675
0
LINE
8
0
10
64.4375
20
-59.675
11
78.4375
21
-59.675
0
LINE
8
0
10
64.4375
20
-73.675
11
78.4375
21
-73.675
0
LINE
8
0
10
64.4375
20
-59.675
11
64.4375
21
-73.675
0
LINE
8
0
10
78.4375
20
-59.675
11
78.4375
21
-73.675
0
LINE
8
0
10
56.1245
20
-60.675
11
62.8745
21
-60.675
0
LINE
8
0
10
56.1245
20
-74.675
11
62.8745
21
-74.675
0
LINE
8
0
10
56.1245
20
-60.675
11
56.1245
21
-74.675
0
LINE
8
0
10
62.8745
20
-60.675
11
62.8745
21
-74.675
0
LINE
8
0
10
80.0005
20
-60.675
11
86.7505
21
-60.675
0
LINE
8
0
10
80.0005
20
-74.675
11
86.7505
21
-74.675
0
LINE
8
0
10
80.0005
20
-60.675
11
80.0005
21
-74.675
0
LINE
8
0
10
86.7505
20
-60.675
11
86.7505
21
-74.675
0
LINE
8
0
10
93.0125
20
-59.675
11
107.0125
21
-59.675
0
LINE
8
0
10
93.0125
20
-73.675
11
107.0125
21
-73.675
0
LINE
8
0
10
93.0125
20
-59.675
11
93.0125
21
-73.675
0
LINE
8
0
10
107.0125
20
-59.675
11
107.0125
21
-73.675
0
LINE
8
0
10
112.0625
20
-59.675
11
126.0625
21
-59.675
0
LINE
8
0
10
112.0625
20
-73.675
11
126.0625
21
-73.675
0
LINE
8
0
10
112.0625
20
-59.675
11
112.0625
21
-73.675
0
LINE
8
0
10
126.0625
20
-59.675
11
126.0625
21
-73.675
0
LINE
8
0
10
131.1125
20
-59.675
11
145.1125
21
-59.675
0
LINE
8
0
10
131.1125
20
-73.675
11
145.1125
21
-73.675
0
LINE
8
0
10
131.1125
20
-59.675
11
131.1125
21
-73.675
0
LINE
8
0
10
145.1125
20
-59.675
11
145.1125
21
-73.675
0
LINE
8
0
10
150.1625
20
-59.675
11
164.1625
21
-59.675
0
LINE
8
0
10
150.1625
20
-73.675
11
164.1625
21
-73.675
0
LINE
8
0
10
150.1625
20
-59.675
11
150.1625
21
-73.675
0
LINE
8
0
10
164.1625
20
-59.675
11
164.1625
21
-73.675
0
LINE
8
0
10
169.2125
20
-59.675
11
183.2125
21
-59.675
0
LINE
8
0
10
169.2125
20
-73.675
11
183.2125
21
-73.675
0
LINE
8
0
10
169.2125
20
-59.675
11
169.2125
21
-73.675
0
LINE
8
0
10
183.2125
20
-59.675
11
183.2125
21
-73.675
0
LINE
8
0
10
188.2625
20
-59.675
11
202.2625
21
-59.675
0
LINE
8
0
10
188.2625
20
-73.675
11
202.2625
21
-73.675
0
LINE
8
0
10
188.2625
20
-59.675
11
188.2625
21
-73.675
0
LINE
8
0
10
202.2625
20
-59.675
11
202.2625
21
-73.675
0
LINE
8
0
10
207.3125
20
-59.675
11
221.3125
21
-59.675
0
LINE
8
0
10
207.3125
20
-73.675
11
221.3125
21
-73.675
0
LINE
8
0
10
207.3125
20
-59.675
11
207.3125
21
-73.675
0
LINE
8
0
10
221.3125
20
-59.675
11
221.3125
21
-73.675
0
LINE
8
0
10
226.3625
20
-59.675
11
240.3625
21
-59.675
0
LINE
8
0
10
226.3625
20
-73.675
11
240.3625
21
-73.675
0
LINE
8
0
10
226.3625
20
-59.675
11
226.3625
21
-73.675
0
LINE
8
0
10
240.3625
20
-59.675
11
240.3625
21
-73.675
0
LINE
8
0
10
245.4125
20
-59.675
11
259.4125
21
-59.675
0
LINE
8
0
10
245.4125
20
-73.675
11
259.4125
21
-73.675
0
LINE
8
0
10
245.4125
20
-59.675
11
245.4125
21
-73.675
0
LINE
8
0
10
259.4125
20
-59.675
11
259.4125
21
-73.675
0
LINE
8
0
10
264.4625
20
-59.675
11
278.4625
21
-59.675
0
LINE
8
0
10
264.4625
20
-73.675
11
278.4625
21
-73.675
0
LINE
8
0
10
264.4625
20
-59.675
11
264.4625
21
-73.675
0
LINE
8
0
10
278.4625
20
-59.675
11
278.4625
21
-73.675
0
LINE
8
0
10
283.5125
20
-59.675
11
297.5125
21
-59.675
0
LINE
8
0
10
283.5125
20
-73.675
11
297.5125
21
-73.675
0
LINE
8
0
10
283.5125
20
-59.675
11
283.5125
21
-73.675
0
LINE
8
0
10
297.5125
20
-59.675
11
297.5125
21
-73.675
0
LINE
8
0
10
302.5625
20
-59.675
11
316.5625
21
-59.675
0
LINE
8
0
10
302.5625
20
-73.675
11
316.5625
21
-73.675
0
LINE
8
0
10
302.5625
20
-59.675
11
302.5625
21
-73.675
0
LINE
8
0
10
316.5625
20
-59.675
11
316.5625
21
-73.675
0
LINE
8
0
10
321.6125
20
-59.675
11
335.6125
21
-59.675
0
LINE
8
0
10
321.6125
20
-73.675
11
335.6125
21
-73.675
0
LINE
8
0
10
321.6125
20
-59.675
11
321.6125
21
-73.675
0
LINE
8
0
10
335.6125
20
-59.675
11
335.6125
21
-73.675
0
LINE
8
0
10
73.9625
20
-78.725
11
87.9625
21
-78.725
0
LINE
8
0
10
73.9625
20
-92.725
11
87.9625
21
-92.725
0
LINE
8
0
10
73.9625
20
-78.725
11
73.9625
21
-92.725
0
LINE
8
0
10
87.9625
20
-78.725
11
87.9625
21
-92.725
0
LINE
8
0
10
93.0125
20
-78.725
11
107.0125
21
-78.725
0
LINE
8
0
10
93.0125
20
-92.725
11
107.0125
21
-92.725
0
LINE
8
0
10
93.0125
20
-78.725
11
93.0125
21
-92.725
0
LINE
8
0
10
107.0125
20
-78.725
11
107.0125
21
-92.725
0
LINE
8
0
10
112.0625
20
-78.725
11
126.0625
21
-78.725
0
LINE
8
0
10
112.0625
20
-92.725
11
126.0625
21
-92.725
0
LINE
8
0
10
112.0625
20
-78.725
11
112.0625
21
-92.725
0
LINE
8
0
10
126.0625
20
-78.725
11
126.0625
21
-92.725
0
LINE
8
0
10
245.4125
20
-78.725
11
259.4125
21
-78.725
0
LINE
8
0
10
245.4125
20
-92.725
11
259.4125
21
-92.725
0
LINE
8
0
10
245.4125
20
-78.725
11
245.4125
21
-92.725
0
LINE
8
0
10
259.4125
20
-78.725
11
259.4125
21
-92.725
0
LINE
8
0
10
264.4625
20
-78.725
11
278.4625
21
-78.725
0
LINE
8
0
10
264.4625
20
-92.725
11
278.4625
21
-92.725
0
LINE
8
0
10
264.4625
20
-78.725
11
264.4625
21
-92.725
0
LINE
8
0
10
278.4625
20
-78.725
11
278.4625
21
-92.725
0
LINE
8
0
10
283.5125
20
-78.725
11
297.5125
21
-78.725
0
LINE
8
0
10
283.5125
20
-92.725
11
297.5125
21
-92.725
0
LINE
8
0
10
283.5125
20
-78.725
11
283.5125
21
-92.725
0
LINE
8
0
10
297.5125
20
-78.725
11
297.5125
21
-92.725
0
LINE
8
0
10
302.5625
20
-78.725
11
316.5625
21
-78.725
0
LINE
8
0
10
302.5625
20
-92.725
11
316.5625
21
-92.725
0
LINE
8
0
10
302.5625
20
-78.725
11
302.5625
21
-92.725
0
LINE
8
0
10
316.5625
20
-78.725
11
316.5625
21
-92.725
0
LINE
8
0
10
78.725
20
-97.775
11
92.725
21
-97.775
0
LINE
8
0
10
78.725
20
-111.775
11
92.725
21
-111.775
0
LINE
8
0
10
78.725
20
-97.775
11
78.725
21
-111.775
0
LINE
8
0
10
92.725
20
-97.775
11
92.725
21
-111.775
0
LINE
8
0
10
102.5375
20
-97.775
11
116.5375
21
-97.775
0
LINE
8
0
10
102.5375
20
-111.775
11
116.5375
21
-111.775
0
LINE
8
0
10
102.5375
20
-97.775
11
102.5375
21
-111.775
0
LINE
8
0
10
116.5375
20
-97.775
11
116.5375
21
-111.775
0
LINE
8
0
10
273.9875
20
-97.775
11
287.9875
21
-97.775
0
LINE
8
0
10
273.9875
20
-111.775
11
287.9875
21
-111.775
0
LINE
8
0
10
273.9875
20
-97.775
11
273.9875
21
-111.775
0
LINE
8
0
10
287.9875
20
-97.775
11
287.9875
21
-111.775
0
LINE
8
0
10
297.8
20
-97.775
11
311.8
21
-97.775
0
LINE
8
0
10
297.8
20
-111.775
11
311.8
21
-111.775
0
LINE
8
0
10
297.8
20
-97.775
11
297.8
21
-111.775
0
LINE
8
0
10
311.8
20
-97.775
11
311.8
21
-111.775
0
LINE
8
0
10
150.1625
20
-116.825
11
164.1625
21
-116.825
0
LINE
8
0
10
150.1625
20
-130.825
11
164.1625
21
-130.825
0
LINE
8
0
10
150.1625
20
-116.825
11
150.1625
21
-130.825
0
LINE
8
0
10
164.1625
20
-116.825
11
164.1625
21
-130.825
0
LINE
8
0
10
134.7375
20
-117.825
11
141.4875
21
-117.825
0
LINE
8
0
10
134.7375
20
-131.825
11
141.4875
21
-131.825
0
LINE
8
0
10
134.7375
20
-117.825
11
134.7375
21
-131.825
0
LINE
8
0
10
141.4875
20
-117.825
11
141.4875
21
-131.825
0
LINE
8
0
10
172.8375
20
-117.825
11
179.5875
21
-117.825
0
LINE
8
0
10
172.8375
20
-131.825
11
179.5875
21
-131.825
0
LINE
8
0
10
172.8375
20
-117.825
11
172.8375
21
-131.825
0
LINE
8
0
10
179.5875
20
-117.825
11
179.5875
21
-131.825
0
LINE
8
0
10
226.3625
20
-116.825
11
240.3625
21
-116.825
0
LINE
8
0
10
226.3625
20
-130.825
11
240.3625
21
-130.825
0
LINE
8
0
10
226.3625
20
-116.825
11
226.3625
21
-130.825
0
LINE
8
0
10
240.3625
20
-116.825
11
240.3625
21
-130.825
0
LINE
8
0
10
210.9375
20
-117.825
11
217.6875
21
-117.825
0
LINE
8
0
10
210.9375
20
-131.825
11
217.6875
21
-131.825
0
LINE
8
0
10
210.9375
20
-117.825
11
210.9375
21
-131.825
0
LINE
8
0
10
217.6875
20
-117.825
11
217.6875
21
-131.825
0
LINE
8
0
10
249.0375
20
-117.825
11
255.7875
21
-117.825
0
LINE
8
0
10
249.0375
20
-131.825
11
255.7875
21
-131.825
0
LINE
8
0
10
249.0375
20
-117.825
11
249.0375
21
-131.825
0
LINE
8
0
10
255.7875
20
-117.825
11
255.7875
21
-131.825
0
LINE
8
0
10
188.2625
20
-135.875
11
202.2625
21
-135.875
0
LINE
8
0
10
188.2625
20
-149.875
11
202.2625
21
-149.875
0
LINE
8
0
10
188.2625
20
-135.875
11
188.2625
21
-149.875
0
LINE
8
0
10
202.2625
20
-135.875
11
202.2625
21
-149.875
0
LINE
8
0
10
172.8375
20
-136.875
11
179.5875
21
-136.875
0
LINE
8
0
10
172.8375
20
-150.875
11
179.5875
21
-150.875
0
LINE
8
0
10
172.8375
20
-136.875
11
172.8375
21
-150.875
0
LINE
8
0
10
179.5875
20
-136.875
11
179.5875
21
-150.875
0
LINE
8
0
10
210.9375
20
-136.875
11
217.6875
21
-136.875
0
LINE
8
0
10
210.9375
20
-150.875
11
217.6875
21
-150.875
0
LINE
8
0
10
210.9375
20
-136.875
11
210.9375
21
-150.875
0
LINE
8
0
10
217.6875
20
-136.875
11
217.6875
21
-150.875
0
LINE
8
0
10
159.6875
20
-154.925
11
173.6875
21
-154.925
0
LINE
8
0
10
159.6875
20
-168.925
11
173.6875
21
-168.925
0
LINE
8
0
10
159.6875
20
-154.925
11
159.6875
21
-168.925
0
LINE
8
0
10
173.6875
20
-154.925
11
173.6875
21
-168.925
0
LINE
8
0
10
151.3745
20
-155.925
11
158.1245
21
-155.925
0
LINE
8
0
10
151.3745
20
-169.925
11
158.1245
21
-169.925
0
LINE
8
0
10
151.3745
20
-155.925
11
151.3745
21
-169.925
0
LINE
8
0
10
158.1245
20
-155.925
11
158.1245
21
-169.925
0
LINE
8
0
10
175.2505
20
-155.925
11
182.0005
21
-155.925
0
LINE
8
0
10
175.2505
20
-169.925
11
182.0005
21
-169.925
0
LINE
8
0
10
175.2505
20
-155.925
11
175.2505
21
-169.925
0
LINE
8
0
10
182.0005
20
-155.925
11
182.0005
21
-169.925
0
LINE
8
0
10
216.8375
20
-154.925
11
230.8375
21
-154.925
0
LINE
8
0
10
216.8375
20
-168.925
11
230.8375
21
-168.925
0
LINE
8
0
10
216.8375
20
-154.925
11
216.8375
21
-168.925
0
LINE
8
0
10
230.8375
20
-154.925
11
230.8375
21
-168.925
0
LINE
8
0
10
208.5245
20
-155.925
11
215.2745
21
-155.925
0
LINE
8
0
10
208.5245
20
-169.925
11
215.2745
21
-169.925
0
LINE
8
0
10
208.5245
20
-155.925
11
208.5245
21
-169.925
0
LINE
8
0
10
215.2745
20
-155.925
11
215.2745
21
-169.925
0
LINE
8
0
10
232.4005
20
-155.925
11
239.1505
21
-155.925
0
LINE
8
0
10
232.4005
20
-169.925
11
239.1505
21
-169.925
0
LINE
8
0
10
232.4005
20
-155.925
11
232.4005
21
-169.925
0
LINE
8
0
10
239.1505
20
-155.925
11
239.1505
21
-169.925
0
LINE
8
0
10
169.2125
20
-173.975
11
183.2125
21
-173.975
0
LINE
8
0
10
169.2125
20
-187.975
11
183.2125
21
-187.975
0
LINE
8
0
10
169.2125
20
-173.975
11
169.2125
21
-187.975
0
LINE
8
0
10
183.2125
20
-173.975
11
183.2125
21
-187.975
0
LINE
8
0
10
153.7875
20
-174.975
11
160.5375
21
-174.975
0
LINE
8
0
10
153.7875
20
-188.975
11
160.5375
21
-188.975
0
LINE
8
0
10
153.7875
20
-174.975
11
153.7875
21
-188.975
0
LINE
8
0
10
160.5375
20
-174.975
11
160.5375
21
-188.975
0
LINE
8
0
10
191.8875
20
-174.975
11
198.6375
21
-174.975
0
LINE
8
0
10
191.8875
20
-188.975
11
198.6375
21
-188.975
0
LINE
8
0
10
191.8875
20
-174.975
11
191.8875
21
-188.975
0
LINE
8
0
10
198.6375
20
-174.975
11
198.6375
21
-188.975
0
LINE
8
0
10
207.3125
20
-193.025
11
221.3125
21
-193.025
0
LINE
8
0
10
207.3125
20
-207.025
11
221.3125
21
-207.025
0
LINE
8
0
10
207.3125
20
-193.025
11
207.3125
21
-207.025
0
LINE
8
0
10
221.3125
20
-193.025
11
221.3125
21
-207.025
0
LINE
8
0
10
191.8875
20
-194.025
11
198.6375
21
-194.025
0
LINE
8
0
10
191.8875
20
-208.025
11
198.6375
21
-208.025
0
LINE
8
0
10
191.8875
20
-194.025
11
191.8875
21
-208.025
0
LINE
8
0
10
198.6375
20
-194.025
11
198.6375
21
-208.025
0
LINE
8
0
10
229.9875
20
-194.025
11
236.7375
21
-194.025
0
LINE
8
0
10
229.9875
20
-208.025
11
236.7375
21
-208.025
0
LINE
8
0
10
229.9875
20
-194.025
11
229.9875
21
-208.025
0
LINE
8
0
10
236.7375
20
-194.025
11
236.7375
21
-208.025
0
LINE
8
0
10
188.2625
20
-212.075
11
202.2625
21
-212.075
0
LINE
8
0
10
188.2625
20
-226.075
11
202.2625
21
-226.075
0
LINE
8
0
10
188.2625
20
-212.075
11
188.2625
21
-226.075
0
LINE
8
0
10
202.2625
20
-212.075
11
202.2625
21
-226.075
0
LINE
8
0
10
134.7375
20
-213.075
11
141.4875
21
-213.075
0
LINE
8
0
10
134.7375
20
-227.075
11
141.4875
21
-227.075
0
LINE
8
0
10
134.7375
20
-213.075
11
134.7375
21
-227.075
0
LINE
8
0
10
141.4875
20
-213.075
11
141.4875
21
-227.075
0
LINE
8
0
10
249.0375
20
-213.075
11
255.7875
21
-213.075
0
LINE
8
0
10
249.0375
20
-227.075
11
255.7875
21
-227.075
0
LINE
8
0
10
249.0375
20
-213.075
11
249.0375
21
-227.075
0
LINE
8
0
10
255.7875
20
-213.075
11
255.7875
21
-227.075
0
LINE
8
0
10
131.1125
20
-78.725
11
145.1125
21
-78.725
0
LINE
8
0
10
131.1125
20
-92.725
11
145.1125
21
-92.725
0
LINE
8
0
10
131.1125
20
-78.725
11
131.1125
21
-92.725
0
LINE
8
0
10
145.1125
20
-78.725
11
145.1125
21
-92.725
0
LINE
8
0
10
150.1625
20
-78.725
11
164.1625
21
-78.725
0
LINE
8
0
10
150.1625
20
-92.725
11
164.1625
21
-92.725
0
LINE
8
0
10
150.1625
20
-78.725
11
150.1625
21
-92.725
0
LINE
8
0
10
164.1625
20
-78.725
11
164.1625
21
-92.725
0
LINE
8
0
10
169.2125
20
-78.725
11
183.2125
21
-78.725
0
LINE
8
0
10
169.2125
20
-92.725
11
183.2125
21
-92.725
0
LINE
8
0
10
169.2125
20
-78.725
11
169.2125
21
-92.725
0
LINE
8
0
10
183.2125
20
-78.725
11
183.2125
21
-92.725
0
LINE
8
0
10
126.35
20
-97.775
11
140.35
21
-97.775
0
LINE
8
0
10
126.35
20
-111.775
11
140.35
21
-111.775
0
LINE
8
0
10
126.35
20
-97.775
11
126.35
21
-111.775
0
LINE
8
0
10
140.35
20
-97.775
11
140.35
21
-111.775
0
LINE
8
0
10
250.175
20
-97.775
11
264.175
21
-97.775
0
LINE
8
0
10
250.175
20
-111.775
11
264.175
21
-111.775
0
LINE
8
0
10
250.175
20
-97.775
11
250.175
21
-111.775
0
LINE
8
0
10
264.175
20
-97.775
11
264.175
21
-111.775
0
LINE
8
0
10
188.2625
20
-78.725
11
202.2625
21
-78.725
0
LINE
8
0
10
188.2625
20
-92.725
11
202.2625
21
-92.725
0
LINE
8
0
10
188.2625
20
-78.725
11
188.2625
21
-92.725
0
LINE
8
0
10
202.2625
20
-78.725
11
202.2625
21
-92.725
0
LINE
8
0
10
207.3125
20
-78.725
11
221.3125
21
-78.725
0
LINE
8
0
10
207.3125
20
-92.725
11
221.3125
21
-92.725
0
LINE
8
0
10
207.3125
20
-78.725
11
207.3125
21
-92.725
0
LINE
8
0
10
221.3125
20
-78.725
11
221.3125
21
-92.725
0
LINE
8
0
10
226.3625
20
-78.725
11
240.3625
21
-78.725
0
LINE
8
0
10
226.3625
20
-92.725
11
240.3625
21
-92.725
0
LINE
8
0
10
226.3625
20
-78.725
11
226.3625
21
-92.725
0
LINE
8
0
10
240.3625
20
-78.725
11
240.3625
21
-92.725
0
LINE
8
0
10
14.2875
20
-228.6
11
376.2375
21
-228.6
0
LINE
8
0
10
14.2875
20
0
11
376.2375
21
0
0
LINE
8
0
10
14.2875
20
-228.6
11
14.2875
21
0
0
LINE
8
0
10
376.2375
20
-228.6
11
376.2375
21
0
0
ENDSEC
0
EOF